<?xml version="1.0" encoding="utf-8"?>
<!-- Generator: Adobe Illustrator 24.0.1, SVG Export Plug-In . SVG Version: 6.00 Build 0)  -->
<svg version="1.1" id="Capa_1" xmlns="http://www.w3.org/2000/svg" xmlns:xlink="http://www.w3.org/1999/xlink" x="0px" y="0px"
	 viewBox="0 0 560 601" style="enable-background:new 0 0 560 601;" xml:space="preserve">
<style type="text/css">
	.st0{fill:url(#SVGID_1_);}
	.st1{fill:url(#SVGID_2_);}
	.st2{fill:#E5CD67;}
	.st3{fill:#FFEFB3;}
	.st4{fill:#F9E385;}
	.st5{fill:url(#SVGID_3_);}
	.st6{fill:url(#SVGID_4_);}
	.st7{fill:url(#SVGID_5_);}
	.st8{fill:url(#SVGID_6_);}
	.st9{fill:url(#SVGID_7_);}
	.st10{fill:url(#SVGID_8_);}
	.st11{fill:url(#SVGID_9_);}
	.st12{fill:url(#SVGID_10_);}
	.st13{fill:url(#SVGID_11_);}
	.st14{fill:url(#SVGID_12_);}
	.st15{fill:url(#SVGID_13_);}
	.st16{fill:url(#SVGID_14_);}
	.st17{fill:url(#SVGID_15_);}
	.st18{fill:url(#SVGID_16_);}
	.st19{fill:url(#SVGID_17_);}
	.st20{fill:url(#SVGID_18_);}
	.st21{fill:url(#SVGID_19_);}
	.st22{fill:url(#SVGID_20_);}
	.st23{fill:url(#SVGID_21_);}
	.st24{fill:url(#SVGID_22_);}
	.st25{fill:#1D1D1B;}
	.st26{fill:#F26925;}
	.st27{fill:url(#SVGID_23_);}
	.st28{fill:url(#SVGID_24_);}
	.st29{fill:url(#SVGID_25_);}
	.st30{fill:url(#SVGID_26_);}
	.st31{fill:url(#SVGID_27_);}
	.st32{fill:url(#SVGID_28_);}
	.st33{fill:url(#SVGID_29_);}
	.st34{fill:url(#SVGID_30_);}
	.st35{fill:url(#SVGID_31_);}
	.st36{fill:url(#SVGID_32_);}
	.st37{fill:url(#SVGID_33_);}
	.st38{fill:url(#SVGID_34_);}
	.st39{fill:url(#SVGID_35_);}
	.st40{fill:url(#SVGID_36_);}
	.st41{fill:url(#SVGID_37_);}
	.st42{fill:url(#SVGID_38_);}
	.st43{fill:url(#SVGID_39_);}
	.st44{fill:url(#SVGID_40_);}
	.st45{fill:url(#SVGID_41_);}
	.st46{fill:url(#SVGID_42_);}
	.st47{fill:url(#SVGID_43_);}
	.st48{fill:url(#SVGID_44_);}
	.st49{fill:url(#SVGID_45_);}
	.st50{fill:url(#SVGID_46_);}
	.st51{fill:url(#SVGID_47_);}
	.st52{fill:url(#SVGID_48_);}
	.st53{fill:url(#SVGID_49_);}
	.st54{fill:url(#SVGID_50_);}
	.st55{fill:url(#SVGID_51_);}
	.st56{fill:url(#SVGID_52_);}
	.st57{fill:url(#SVGID_53_);}
	.st58{fill:url(#SVGID_54_);}
	.st59{fill:url(#SVGID_55_);}
	.st60{fill:#ED5992;}
	.st61{fill:url(#SVGID_56_);}
	.st62{fill:#EA031F;}
	.st63{fill:#0DCE4E;}
	.st64{fill:#CC8006;}
</style>
<linearGradient id="SVGID_1_" gradientUnits="userSpaceOnUse" x1="282.7494" y1="772.1979" x2="279.5664" y2="227.265" gradientTransform="matrix(1 0 0 -1 0 602)">
	<stop  offset="0" style="stop-color:#D47D00;stop-opacity:0"/>
	<stop  offset="0.111" style="stop-color:#C88001;stop-opacity:0.1054"/>
	<stop  offset="0.3117" style="stop-color:#A88804;stop-opacity:0.2961"/>
	<stop  offset="0.5796" style="stop-color:#749409;stop-opacity:0.5506"/>
	<stop  offset="0.9008" style="stop-color:#2DA510;stop-opacity:0.8558"/>
	<stop  offset="1" style="stop-color:#16AB12;stop-opacity:0.95"/>
</linearGradient>
<rect class="st0" width="560" height="601"/>
<linearGradient id="SVGID_2_" gradientUnits="userSpaceOnUse" x1="732.2275" y1="304.8426" x2="722.751" y2="328.4944" gradientTransform="matrix(-1 0 0 -1 1131.9065 602)">
	<stop  offset="0" style="stop-color:#F8C79C"/>
	<stop  offset="1" style="stop-color:#BF5500"/>
</linearGradient>
<path class="st1" d="M395.2,281.4c-5,10.4-4.9,20.8,0.1,23.1c5,2.4,13.1-4.1,18-14.5c5-10.4,4.9-20.8-0.1-23.1
	C408.2,264.5,400.2,271,395.2,281.4z"/>
<g>
	<path class="st2" d="M406.8,404.5l27-14.8c0,0,12.5,9.6,12.6,19.4c0.1,9.8,0,53,0,53s-30.7,42-44,37L406.8,404.5z"/>
	<path class="st3" d="M324.8,491.8l75.2,7.8c5.1,0,10.3-6.8,10.3-11.8v-76c0-5.1-4.1-9.2-9.2-9.2l-77.8-5.8c-5.1,0-7.7,6.9-7.7,12
		v73.9C315.7,487.7,319.8,491.8,324.8,491.8z"/>
	<polygon class="st4" points="321.8,396.8 341.9,365.6 408.5,369.8 432.2,389.1 406.1,404 	"/>
	<path class="st2" d="M329.4,484.9l62.1,6.6c4.2,0,8.5-5.7,8.5-10v-64.3c0-4.3-3.4-7.8-7.6-7.8l-64.3-4.9c-4.2,0-6.4,5.9-6.4,10.2
		v62.5C321.8,481.4,325.2,484.9,329.4,484.9z"/>
</g>
<g>
	<path class="st2" d="M191,404.5l-27-14.8c0,0-12.5,9.6-12.6,19.4c-0.1,9.8,0,53,0,53s30.7,42,44,37L191,404.5z"/>
	<path class="st3" d="M272.9,491.8l-75.2,7.8c-5.1,0-10.3-6.8-10.3-11.8v-76c0-5.1,4.1-9.2,9.2-9.2l77.8-5.8c5.1,0,7.7,6.9,7.7,12
		v73.9C282.1,487.7,278,491.8,272.9,491.8z"/>
	<polygon class="st4" points="275.9,396.8 255.9,365.6 189.3,369.8 165.5,389.1 191.6,404 	"/>
	<path class="st2" d="M268.4,484.9l-62.1,6.6c-4.2,0-8.5-5.7-8.5-10v-64.3c0-4.3,3.4-7.8,7.6-7.8l64.3-4.9c4.2,0,6.4,5.9,6.4,10.2
		v62.5C275.9,481.4,272.6,484.9,268.4,484.9z"/>
</g>
<linearGradient id="SVGID_3_" gradientUnits="userSpaceOnUse" x1="153.8632" y1="204.9204" x2="211.9297" y2="231.2743" gradientTransform="matrix(1 0 0 -1 0 602)">
	<stop  offset="0" style="stop-color:#92C3F4"/>
	<stop  offset="1" style="stop-color:#1200FF"/>
</linearGradient>
<path class="st5" d="M221.9,381.5c0,0,2.9,6.9-6.9,11.9c0,0-18,6-33.5,6.9c0,0-13.4,1.7-16,6.9c0,0-15-16.7-12.7-21.7l17.3-19.8
	L221.9,381.5z"/>
<g>
	
		<linearGradient id="SVGID_4_" gradientUnits="userSpaceOnUse" x1="85.0801" y1="164.5403" x2="138.6871" y2="164.5403" gradientTransform="matrix(1 0 0 -1 0 602)">
		<stop  offset="0" style="stop-color:#F9F7F7"/>
		<stop  offset="1" style="stop-color:#878384"/>
	</linearGradient>
	<path class="st6" d="M138.7,446.1l-5.6,3.6c0,0-11-0.2-17.2-1.8c-6.3-1.6-20.7-8.1-20.7-8.1s-9.3-5.9-9.7-8.2
		c-0.8-5.5-0.1-5.5-0.1-6.4L138.7,446.1z"/>
	
		<linearGradient id="SVGID_5_" gradientUnits="userSpaceOnUse" x1="95.0541" y1="183.2013" x2="148.3393" y2="183.2013" gradientTransform="matrix(1 0 0 -1 0 602)">
		<stop  offset="0" style="stop-color:#F9F7F7"/>
		<stop  offset="1" style="stop-color:#878384"/>
	</linearGradient>
	<path class="st7" d="M148.3,426.5l-5.3,4.5c0,0-11-0.2-17.2-1.8c-6.3-1.6-20.7-8.1-20.7-8.1s-9.3-5.9-9.7-8.2
		c-0.8-5.5-0.1-5.5-0.1-6.4L148.3,426.5z"/>
	
		<linearGradient id="SVGID_6_" gradientUnits="userSpaceOnUse" x1="85.0919" y1="175.5984" x2="142.2673" y2="162.9252" gradientTransform="matrix(1 0 0 -1 0 602)">
		<stop  offset="0" style="stop-color:#50BAFF"/>
		<stop  offset="1" style="stop-color:#312783"/>
	</linearGradient>
	<path class="st8" d="M140.4,432.8c0,0,2.9,9.4,0,11.7l-1.7,1.5c0,0-25.5-0.8-32.4-5.7c0,0-17.3-5.7-19.5-10c0,0-3.4-6.6,0.6-8.2
		l11.6,0.8c0,0,17.2,4,22.9,1.1L140.4,432.8z"/>
	
		<linearGradient id="SVGID_7_" gradientUnits="userSpaceOnUse" x1="94.7441" y1="195.2246" x2="151.9196" y2="182.5515" gradientTransform="matrix(1 0 0 -1 0 602)">
		<stop  offset="0" style="stop-color:#50BAFF"/>
		<stop  offset="1" style="stop-color:#312783"/>
	</linearGradient>
	<path class="st9" d="M150,413.2c0,0,2.9,9.4,0,11.7l-1.7,1.5c0,0-25.5-0.8-32.4-5.7c0,0-17.3-5.7-19.5-10c0,0-3.4-6.6,0.6-8.2
		l11.6,0.8c0,0,17.2,4,22.9,1.1L150,413.2z"/>
	
		<linearGradient id="SVGID_8_" gradientUnits="userSpaceOnUse" x1="5.6544" y1="243.5959" x2="16.4857" y2="243.5959" gradientTransform="matrix(0.9742 0.2256 0.2256 -0.9742 40.7489 664.6757)">
		<stop  offset="0" style="stop-color:#F9F7F7"/>
		<stop  offset="1" style="stop-color:#FFFFFF"/>
	</linearGradient>
	<path class="st10" d="M102.2,424.3c0,0,6.7,6,6,10.6l2.3,0.5c0,0,3.1-2.3-5.2-10.6L102.2,424.3z"/>
	
		<linearGradient id="SVGID_9_" gradientUnits="userSpaceOnUse" x1="-0.4066" y1="243.444" x2="10.2306" y2="243.444" gradientTransform="matrix(0.9742 0.2256 0.2256 -0.9742 40.7489 664.6757)">
		<stop  offset="0" style="stop-color:#F9F7F7"/>
		<stop  offset="1" style="stop-color:#FFFFFF"/>
	</linearGradient>
	<path class="st11" d="M96.2,423.6c0,0,6.9,4.8,6,10.1l2.3,0.5c0,0,3.1-2.3-5.2-10.6H96.2z"/>
	
		<linearGradient id="SVGID_10_" gradientUnits="userSpaceOnUse" x1="11.9616" y1="244.377" x2="22.5607" y2="244.377" gradientTransform="matrix(0.9742 0.2256 0.2256 -0.9742 40.7489 664.6757)">
		<stop  offset="0" style="stop-color:#F9F7F7"/>
		<stop  offset="1" style="stop-color:#FFFFFF"/>
	</linearGradient>
	<path class="st12" d="M108.5,425.2c0,0,6.9,5.1,5.9,10.4l2.3,0.5c0,0,3-2.4-5.3-10.7L108.5,425.2z"/>
	
		<linearGradient id="SVGID_11_" gradientUnits="userSpaceOnUse" x1="-1.6956" y1="272.9013" x2="9.1357" y2="272.9013" gradientTransform="matrix(0.9668 0.2556 0.2556 -0.9668 43.115 672.84)">
		<stop  offset="0" style="stop-color:#F9F7F7"/>
		<stop  offset="1" style="stop-color:#FFFFFF"/>
	</linearGradient>
	<path class="st13" d="M112.4,404.3c0,0,6.5,6.3,5.7,10.8l2.2,0.6c0,0,3.2-2.2-4.9-10.7L112.4,404.3z"/>
	
		<linearGradient id="SVGID_12_" gradientUnits="userSpaceOnUse" x1="-7.7604" y1="272.7893" x2="2.8688" y2="272.7893" gradientTransform="matrix(0.9668 0.2556 0.2556 -0.9668 43.115 672.84)">
		<stop  offset="0" style="stop-color:#F9F7F7"/>
		<stop  offset="1" style="stop-color:#FFFFFF"/>
	</linearGradient>
	<path class="st14" d="M106.3,403.4c0,0,6.8,5,5.6,10.2l2.2,0.6c0,0,3.2-2.2-4.9-10.7L106.3,403.4z"/>
	
		<linearGradient id="SVGID_13_" gradientUnits="userSpaceOnUse" x1="4.5966" y1="274.2873" x2="11.7186" y2="274.2873" gradientTransform="matrix(0.9668 0.2556 0.2556 -0.9668 43.115 672.84)">
		<stop  offset="0" style="stop-color:#F9F7F7"/>
		<stop  offset="1" style="stop-color:#FFFFFF"/>
	</linearGradient>
	<path class="st15" d="M118.6,405.3c0,0,5.9,5.2,4.9,9.2l0.9-5.5c0,0,0.8-0.2-3-3.4L118.6,405.3z"/>
</g>
<linearGradient id="SVGID_14_" gradientUnits="userSpaceOnUse" x1="131.8744" y1="204.0905" x2="155.0505" y2="184.7618" gradientTransform="matrix(1 0 0 -1 0 602)">
	<stop  offset="0.2635" style="stop-color:#F8C79C"/>
	<stop  offset="0.9768" style="stop-color:#BF5500"/>
</linearGradient>
<path class="st16" d="M150.5,378.3l-19.4,8.2c0,0-5,9.3-5.6,14.9c-0.6,5.6-3.5,23.4-3.5,23.4s8.1,9.6,17.7,7.9
	c0,0,16.9-29.4,10.8-39.2c0,0-0.2,6.3,12.7,4.8C176.1,396.7,150.5,378.3,150.5,378.3z"/>
<g>
	
		<linearGradient id="SVGID_15_" gradientUnits="userSpaceOnUse" x1="168.5783" y1="227.3394" x2="78.146" y2="228.538" gradientTransform="matrix(1 0 0 -1 0 602)">
		<stop  offset="0" style="stop-color:#D33145"/>
		<stop  offset="1" style="stop-color:#FFD62A"/>
	</linearGradient>
	<polygon class="st17" points="78.1,374.3 145.4,394.3 168.6,372.3 168.6,365 91.5,353.7 	"/>
	
		<linearGradient id="SVGID_16_" gradientUnits="userSpaceOnUse" x1="117.5312" y1="277.9599" x2="171.0145" y2="262.3377" gradientTransform="matrix(0.9996 2.692039e-02 2.692039e-02 -0.9996 -2.369 605.7554)">
		<stop  offset="0" style="stop-color:#FFFFFF"/>
		<stop  offset="1" style="stop-color:#7A7979"/>
	</linearGradient>
	<path class="st18" d="M171.1,332.9c0,0-33.7-13.6-40-12.4c0,0-16.5,10-18.3,22.3l53.1,14.2L171.1,332.9z"/>
	
		<linearGradient id="SVGID_17_" gradientUnits="userSpaceOnUse" x1="83.8502" y1="220.6533" x2="157.5475" y2="254.1013" gradientTransform="matrix(1 0 0 -1 0 602)">
		<stop  offset="0" style="stop-color:#FFFFFF"/>
		<stop  offset="1" style="stop-color:#7A7979"/>
	</linearGradient>
	<path class="st19" d="M168,356.9l-56.6-14.4c0,0-18.1-0.4-31.3,23.2l64.3,16.7L168,356.9z"/>
	
		<linearGradient id="SVGID_18_" gradientUnits="userSpaceOnUse" x1="80.1623" y1="224.8668" x2="145.4115" y2="224.8668" gradientTransform="matrix(1 0 0 -1 0 602)">
		<stop  offset="0" style="stop-color:#FFFFFF"/>
		<stop  offset="1" style="stop-color:#7A7979"/>
	</linearGradient>
	<polygon class="st20" points="80.2,365 81.3,370.4 81.6,371.7 145.4,389.2 144.5,382.4 	"/>
	
		<linearGradient id="SVGID_19_" gradientUnits="userSpaceOnUse" x1="140.3306" y1="221.8032" x2="169.2258" y2="233.9904" gradientTransform="matrix(1 0 0 -1 0 602)">
		<stop  offset="0" style="stop-color:#FFFFFF"/>
		<stop  offset="1" style="stop-color:#7A7979"/>
	</linearGradient>
	<polygon class="st21" points="145.4,389.1 168,366.7 167.4,357.8 144.4,381.7 	"/>
</g>
<g>
	
		<linearGradient id="SVGID_20_" gradientUnits="userSpaceOnUse" x1="185.2516" y1="297.7231" x2="175.7751" y2="321.3749" gradientTransform="matrix(1 0 0 -1 0 602)">
		<stop  offset="0" style="stop-color:#F8C79C"/>
		<stop  offset="1" style="stop-color:#BF5500"/>
	</linearGradient>
	<path class="st22" d="M189.7,288.6c5,10.4,4.9,20.8-0.1,23.1c-5,2.4-13.1-4.1-18-14.5c-5-10.4-4.9-20.8,0.1-23.1
		C176.7,271.7,184.8,278.2,189.7,288.6z"/>
	
		<linearGradient id="SVGID_21_" gradientUnits="userSpaceOnUse" x1="201.1488" y1="392.0058" x2="221.0974" y2="398.1375" gradientTransform="matrix(1 0 0 -1 0 602)">
		<stop  offset="0" style="stop-color:#F8C79C"/>
		<stop  offset="0.7808" style="stop-color:#CC6E23"/>
		<stop  offset="1" style="stop-color:#BF5500"/>
	</linearGradient>
	<ellipse class="st23" cx="210.7" cy="207.1" rx="10.4" ry="13.3"/>
	
		<linearGradient id="SVGID_22_" gradientUnits="userSpaceOnUse" x1="150.5504" y1="366.4685" x2="275.7726" y2="395.7351" gradientTransform="matrix(1 0 0 -1 0 602)">
		<stop  offset="0" style="stop-color:#F8C79C"/>
		<stop  offset="1" style="stop-color:#BF5500"/>
	</linearGradient>
	<circle class="st24" cx="147.9" cy="236.1" r="64.3"/>
	
		<ellipse transform="matrix(0.9411 -0.3382 0.3382 0.9411 -69.744 69.5501)" class="st25" cx="164.7" cy="234.9" rx="9.5" ry="11.1"/>
	
		<ellipse transform="matrix(0.9411 -0.3382 0.3382 0.9411 -78.2374 52.9795)" class="st25" cx="112.9" cy="251" rx="9.5" ry="11.1"/>
	<path class="st26" d="M134.1,284.2c0,0,33.1,16.7,43.6-12.9L134.1,284.2z"/>
</g>
<g>
	
		<linearGradient id="SVGID_23_" gradientUnits="userSpaceOnUse" x1="223.8447" y1="261.1989" x2="172.9238" y2="262.2081" gradientTransform="matrix(1 0 0 -1 0 602)">
		<stop  offset="0" style="stop-color:#FF0EFF"/>
		<stop  offset="1" style="stop-color:#FE7FFF"/>
	</linearGradient>
	<path class="st27" d="M172.3,369.2c0,0,10.3,8.1,16.3,8.1c0,0,22.6,10.6,34.2,6c0,0,2.1-37.8-5.9-49.6c0,0-9.3-38.7-25.9-37.5
		c0,0,2.9,5.5-0.5,8.5c-3.3,3-7.9,1.5-7.9,1.5L172.3,369.2z"/>
	
		<linearGradient id="SVGID_24_" gradientUnits="userSpaceOnUse" x1="195.2629" y1="273.9838" x2="168.4527" y2="274.5151" gradientTransform="matrix(1 0 0 -1 0 602)">
		<stop  offset="0" style="stop-color:#FF0EFF"/>
		<stop  offset="1" style="stop-color:#FE7FFF"/>
	</linearGradient>
	<path class="st28" d="M192.6,350.9c0,0-13.6-3.2-24.6-2.1c0,0,2.5-42.6,9-43.6c0,0,9.4-1.4,11.6,0.8
		C188.6,306.1,199.6,350.3,192.6,350.9z"/>
</g>
<g>
	
		<linearGradient id="SVGID_25_" gradientUnits="userSpaceOnUse" x1="-252.739" y1="145.3387" x2="-231.5717" y2="159.5216" gradientTransform="matrix(-0.2149 1.0082 1.1218 0.1118 -51.8073 590.8403)">
		<stop  offset="0" style="stop-color:#F8C79C"/>
		<stop  offset="1" style="stop-color:#BF5500"/>
	</linearGradient>
	<path class="st29" d="M171.5,368.1c-12.7,3.8-24.4,2.6-26-2.7c-1.6-5.3,7.4-12.7,20.2-16.5c12.7-3.8,24.4-2.6,26,2.7
		C193.3,356.8,184.2,364.2,171.5,368.1z"/>
	
		<linearGradient id="SVGID_26_" gradientUnits="userSpaceOnUse" x1="128.7727" y1="246.6271" x2="144.4756" y2="217.3797" gradientTransform="matrix(1 0 0 -1 0 602)">
		<stop  offset="0.2635" style="stop-color:#F8C79C"/>
		<stop  offset="0.9768" style="stop-color:#BF5500"/>
	</linearGradient>
	<path class="st30" d="M145.1,358.4c0,0-11.6-1.8-14.9,0.6c-3.3,2.5,0.5,2.6,0.5,2.6h1.1c0,0-11.7,3.6-11.8,6.5
		c-0.1,2.9,1,1.3,1,1.3c2.9-0.1,2.9-0.1,2.9-0.1s-2.1,1.4-2.4,2.8s-0.3,1.4-0.3,1.4s2.9,1.3,5,0.8s2.1-0.4,2.1-0.4s-1.7,0.1-2.2,1.7
		c-0.5,1.5,4.2,1.5,4.2,1.5s0.4,1.4,2.2,1c1.8-0.4,10.6-3.5,12.9-5.6c3.8-3.6,3.2-3.9,3.2-3.9L148,359L145.1,358.4z"/>
</g>
<linearGradient id="SVGID_27_" gradientUnits="userSpaceOnUse" x1="149.7084" y1="285.2606" x2="169.0681" y2="269.1148" gradientTransform="matrix(1 0 0 -1 0 602)">
	<stop  offset="0.2635" style="stop-color:#F8C79C"/>
	<stop  offset="0.9768" style="stop-color:#BF5500"/>
</linearGradient>
<path class="st31" d="M171.7,317.8c0,0-6.9-0.6-8.2-1.4c-1.4-0.8-1.4-0.8-1.4-0.8s-4.9-1.4-6.8-1.5c-2-0.1-2-0.1-2-0.1h-8.8
	c0,0-1.1,0.3-0.5,1.3c0.6,1,6,1.8,6,1.8s-7.8-0.8-9.3,0.4c0,0-1,0.4,0,1.5l8.2,1.5c0,0-7.9,0.1-9.6,2.1c0,0,0.3,2,2.1,2.1
	c0,0,11.6-1,12.5,0c0,0,1.1,1.8-0.4,2.8c-1.5,1-1.5,1-1.5,1s-3.8,2.2-4,3.2c0,0-0.1,2,2.3,2.1c2.4,0.1,2.4,0.1,2.4,0.1l5.6-1.1
	l5.6-4.4c0,0,2.4-2.9,6.5,0.7L171.7,317.8z"/>
<linearGradient id="SVGID_28_" gradientUnits="userSpaceOnUse" x1="701.0339" y1="211.3544" x2="759.1005" y2="237.7083" gradientTransform="matrix(-1 0 0 -1 1131.9065 602)">
	<stop  offset="0" style="stop-color:#92C3F4"/>
	<stop  offset="1" style="stop-color:#2D069A"/>
</linearGradient>
<path class="st32" d="M362.9,375.1c0,0-2.9,6.9,6.9,11.9c0,0,18,6,33.5,6.9c0,0,13.4,1.7,16,6.9c0,0,15-16.7,12.7-21.7l-17.3-19.8
	L362.9,375.1z"/>
<g>
	
		<linearGradient id="SVGID_29_" gradientUnits="userSpaceOnUse" x1="632.2526" y1="170.9751" x2="685.8597" y2="170.9751" gradientTransform="matrix(-1 0 0 -1 1131.9065 602)">
		<stop  offset="0" style="stop-color:#F9F7F7"/>
		<stop  offset="1" style="stop-color:#878384"/>
	</linearGradient>
	<path class="st33" d="M446,439.7l5.6,3.6c0,0,11-0.2,17.2-1.8c6.3-1.6,20.7-8.1,20.7-8.1s9.3-5.9,9.7-8.2c0.8-5.5,0.1-5.5,0.1-6.4
		L446,439.7z"/>
	
		<linearGradient id="SVGID_30_" gradientUnits="userSpaceOnUse" x1="642.2266" y1="189.6361" x2="695.5119" y2="189.6361" gradientTransform="matrix(-1 0 0 -1 1131.9065 602)">
		<stop  offset="0" style="stop-color:#F9F7F7"/>
		<stop  offset="1" style="stop-color:#878384"/>
	</linearGradient>
	<path class="st34" d="M436.4,420.1l5.3,4.5c0,0,11-0.2,17.2-1.8c6.3-1.6,20.7-8.1,20.7-8.1s9.3-5.9,9.7-8.2
		c0.8-5.5,0.1-5.5,0.1-6.4L436.4,420.1z"/>
	
		<linearGradient id="SVGID_31_" gradientUnits="userSpaceOnUse" x1="632.2643" y1="182.0332" x2="689.4399" y2="169.3601" gradientTransform="matrix(-1 0 0 -1 1131.9065 602)">
		<stop  offset="0" style="stop-color:#50BAFF"/>
		<stop  offset="1" style="stop-color:#312783"/>
	</linearGradient>
	<path class="st35" d="M444.3,426.4c0,0-2.9,9.4,0,11.7l1.7,1.5c0,0,25.5-0.8,32.4-5.7c0,0,17.3-5.7,19.5-10c0,0,3.4-6.6-0.6-8.2
		l-11.6,0.8c0,0-17.2,4-22.9,1.1L444.3,426.4z"/>
	
		<linearGradient id="SVGID_32_" gradientUnits="userSpaceOnUse" x1="641.9166" y1="201.6594" x2="699.0922" y2="188.9863" gradientTransform="matrix(-1 0 0 -1 1131.9065 602)">
		<stop  offset="0" style="stop-color:#50BAFF"/>
		<stop  offset="1" style="stop-color:#312783"/>
	</linearGradient>
	<path class="st36" d="M434.7,406.8c0,0-2.9,9.4,0,11.7l1.7,1.5c0,0,25.5-0.8,32.4-5.7c0,0,17.3-5.7,19.5-10c0,0,3.4-6.6-0.6-8.2
		l-11.6,0.8c0,0-17.2,4-22.9,1.1L434.7,406.8z"/>
	
		<linearGradient id="SVGID_33_" gradientUnits="userSpaceOnUse" x1="537.2749" y1="373.3119" x2="548.1062" y2="373.3119" gradientTransform="matrix(-0.9742 0.2256 -0.2256 -0.9742 1091.1575 664.6757)">
		<stop  offset="0" style="stop-color:#F9F7F7"/>
		<stop  offset="1" style="stop-color:#FFFFFF"/>
	</linearGradient>
	<path class="st37" d="M482.5,417.9c0,0-6.7,6-6,10.6l-2.3,0.5c0,0-3.1-2.3,5.2-10.6L482.5,417.9z"/>
	
		<linearGradient id="SVGID_34_" gradientUnits="userSpaceOnUse" x1="531.2178" y1="373.1599" x2="541.8551" y2="373.1599" gradientTransform="matrix(-0.9742 0.2256 -0.2256 -0.9742 1091.1575 664.6757)">
		<stop  offset="0" style="stop-color:#F9F7F7"/>
		<stop  offset="1" style="stop-color:#FFFFFF"/>
	</linearGradient>
	<path class="st38" d="M488.6,417.2c0,0-6.9,4.8-6,10.1l-2.3,0.5c0,0-3.1-2.3,5.2-10.6H488.6z"/>
	
		<linearGradient id="SVGID_35_" gradientUnits="userSpaceOnUse" x1="543.5745" y1="374.093" x2="554.1736" y2="374.093" gradientTransform="matrix(-0.9742 0.2256 -0.2256 -0.9742 1091.1575 664.6757)">
		<stop  offset="0" style="stop-color:#F9F7F7"/>
		<stop  offset="1" style="stop-color:#FFFFFF"/>
	</linearGradient>
	<path class="st39" d="M476.3,418.8c0,0-6.9,5.1-5.9,10.4l-2.3,0.5c0,0-3-2.4,5.3-10.7L476.3,418.8z"/>
	
		<linearGradient id="SVGID_36_" gradientUnits="userSpaceOnUse" x1="525.6484" y1="418.9749" x2="536.4797" y2="418.9749" gradientTransform="matrix(-0.9668 0.2556 -0.2556 -0.9668 1088.7915 672.84)">
		<stop  offset="0" style="stop-color:#F9F7F7"/>
		<stop  offset="1" style="stop-color:#FFFFFF"/>
	</linearGradient>
	<path class="st40" d="M472.4,397.8c0,0-6.5,6.3-5.7,10.8l-2.2,0.6c0,0-3.2-2.2,4.9-10.7L472.4,397.8z"/>
	
		<linearGradient id="SVGID_37_" gradientUnits="userSpaceOnUse" x1="519.584" y1="418.8629" x2="530.2133" y2="418.8629" gradientTransform="matrix(-0.9668 0.2556 -0.2556 -0.9668 1088.7915 672.84)">
		<stop  offset="0" style="stop-color:#F9F7F7"/>
		<stop  offset="1" style="stop-color:#FFFFFF"/>
	</linearGradient>
	<path class="st41" d="M478.4,396.9c0,0-6.8,5-5.6,10.2l-2.2,0.6c0,0-3.2-2.2,4.9-10.7L478.4,396.9z"/>
	
		<linearGradient id="SVGID_38_" gradientUnits="userSpaceOnUse" x1="531.9411" y1="420.3609" x2="539.063" y2="420.3609" gradientTransform="matrix(-0.9668 0.2556 -0.2556 -0.9668 1088.7915 672.84)">
		<stop  offset="0" style="stop-color:#F9F7F7"/>
		<stop  offset="1" style="stop-color:#FFFFFF"/>
	</linearGradient>
	<path class="st42" d="M466.2,398.9c0,0-5.9,5.2-4.9,9.2l-0.9-5.5c0,0-0.8-0.2,3-3.4L466.2,398.9z"/>
</g>
<linearGradient id="SVGID_39_" gradientUnits="userSpaceOnUse" x1="679.0471" y1="210.528" x2="702.2233" y2="191.1994" gradientTransform="matrix(-1 0 0 -1 1131.9065 602)">
	<stop  offset="0.2635" style="stop-color:#F8C79C"/>
	<stop  offset="0.9768" style="stop-color:#BF5500"/>
</linearGradient>
<path class="st43" d="M434.2,371.8l19.4,8.2c0,0,5,9.3,5.6,14.9c0.6,5.6,3.5,23.4,3.5,23.4s-8.1,9.6-17.7,7.9
	c0,0-16.9-29.4-10.8-39.2c0,0,0.2,6.3-12.7,4.8C408.6,390.3,434.2,371.8,434.2,371.8z"/>
<g>
	
		<linearGradient id="SVGID_40_" gradientUnits="userSpaceOnUse" x1="715.7509" y1="233.7742" x2="625.3186" y2="234.9729" gradientTransform="matrix(-1 0 0 -1 1131.9065 602)">
		<stop  offset="0" style="stop-color:#D33145"/>
		<stop  offset="1" style="stop-color:#FFD62A"/>
	</linearGradient>
	<polygon class="st44" points="506.6,367.8 439.3,387.9 416.1,365.9 416.1,358.6 493.2,347.2 	"/>
	
		<linearGradient id="SVGID_41_" gradientUnits="userSpaceOnUse" x1="664.3456" y1="299.1259" x2="717.8289" y2="283.5037" gradientTransform="matrix(-0.9996 2.692039e-02 -2.692039e-02 -0.9996 1134.2755 605.7554)">
		<stop  offset="0" style="stop-color:#FFFFFF"/>
		<stop  offset="1" style="stop-color:#7A7979"/>
	</linearGradient>
	<path class="st45" d="M413.6,326.5c0,0,33.7-13.6,40-12.4c0,0,16.5,10,18.3,22.3l-53.1,14.2L413.6,326.5z"/>
	
		<linearGradient id="SVGID_42_" gradientUnits="userSpaceOnUse" x1="631.0211" y1="227.0873" x2="704.7183" y2="260.5354" gradientTransform="matrix(-1 0 0 -1 1131.9065 602)">
		<stop  offset="0" style="stop-color:#FFFFFF"/>
		<stop  offset="1" style="stop-color:#7A7979"/>
	</linearGradient>
	<path class="st46" d="M416.7,350.5l56.6-14.4c0,0,18.1-0.4,31.3,23.2l-64.3,16.7L416.7,350.5z"/>
	
		<linearGradient id="SVGID_43_" gradientUnits="userSpaceOnUse" x1="627.3348" y1="231.3017" x2="692.584" y2="231.3017" gradientTransform="matrix(-1 0 0 -1 1131.9065 602)">
		<stop  offset="0" style="stop-color:#FFFFFF"/>
		<stop  offset="1" style="stop-color:#7A7979"/>
	</linearGradient>
	<polygon class="st47" points="504.6,358.6 503.4,364 503.1,365.3 439.3,382.8 440.2,376 	"/>
	
		<linearGradient id="SVGID_44_" gradientUnits="userSpaceOnUse" x1="687.5013" y1="228.2373" x2="716.3966" y2="240.4245" gradientTransform="matrix(-1 0 0 -1 1131.9065 602)">
		<stop  offset="0" style="stop-color:#FFFFFF"/>
		<stop  offset="1" style="stop-color:#7A7979"/>
	</linearGradient>
	<polygon class="st48" points="439.4,382.6 416.8,360.3 417.4,351.4 440.3,375.3 	"/>
</g>
<g>
	
		<linearGradient id="SVGID_45_" gradientUnits="userSpaceOnUse" x1="770.985" y1="267.6338" x2="720.0642" y2="268.643" gradientTransform="matrix(-1 0 0 -1 1131.9065 602)">
		<stop  offset="0" style="stop-color:#D44700"/>
		<stop  offset="1" style="stop-color:#FFB60B"/>
	</linearGradient>
	<path class="st49" d="M412.4,362.8c0,0-10.3,8.1-16.3,8.1c0,0-22.6,10.6-34.2,6c0,0-2.1-37.8,5.9-49.6c0,0,9.3-38.7,25.9-37.5
		c0,0-2.9,5.5,0.5,8.5c3.3,3,7.9,1.5,7.9,1.5L412.4,362.8z"/>
	
		<linearGradient id="SVGID_46_" gradientUnits="userSpaceOnUse" x1="742.4355" y1="280.4186" x2="715.6253" y2="280.9499" gradientTransform="matrix(-1 0 0 -1 1131.9065 602)">
		<stop  offset="0" style="stop-color:#D44700"/>
		<stop  offset="1" style="stop-color:#FFB60B"/>
	</linearGradient>
	<path class="st50" d="M392.1,344.5c0,0,13.6-3.2,24.6-2.1c0,0-2.5-42.6-9-43.6c0,0-9.4-1.4-11.6,0.8
		C396.1,299.7,385.2,343.9,392.1,344.5z"/>
</g>
<g>
	
		<linearGradient id="SVGID_47_" gradientUnits="userSpaceOnUse" x1="-311.9567" y1="621.7554" x2="-290.7894" y2="635.9382" gradientTransform="matrix(0.2149 1.0082 -1.1218 0.1118 1183.7137 590.8403)">
		<stop  offset="0" style="stop-color:#F8C79C"/>
		<stop  offset="1" style="stop-color:#BF5500"/>
	</linearGradient>
	<path class="st51" d="M413.2,361.6c12.7,3.8,24.4,2.6,26-2.7s-7.4-12.7-20.2-16.5s-24.4-2.6-26,2.7
		C391.4,350.4,400.5,357.8,413.2,361.6z"/>
	
		<linearGradient id="SVGID_48_" gradientUnits="userSpaceOnUse" x1="675.9447" y1="253.0628" x2="691.6476" y2="223.8154" gradientTransform="matrix(-1 0 0 -1 1131.9065 602)">
		<stop  offset="0.2635" style="stop-color:#F8C79C"/>
		<stop  offset="0.9768" style="stop-color:#BF5500"/>
	</linearGradient>
	<path class="st52" d="M439.7,352c0,0,11.6-1.8,14.9,0.6c3.3,2.5-0.5,2.6-0.5,2.6h-1.1c0,0,11.7,3.6,11.8,6.5c0.1,2.9-1,1.3-1,1.3
		c-2.9-0.1-2.9-0.1-2.9-0.1s2.1,1.4,2.4,2.8c0.3,1.4,0.3,1.4,0.3,1.4s-2.9,1.3-5,0.8c-2.1-0.4-2.1-0.4-2.1-0.4s1.7,0.1,2.2,1.7
		c0.5,1.5-4.2,1.5-4.2,1.5s-0.4,1.4-2.2,1c-1.8-0.4-10.6-3.5-12.9-5.6c-3.8-3.6-3.2-3.9-3.2-3.9l0.6-9.6L439.7,352z"/>
</g>
<linearGradient id="SVGID_49_" gradientUnits="userSpaceOnUse" x1="744.6096" y1="400.4096" x2="764.5582" y2="406.5413" gradientTransform="matrix(-1 0 0 -1 1131.9065 602)">
	<stop  offset="0" style="stop-color:#F8C79C"/>
	<stop  offset="0.7808" style="stop-color:#CC6E23"/>
	<stop  offset="1" style="stop-color:#BF5500"/>
</linearGradient>
<ellipse class="st53" cx="377.8" cy="198.7" rx="10.4" ry="13.3"/>
<linearGradient id="SVGID_50_" gradientUnits="userSpaceOnUse" x1="694.0108" y1="374.8706" x2="819.233" y2="404.1372" gradientTransform="matrix(-1 0 0 -1 1131.9065 602)">
	<stop  offset="0" style="stop-color:#F8C79C"/>
	<stop  offset="1" style="stop-color:#BF5500"/>
</linearGradient>
<circle class="st54" cx="440.5" cy="227.7" r="64.3"/>
<ellipse transform="matrix(0.3382 -0.9411 0.9411 0.3382 67.2635 548.6946)" class="st25" cx="423.7" cy="226.5" rx="11.1" ry="9.5"/>
<ellipse transform="matrix(0.3382 -0.9411 0.9411 0.3382 86.4077 608.09)" class="st25" cx="475.5" cy="242.6" rx="11.1" ry="9.5"/>
<path class="st26" d="M454.4,275.8c0,0-33.1,16.7-43.6-12.9L454.4,275.8z"/>
<linearGradient id="SVGID_51_" gradientUnits="userSpaceOnUse" x1="696.8797" y1="291.6965" x2="716.2394" y2="275.5507" gradientTransform="matrix(-1 0 0 -1 1131.9065 602)">
	<stop  offset="0.2635" style="stop-color:#F8C79C"/>
	<stop  offset="0.9768" style="stop-color:#BF5500"/>
</linearGradient>
<path class="st55" d="M413.1,311.4c0,0,6.9-0.6,8.2-1.4c1.4-0.8,1.4-0.8,1.4-0.8s4.9-1.4,6.8-1.5c2-0.2,2-0.1,2-0.1h8.8
	c0,0,1.1,0.3,0.5,1.3c-0.6,1-6,1.8-6,1.8s7.8-0.8,9.3,0.4c0,0,1,0.4,0,1.5l-8.2,1.5c0,0,7.9,0.1,9.6,2.1c0,0-0.3,2-2.1,2.1
	c0,0-11.6-1-12.5,0c0,0-1.1,1.8,0.4,2.8c1.5,1,1.5,1,1.5,1s3.8,2.2,4,3.2c0,0,0.1,2-2.3,2.1c-2.4,0.1-2.4,0.1-2.4,0.1l-5.6-1.1
	l-5.6-4.4c0,0-2.4-2.9-6.5,0.7L413.1,311.4z"/>
<g>
	<polygon class="st4" points="352.4,296.1 338.9,269.1 243.6,269.1 256.4,292.7 	"/>
	<path class="st3" d="M346.3,393.4h-88.9c-3.5,0-6.4-2.9-6.4-6.4v-88.9c0-3.5,2.9-6.4,6.4-6.4h88.9c3.5,0,6.4,2.9,6.4,6.4V387
		C352.7,390.5,349.8,393.4,346.3,393.4z"/>
	<path class="st2" d="M339.3,385.6h-73.9c-3.1,0-5.6-2.5-5.6-5.6v-73.9c0-3.1,2.5-5.6,5.6-5.6h73.9c3.1,0,5.6,2.5,5.6,5.6v73.9
		C344.9,383.1,342.3,385.6,339.3,385.6z"/>
	<path class="st2" d="M242.2,269.1c0,0-2.5,1.9-3.1,4.6c-0.6,2.6-0.5,95.4-0.5,95.4l13.7,21.7l-1.1-94.6c0,0,1-3.6,3.6-4.1
		L242.2,269.1z"/>
</g>
<g>
	
		<linearGradient id="SVGID_52_" gradientUnits="userSpaceOnUse" x1="103.7138" y1="430.9671" x2="206.832" y2="430.9671" gradientTransform="matrix(1 0 0 -1 0 602)">
		<stop  offset="0" style="stop-color:#E94E00"/>
		<stop  offset="1" style="stop-color:#2A0B00"/>
	</linearGradient>
	<path class="st56" d="M109.8,149l-6.1,29.4c0,0,4.8,9.6,9.2,8.3c4.4-1.3,80.1,5.6,84.8,21.9c0,0,5.3-12.8,9.1-12.5
		c0,0-5-46-37.3-60.4C169.6,135.8,119.5,125,109.8,149z"/>
	
		<linearGradient id="SVGID_53_" gradientUnits="userSpaceOnUse" x1="177.8109" y1="446.2252" x2="264.9743" y2="446.2252" gradientTransform="matrix(1 0 0 -1 0 602)">
		<stop  offset="0" style="stop-color:#E94E00"/>
		<stop  offset="1" style="stop-color:#2A0B00"/>
	</linearGradient>
	<path class="st57" d="M177.8,134.8c0,0,4.8-26.5,17.3-27.1c0,0,15.9-4.8,22.7,2.5c0,0,20.7,16.1,20.2,29.9c0,0,1.4,41.1,9,40.9
		c0,0-14-3.5-15.6-8.1c0,0,6.3,12.7,12.7,14c0,0,19,9,20,11.3c0,0,1.7,2.9,0,7.3c0,0-2.1-4.8-4.2-5c0,0-19.3-0.7-28.3-12
		c0,0-0.9,6,1.4,8.2c0,0-28.9-8.4-28.9-13.2C204.3,178.7,177.8,134.8,177.8,134.8z"/>
	
		<linearGradient id="SVGID_54_" gradientUnits="userSpaceOnUse" x1="26.6888" y1="351.2862" x2="98.5337" y2="351.2862" gradientTransform="matrix(1 0 0 -1 0 602)">
		<stop  offset="0" style="stop-color:#E94E00"/>
		<stop  offset="1" style="stop-color:#2A0B00"/>
	</linearGradient>
	<path class="st58" d="M62,197c0,0-10.4-4.8-15.9-1.9c0,0-11.9-0.6-17.1,11.1c-5.2,11.7,0,27.1,0,27.1s15.6,24.2,22.1,27.1
		c6.5,2.9,10.4,13.2,11.9,15c0,0,13.6,8.8,12.1,31.7c0,0,19.8-11.9,20-25.4c0,0,2.7,0,3.3,3.1c0,0-3.2-9.7-4.4-13.6L62,197z"/>
	
		<linearGradient id="SVGID_55_" gradientUnits="userSpaceOnUse" x1="61.9773" y1="399.7706" x2="110.5521" y2="399.7706" gradientTransform="matrix(1 0 0 -1 0 602)">
		<stop  offset="0" style="stop-color:#E94E00"/>
		<stop  offset="1" style="stop-color:#2A0B00"/>
	</linearGradient>
	<path class="st59" d="M104.5,178.7c0,0,7.5,9.6,5.9,16.7c-1.7,7.1-15,25.4-15,32.1c0,6.7-3.8,22.6,0,29.2c0,0-37.2-17.5-33-58.4
		c0,0,10.9-51.3,48.2-50.5L104.5,178.7z"/>
	
		<ellipse transform="matrix(0.7071 -0.7071 0.7071 0.7071 -129.4346 106.6639)" class="st60" cx="64" cy="209.6" rx="9.2" ry="10.1"/>
	
		<ellipse transform="matrix(0.7071 -0.7071 0.7071 0.7071 -47.1712 172.967)" class="st60" cx="185.2" cy="143.4" rx="7.2" ry="10.1"/>
</g>
<linearGradient id="SVGID_56_" gradientUnits="userSpaceOnUse" x1="377.6312" y1="414.9679" x2="536.8745" y2="414.9679" gradientTransform="matrix(1 0 0 -1 0 602)">
	<stop  offset="4.739564e-03" style="stop-color:#006F85"/>
	<stop  offset="1" style="stop-color:#1D1D1B"/>
</linearGradient>
<path class="st61" d="M377.8,185.4c0,0,10.9-0.9,6,17.5c0,0,48.9-14.2,55.5-30.1c0,0,4.2,11.3,15,16.7c0,0-4.5-7.5-3.9-11.3
	c0,0,29,19.2,31.9,17.1c0,0,25.8,12.1,22.3,28.8c0,0,0.3,20.5-6,27.5c0,0,17.5-2.9,19.2-10.4c0,0,3.3,0.4,2.9,4.6
	c0,0,15-11.3,10.4-41.7l5.7,2.5c0,0-9.7-56.3-30.2-51.8c0,0-17.2-33-53.1-25.9c0,0,4.7,14.6,3.4-6.7l-14.1,7.5l-16.8-5.4l5,5.9
	c0,0-20-1.3-21.7,4.2C409.3,134.4,375.2,164.5,377.8,185.4z"/>
<g>
	<path class="st62" d="M321.9,368.1c-2.3,0-4.2-2.9-5.9-8.7c-0.6-2.2-1.4-6-2.4-11.6c-2.5,0.4-5.8,1-9.8,1.8l-9.8,2
		c-1.2,3.2-3.3,7.9-6.3,14.1c-0.8,1.4-1.8,2.1-3.2,2.1c-1,0-1.9-0.4-2.6-1.1c-0.8-0.7-1.2-1.6-1.2-2.6c0-1.2,1.8-5.6,5.5-13.4
		c-0.4-0.6-0.6-1.4-0.6-2.2c0-2,1.2-3.2,3.6-3.8c2.8-5.2,6.3-11.3,10.6-18.1c5.8-9.3,9.4-13.9,10.8-13.9c1.9,0,3.2,1.4,4,4.1
		l2.3,12.4l5.5,25.5l2.1,5.8c0.7,2,1.1,3.3,1.1,4c0,1.1-0.4,1.9-1.1,2.6C323.7,367.7,322.9,368.1,321.9,368.1z M308.9,326.1
		L298.4,343c3-0.8,7.5-1.7,13.5-2.8L308.9,326.1z"/>
</g>
<g>
	<path class="st63" d="M244.7,472.5c-5.5,2.2-12.5,3.2-21.1,3.2c-1.1,0-2.1-0.5-3-1.5c-0.9-1-1.4-2-1.4-3.1v-10.7
		c0-3.5,0.2-8.5,0.7-15c0.5-7,0.8-12.1,0.8-15.2c0-2.3,0.1-5.6,0.4-10.1c0.2-1.2,0.6-2,1.2-2.4c3.3-1,7.1-1.5,11.4-1.5
		c4.3,0,8.5,1.5,12.4,4.4c4.6,3.4,6.9,7.6,6.9,12.5c0,6.3-2.4,11.3-7.3,14.9c3.7,1.6,6.4,3.3,8.2,5.2c1.8,1.9,2.7,4,2.7,6.2
		c0,3-1.6,5.8-4.8,8.6C249.5,470.1,247.2,471.5,244.7,472.5z M237.8,453.1l-3.9-0.6c-0.3,0-0.8,0-1.4,0.1s-1.2,0.1-1.5,0.1
		c-1.3,0-2.7-0.1-4.2-0.3c-0.2,3.1-0.2,5.9-0.2,8.3v7.6c6.4-0.2,11.6-1.1,15.7-2.7c1.7-0.7,3.3-1.7,4.9-3.1c1.5-1.3,2.3-2.2,2.3-2.9
		c0-1.2-1.6-2.4-4.7-3.9C242.3,454.5,240,453.7,237.8,453.1z M233.6,423.7c-2.7,0-4.5,0.1-5.6,0.3l-0.1,6.4l-0.7,14.2
		c3.5,0.3,5.3,0.4,5.6,0.4c3.7-0.3,6.7-1.4,9.1-3.4c2.5-2.2,3.8-5,3.8-8.4c0-2.3-1.3-4.5-3.9-6.5
		C239.2,424.8,236.5,423.7,233.6,423.7z"/>
</g>
<g>
	<path class="st64" d="M375.4,432.7c-1.6,0-2.7-0.9-3.5-2.8c-0.7-1.6-1.3-2.5-1.9-2.9c-0.5-0.3-1.8-0.4-3.8-0.4
		c-3.5,0-7.5,2.7-11.8,8.1c-5.9,7.3-8.8,14.2-8.8,20.8c0,3.2,1,5.9,3.1,8.1c2.1,2.3,4.6,3.5,7.5,3.5c2.5,0,5.1-0.6,7.6-2
		c1.4-0.7,3.6-2.2,6.5-4.3c1.4-1,2.4-1.5,3.2-1.5c1.1,0,1.9,0.4,2.6,1.2c0.7,0.8,1.1,1.7,1.1,2.7c0,1.1-0.5,2.1-1.4,2.9
		c-6.5,5.7-13,8.6-19.6,8.6c-5.1,0-9.4-2-12.9-5.9c-3.4-3.8-5.1-8.2-5.1-13.4c0-8.3,3.5-16.8,10.4-25.5c5.8-7.3,11.6-10.9,17.6-10.9
		c1.2,0,2.3,0.1,3.2,0.2c1,0.1,1.8,0.3,2.5,0.5c0.9-1.3,2-1.9,3.3-1.9c1.7,0,2.8,1.1,3.2,3.3c0.4,2,0.6,4.4,0.6,7.3
		c0,1-0.3,1.9-0.8,2.6C377.5,432.2,376.6,432.7,375.4,432.7z"/>
</g>
</svg>
