<?xml version="1.0" encoding="utf-8"?>
<!-- Generator: Adobe Illustrator 17.0.0, SVG Export Plug-In . SVG Version: 6.00 Build 0)  -->
<!DOCTYPE svg PUBLIC "-//W3C//DTD SVG 1.1//EN" "http://www.w3.org/Graphics/SVG/1.1/DTD/svg11.dtd">
<svg version="1.1" id="Capa_1" xmlns="http://www.w3.org/2000/svg" xmlns:xlink="http://www.w3.org/1999/xlink" x="0px" y="0px"
	 width="968.966px" height="230.172px" viewBox="0 0 968.966 230.172" enable-background="new 0 0 968.966 230.172"
	 xml:space="preserve">
<path fill="#8A8C8C" d="M298.517,152.043l-4.281-11.2l-4.343,11.2H298.517z M289.176,127.899h10.274l16.383,39.678h-11.431
	l-2.808-7.035h-14.833l-2.746,7.035H272.8L289.176,127.899z"/>
<polygon fill="#8A8C8C" points="325.386,137.748 313.847,137.748 313.847,128.176 347.586,128.176 347.586,137.748 336.046,137.748 
	336.046,167.576 325.386,167.576 "/>
<polygon fill="#8A8C8C" points="353.626,128.182 384.565,128.182 384.565,137.469 364.178,137.469 364.178,143.432 382.636,143.432 
	382.636,152.048 364.178,152.048 364.178,158.296 384.843,158.296 384.843,167.582 353.626,167.582 "/>
<polygon fill="#8A8C8C" points="391.647,128.182 401.598,128.182 417.418,149.008 417.418,128.182 427.97,128.182 427.97,167.582 
	418.629,167.582 402.199,145.969 402.199,167.582 391.647,167.582 "/>
<path fill="#8A8C8C" d="M434.833,147.993v-0.115c0-11.478,8.631-20.487,20.279-20.487c7.86,0,12.912,3.378,16.322,8.222
	l-8.022,6.356c-2.198-2.816-4.728-4.613-8.408-4.613c-5.384,0-9.179,4.667-9.179,10.413v0.108c0,5.908,3.795,10.529,9.179,10.529
	c4.011,0,6.371-1.913,8.678-4.782l8.022,5.847c-3.625,5.122-8.516,8.901-17.031,8.901
	C443.68,168.372,434.833,159.756,434.833,147.993"/>
<rect x="477.859" y="128.184" fill="#8A8C8C" width="10.714" height="39.4"/>
<path fill="#8A8C8C" d="M518.351,115.126l9.727,3.209l-8.076,7.205h-7.366L518.351,115.126z M526.211,147.993v-0.115
	c0-5.685-4.011-10.637-9.889-10.637c-5.831,0-9.727,4.844-9.727,10.529v0.108c0,5.685,4.011,10.645,9.835,10.645
	C522.308,158.523,526.211,153.679,526.211,147.993 M495.658,147.993v-0.115c0-11.308,8.901-20.487,20.772-20.487
	c11.871,0,20.664,9.063,20.664,20.379v0.108c0,11.316-8.901,20.495-20.773,20.495C504.451,168.372,495.658,159.309,495.658,147.993"
	/>
<polygon fill="#8A8C8C" points="544.009,128.182 553.959,128.182 569.779,149.008 569.779,128.182 580.332,128.182 580.332,167.582 
	570.99,167.582 554.561,145.969 554.561,167.582 544.009,167.582 "/>
<path fill="#8A8C8C" d="M603.788,147.993v-0.115c0-11.478,8.624-20.487,20.279-20.487c7.86,0,12.912,3.378,16.322,8.222
	l-8.022,6.356c-2.198-2.816-4.728-4.613-8.408-4.613c-5.392,0-9.179,4.667-9.179,10.413v0.108c0,5.908,3.787,10.529,9.179,10.529
	c4.011,0,6.371-1.913,8.678-4.782l8.022,5.847c-3.625,5.122-8.516,8.901-17.031,8.901
	C612.635,168.372,603.788,159.756,603.788,147.993"/>
<rect x="646.807" y="128.184" fill="#8A8C8C" width="10.714" height="39.4"/>
<path fill="#8A8C8C" d="M665.436,150.301v-22.114h10.822v21.89c0,5.685,2.808,8.385,7.089,8.385c4.289,0,7.096-2.592,7.096-8.107
	v-22.168h10.822v21.837c0,12.719-7.089,18.288-18.026,18.288C672.301,168.312,665.436,162.627,665.436,150.301"/>
<path fill="#8A8C8C" d="M723.953,157.901c6.371,0,10.606-3.602,10.606-9.966v-0.116c0-6.302-4.235-9.958-10.606-9.958h-4.343v20.04
	H723.953z M708.951,128.181h14.841c13.738,0,21.706,8.107,21.706,19.477v0.108c0,11.37-8.084,19.809-21.929,19.809h-14.617V128.181z
	"/>
<path fill="#8A8C8C" d="M772.253,152.043l-4.289-11.2l-4.335,11.2H772.253z M762.912,127.899h10.274l16.376,39.678h-11.431
	l-2.8-7.035H760.49l-2.746,7.035h-11.208L762.912,127.899z"/>
<path fill="#8A8C8C" d="M809.67,157.901c6.371,0,10.606-3.602,10.606-9.966v-0.116c0-6.302-4.235-9.958-10.606-9.958h-4.343v20.04
	H809.67z M794.667,128.181h14.841c13.738,0,21.706,8.107,21.706,19.477v0.108c0,11.37-8.084,19.809-21.929,19.809h-14.617V128.181z"
	/>
<path fill="#8A8C8C" d="M857.966,152.043l-4.281-11.2l-4.343,11.2H857.966z M848.625,127.899h10.274l16.376,39.678h-11.424
	l-2.808-7.035h-14.833l-2.746,7.035h-11.215L848.625,127.899z"/>
<polygon fill="#8A8C8C" points="880.382,128.182 890.332,128.182 906.152,149.008 906.152,128.182 916.704,128.182 916.704,167.582 
	907.363,167.582 890.933,145.969 890.933,167.582 880.382,167.582 "/>
<path fill="#8A8C8C" d="M947.526,152.043l-4.281-11.2l-4.343,11.2H947.526z M938.185,127.899h10.274l16.376,39.678h-11.424
	l-2.808-7.035h-14.841l-2.738,7.035h-11.216L938.185,127.899z"/>
<path fill="#059183" d="M168.423,59.653c-1.265,0-2.245,1.103-2.152,2.392c1.952,25.786-0.74,51.479-8.03,72.869
	c-2.653,7.976-5.916,15.481-9.696,22.3c-3.78,6.749-8.13,12.874-12.92,18.204c-4.559,5.029-9.364,9.225-14.293,12.472
	c0,0-1.057,0.741-1.288,0.887c-5.554,3.509-11.478,6.155-17.602,7.875c-12.496,3.556-25.601,3.023-38.938-1.412
	c-3.471-1.149-7.035-2.653-10.645-4.45c-1.836-0.91-3.34,0.046-3.34,2.136v13.954c0,0.733,0.324,1.419,0.887,1.867
	c4.728,3.826,29.134,20.533,59.108,14.354c3.27-0.671,15.643-4.435,22.948-8.022c12.372-6.294,23.511-15.913,33.099-28.586
	c9.542-12.751,17.27-28.177,22.971-45.849c5.669-17.579,9.125-37.117,10.274-58.059c0.378-6.788,0.455-13.722,0.285-20.765
	c-0.031-1.203-1.003-2.168-2.183-2.168H168.423z"/>
<path fill="#059183" d="M28.299,6.258C18.989,3.705,9.386,9.382,6.887,18.916C4.395,28.45,9.941,38.285,19.251,40.845
	c9.31,2.553,18.913-3.124,21.413-12.658C43.155,18.654,37.609,8.812,28.299,6.258"/>
<path fill="#E85747" d="M177.171,6.022c-9.31,2.554-14.856,12.396-12.365,21.93c2.499,9.542,12.102,15.219,21.413,12.658
	c9.318-2.553,14.856-12.388,12.365-21.929C196.092,9.146,186.481,3.469,177.171,6.022"/>
<path fill="#E85747" d="M92.34,158.881h-0.016c-5.23-0.856-10.29-2.468-15.041-4.821c-9.318-4.597-17.579-12.318-23.873-22.323
	c-6.256-9.95-10.706-22.107-13.229-36.138c-1.882-10.544-2.522-21.837-1.936-33.662c0.069-1.365-0.98-2.515-2.314-2.515H8.625
	c-1.273,0-2.314,1.057-2.329,2.361c-0.154,19.299,2.245,37.773,6.965,53.555c4.914,16.599,12.481,31,21.868,41.661
	c8.338,9.487,18.011,16.206,28.825,20.039c1.597,0.571,3.217,1.072,4.867,1.512c6.271,1.689,12.828,2.437,19.461,2.237
	c3.394-0.077,7.058-0.509,10.899-1.265c1.088-0.216,1.859-1.203,1.859-2.337v-15.358c0-1.288-1.003-2.353-2.26-2.376
	C96.512,159.406,94.353,159.22,92.34,158.881"/>
<path fill="#8A8C8C" d="M296.597,47.521l9.858,3.248l-8.184,7.297h-7.467L296.597,47.521z M299.436,84.931l-4.343-11.355
	l-4.397,11.355H299.436z M289.971,60.464h10.413l16.592,40.203h-11.578l-2.839-7.127h-15.041l-2.777,7.127H273.38L289.971,60.464z"
	/>
<path fill="#8A8C8C" d="M338.692,79.909c1.859,0,3.294-0.424,4.289-1.28c1.003-0.856,1.504-2.006,1.504-3.456v-0.108
	c0-1.596-0.517-2.784-1.558-3.571c-1.041-0.779-2.468-1.165-4.289-1.165h-7.073v9.58H338.692z M320.766,60.749h18.427
	c3.008,0,5.554,0.378,7.636,1.142c2.075,0.764,3.764,1.821,5.06,3.193c2.306,2.283,3.456,5.376,3.456,9.295v0.116
	c0,3.078-0.725,5.623-2.175,7.644c-1.442,2.014-3.394,3.548-5.847,4.62l9.302,13.915h-12.473l-7.852-12.095h-0.108h-4.628v12.095
	h-10.799V60.749z"/>
<polygon fill="#8A8C8C" points="360.803,60.748 392.096,60.748 392.096,70.159 371.44,70.159 371.44,76.206 390.145,76.206 
	390.145,84.93 371.44,84.93 371.44,91.263 392.374,91.263 392.374,100.666 360.803,100.666 "/>
<path fill="#8A8C8C" d="M420.885,84.984l-4.343-11.347l-4.397,11.347H420.885z M411.42,60.463h10.413l16.592,40.21h-11.578
	l-2.839-7.135h-15.041l-2.785,7.135h-11.354L411.42,60.463z"/>
<path fill="#8A8C8C" d="M472.856,90.861c3.24,0,5.847-0.872,7.822-2.623c1.975-1.751,2.962-4.242,2.962-7.474v-0.116
	c0-3.185-0.987-5.669-2.962-7.443c-1.975-1.766-4.582-2.646-7.822-2.646h-4.412v20.302H472.856z M457.638,60.747h15.034
	c3.494,0,6.603,0.486,9.326,1.458c2.731,0.964,5.029,2.329,6.904,4.073c1.874,1.751,3.309,3.834,4.296,6.248
	c0.98,2.414,1.473,5.068,1.473,7.953v0.116c0,2.893-0.501,5.561-1.504,8.014c-1.003,2.453-2.453,4.574-4.343,6.356
	c-1.898,1.789-4.227,3.186-6.988,4.196c-2.769,1.003-5.893,1.512-9.387,1.512h-14.81V60.747z"/>
<polygon fill="#8A8C8C" points="500.238,60.748 531.531,60.748 531.531,70.159 510.875,70.159 510.875,76.206 529.58,76.206 
	529.58,84.93 510.875,84.93 510.875,91.263 531.809,91.263 531.809,100.666 500.238,100.666 "/>
</svg>
