<svg id="Layer_1" data-name="Layer 1" xmlns="http://www.w3.org/2000/svg" viewBox="0 0 870.81 457.42"><defs><style>.cls-1{fill:#1d5746;}.cls-2{fill:#fff;}</style></defs><title>BANNER REINSCRIPCIÓN</title><rect class="cls-1" width="870.81" height="457.42"/><path class="cls-2" d="M133.07,314h27.18c7.56,0,13.42,2.12,17.33,6,3.32,3.31,5.1,8,5.1,13.59v.17c0,9.6-5.18,15.63-12.74,18.43l14.52,21.24H169.17l-12.74-19H146.15v19H133.07ZM159.4,342.9c6.37,0,10-3.4,10-8.41v-.17c0-5.61-3.91-8.49-10.28-8.49h-13V342.9Z"/><path class="cls-2" d="M190.07,351v-.17c0-13,9.25-23.7,22.51-23.7,15.2,0,22.17,11.81,22.17,24.72,0,1-.09,2.21-.17,3.4H202.89c1.28,5.86,5.35,8.92,11.13,8.92,4.33,0,7.47-1.36,11-4.68l7.39,6.54c-4.24,5.27-10.36,8.5-18.6,8.5C200.17,374.5,190.07,364.9,190.07,351Zm32.1-3.82c-.76-5.78-4.16-9.69-9.59-9.69s-8.84,3.83-9.86,9.69Z"/><path class="cls-2" d="M242.81,341H269v12.4H242.81Z"/><path class="cls-2" d="M279.25,311.47h13.59v11.47H279.25Zm.34,16.48H292.5v45.53H279.59Z"/><path class="cls-2" d="M304.65,328h12.91v6.45c3-3.82,6.79-7.3,13.33-7.3,9.77,0,15.46,6.45,15.46,16.9v29.48H333.44v-25.4c0-6.12-2.89-9.26-7.81-9.26s-8.07,3.14-8.07,9.26v25.4H304.65Z"/><path class="cls-2" d="M354,367.45l5.53-8.5c4.92,3.57,10.1,5.44,14.35,5.44,3.74,0,5.44-1.36,5.44-3.4v-.17c0-2.8-4.42-3.74-9.43-5.26-6.37-1.87-13.59-4.85-13.59-13.68v-.17c0-9.26,7.47-14.44,16.65-14.44a31.48,31.48,0,0,1,17,5.27L385,341.45c-4.5-2.63-9-4.24-12.32-4.24-3.14,0-4.75,1.36-4.75,3.14v.17c0,2.55,4.33,3.74,9.25,5.44,6.38,2.12,13.77,5.18,13.77,13.5v.17c0,10.11-7.56,14.7-17.42,14.7A32,32,0,0,1,354,367.45Z"/><path class="cls-2" d="M398,351v-.17a23.38,23.38,0,0,1,23.87-23.7c8.58,0,13.93,2.89,18.18,7.64l-7.9,8.5c-2.89-3.06-5.78-5-10.36-5-6.46,0-11,5.69-11,12.4v.17c0,7,4.5,12.57,11.55,12.57,4.33,0,7.3-1.87,10.45-4.84l7.56,7.64c-4.42,4.85-9.52,8.33-18.61,8.33A23.25,23.25,0,0,1,398,351Z"/><path class="cls-2" d="M448.7,328h12.91v9.17c2.64-6.28,6.88-10.36,14.53-10v13.51h-.68c-8.58,0-13.85,5.18-13.85,16.05v16.82H448.7Z"/><path class="cls-2" d="M484.46,311.47h13.59v11.47H484.46ZM484.8,328h12.91v45.53H484.8Z"/><path class="cls-2" d="M509.86,328h12.91v6.54c3.14-4.25,7.47-7.39,14.19-7.39,10.61,0,20.72,8.32,20.72,23.53v.17c0,15.2-9.94,23.53-20.72,23.53a17.46,17.46,0,0,1-14.19-6.8v19.54H509.86Zm34.91,22.85v-.17c0-7.56-5.1-12.57-11.13-12.57s-11,5-11,12.57v.17c0,7.56,5,12.57,11,12.57S544.77,358.44,544.77,350.8Z"/><path class="cls-2" d="M565,351v-.17a23.38,23.38,0,0,1,23.87-23.7c8.58,0,13.93,2.89,18.18,7.64l-7.9,8.5c-2.89-3.06-5.78-5-10.36-5-6.46,0-11,5.69-11,12.4v.17c0,7,4.51,12.57,11.56,12.57,4.33,0,7.3-1.87,10.45-4.84l7.56,7.64c-4.42,4.85-9.52,8.33-18.61,8.33A23.25,23.25,0,0,1,565,351Z"/><path class="cls-2" d="M616,311.47h13.59v11.47H616Zm.34,16.48H629.2v45.53H616.29Z"/><path class="cls-2" d="M639.13,351v-.17c0-13.08,10.54-23.7,24.72-23.7s24.55,10.45,24.55,23.53v.17c0,13.08-10.53,23.7-24.72,23.7S639.13,364.05,639.13,351Zm36.53,0v-.17c0-6.71-4.84-12.57-12-12.57-7.39,0-11.8,5.69-11.8,12.4v.17c0,6.71,4.84,12.57,12,12.57C671.24,363.37,675.66,357.68,675.66,351Zm-7.22-43.07,11.13,4.84-10.88,10.2h-9.85Z"/><path class="cls-2" d="M697.74,328h12.91v6.45c3-3.82,6.8-7.3,13.34-7.3,9.77,0,15.46,6.45,15.46,16.9v29.48H726.54v-25.4c0-6.12-2.89-9.26-7.82-9.26s-8.07,3.14-8.07,9.26v25.4H697.74Z"/><path class="cls-2" d="M451.75,213c1.16,2.68,2,5.12,3.19,7.3,3.25,5.77,8,10.26,12.93,14.56.47.4,1.15.73,1.33,1.24a4.6,4.6,0,0,1,.4,2.9c-.32.77-1.48,1.23-2.34,1.72-.33.18-.84,0-1.27,0H408.94a2.71,2.71,0,0,1-2.87-1.88,2.83,2.83,0,0,1,1-3.28c3.36-3.06,6.87-6,10-9.28a36.5,36.5,0,0,0,5-7.23c1-1.71,1.35-3.76,2.14-6.09H369.65c-7.36,0-11.57-4.17-11.57-11.54,0-25.73.07-51.46-.05-77.18,0-7.57,5.77-11.88,11.4-11.34,2.08.19,4.18,0,6.28,0h1.86V78.93c0-3.4.87-4.27,4.27-4.27H488.93c3.51,0,4.36.84,4.36,4.37v34h8.79c6,0,10.24,3.94,10.66,9.93,0,.61,0,1.23,0,1.85,0,25.47,0,51,0,76.43a14.78,14.78,0,0,1-1.16,6.06c-1.86,4-5.35,5.75-9.72,5.75h-50.1Zm35.66-19.84V80.57H383.49V193.18Zm-123.48,6.2c-.67,4.65.22,7.94,6.7,7.92,43.25-.14,86.51-.07,129.77-.07.8,0,1.6,0,2.4,0a4,4,0,0,0,3.87-2.9,29.28,29.28,0,0,0,.54-4.91Zm-.16-6h13.68V118.85a2.55,2.55,0,0,0-.62-.19q-3.51,0-7,0c-4.43,0-6,1.6-6,6v68.82Zm143.32,0V124.12a7.91,7.91,0,0,0,0-1.29c-.31-1.9-1.27-3.67-3.19-3.84-3.44-.31-6.93-.09-10.43-.09v74.56Zm-77.43,19.66c-1,9.29-7.05,15.42-13,21.84h42.87c-5.89-6.58-11.69-12.89-13.26-21.84Z"/><path class="cls-2" d="M437.9,246.72h37.26a8.68,8.68,0,0,1,1.84.06,2.7,2.7,0,0,1,2.37,2.65,2.58,2.58,0,0,1-2.08,2.86,9.86,9.86,0,0,1-2.37.2H400.58c-3.05,0-4.44-.93-4.42-2.93s1.38-2.85,4.47-2.85Z"/><path class="cls-2" d="M388.19,246.72c2.86,0,4.29.93,4.33,2.82s-1.47,3-4.41,3-4.4-.92-4.37-2.95S385.06,246.72,388.19,246.72Z"/><path class="cls-2" d="M487.53,246.72c2.87,0,4.29.91,4.34,2.81s-1.46,3-4.39,3-4.41-.91-4.39-2.94S484.41,246.72,487.53,246.72Z"/><path class="cls-2" d="M418,125.42c7.66-8,20-9.42,29.52,0,.92-1.74,1.86-3.36,2.66-5,1-2,2.36-2.82,4-2.09s2,2.21,1.25,4.25a24.39,24.39,0,1,1-22.1-33.15,23.9,23.9,0,0,1,18,8.74c1.61,1.89,1.68,3.45.25,4.69s-2.94.9-4.58-1c-4.93-5.62-11.13-7.82-18.4-6.24A17.75,17.75,0,0,0,415,108C412.9,114.25,414.1,120,418,125.42Zm25.43,3.64c-5.92-7.23-16.9-6.2-21.35,0C427.77,133.69,436.94,133.72,443.45,129.06Z"/><path class="cls-2" d="M435.62,150.67q17.07,0,34.15,0c.78,0,1.79-.07,2.29.37.75.66,1.65,1.78,1.56,2.6s-1.14,1.86-2,2.51c-.5.38-1.42.26-2.15.26H401.36c-.31,0-.62,0-.92,0-2-.12-3.38-1.31-3.35-3s1.37-2.8,3.45-2.8Z"/><path class="cls-2" d="M435.62,163.59h15.87c2.32,0,3.55,1,3.57,2.78s-1.15,2.89-3.48,2.89q-16.15,0-32.31,0c-2.32,0-3.5-1-3.47-2.89s1.24-2.77,3.57-2.78Z"/><path class="cls-2" d="M432.85,98.61a8.22,8.22,0,0,1,8,8.22c-.09,4.81-4,9.11-8.19,9.09s-8.11-4.45-8-9.36A8.05,8.05,0,0,1,432.85,98.61Zm-3,8.16c0,1.9,1.49,4,2.88,4s3-2.12,3-4a3.05,3.05,0,0,0-3-3.06A2.93,2.93,0,0,0,429.81,106.77Z"/><path class="cls-2" d="M451.19,108.57c2-2.42,3.9-4.75,5.82-7,1.47-1.76,3.05-2.11,4.44-1s1.39,2.91-.07,4.7q-3.48,4.27-7,8.53c-1.89,2.27-3.1,2.35-5.42.43-1.27-1-2.59-2.06-3.83-3.16a2.76,2.76,0,0,1-.51-4.06,2.9,2.9,0,0,1,4.12-.33C449.52,107.18,450.26,107.82,451.19,108.57Z"/><path class="cls-2" d="M435.58,181.3c-1.78,0-3.57,0-5.35,0-1.94,0-3.21-1.14-3.22-2.79a2.84,2.84,0,0,1,3-2.81c3.63-.06,7.25-.06,10.88,0a2.82,2.82,0,0,1,3,2.88,2.88,2.88,0,0,1-3.11,2.72C439,181.32,437.3,181.3,435.58,181.3Z"/></svg>