<?xml version="1.0" encoding="utf-8"?>
<!-- Generator: Adobe Illustrator 24.0.1, SVG Export Plug-In . SVG Version: 6.00 Build 0)  -->
<svg version="1.1" id="Capa_1" xmlns="http://www.w3.org/2000/svg" xmlns:xlink="http://www.w3.org/1999/xlink" x="0px" y="0px"
	 viewBox="0 0 537.3 281" style="enable-background:new 0 0 537.3 281;" xml:space="preserve">
<style type="text/css">
	.st0{fill:none;stroke:#8F4B00;stroke-width:7;stroke-miterlimit:10;}
	.st1{fill:url(#SVGID_1_);}
	.st2{opacity:0.54;fill:#FFFFFF;}
	.st3{fill:#FFFFFF;}
	.st4{fill:none;stroke:#E0B82B;stroke-width:9;stroke-miterlimit:10;}
	.st5{fill:#F4A602;}
	.st6{fill:#077F37;}
	.st7{fill:#888B8C;}
	.st8{fill:#10AE4B;}
	.st9{fill:#898D8D;}
</style>
<path class="st0" d="M519.2,271.7H16.7c-4.3,0-7.8-3.5-7.8-7.8V16.4c0-4.3,3.5-7.8,7.8-7.8h502.5c4.3,0,7.8,3.5,7.8,7.8v247.6
	C527,268.2,523.5,271.7,519.2,271.7z"/>
<radialGradient id="SVGID_1_" cx="36.4481" cy="132.786" r="318.3774" gradientTransform="matrix(0.7633 0 0 0.731 240.2071 43.1634)" gradientUnits="userSpaceOnUse">
	<stop  offset="0" style="stop-color:#409156"/>
	<stop  offset="1" style="stop-color:#285838"/>
</radialGradient>
<rect x="16.3" y="16.5" class="st1" width="503.5" height="247.5"/>
<rect x="16.3" y="28.3" class="st2" width="503.5" height="45.4"/>
<g>
	<path class="st3" d="M334,39.5c-0.2,1.1-1,2-2.5,2c-1.8,0-2.7-1.4-2.7-3.2c0-1.7,0.9-3.2,2.8-3.2c1.5,0,2.3,0.9,2.4,2h-1.1
		c-0.2-0.5-0.5-1-1.3-1c-1.1,0-1.6,1.1-1.6,2.3c0,1.1,0.4,2.3,1.6,2.3c0.9,0,1.2-0.6,1.3-1H334z"/>
	<path class="st3" d="M338.9,38.6h-2.8v1.8h3.1l-0.1,1H335v-6.2h4v1h-3v1.5h2.8V38.6z"/>
	<path class="st3" d="M340.2,41.4v-6.2h1.4c0.8,1.4,2.3,4.1,2.6,4.8h0c-0.1-0.7-0.1-1.7-0.1-2.8v-2h1v6.2h-1.3
		c-0.7-1.3-2.3-4.3-2.6-5h0c0,0.6,0.1,1.8,0.1,2.9v2.1H340.2z"/>
	<path class="st3" d="M347.8,36.2H346v-1h4.7v1h-1.8v5.3h-1.1V36.2z"/>
	<path class="st3" d="M352.6,38.8v2.6h-1.1v-6.2h2.5c1.3,0,1.9,0.7,1.9,1.7c0,0.8-0.4,1.3-0.9,1.5c0.4,0.1,0.8,0.5,0.8,1.6v0.3
		c0,0.4,0,0.9,0.1,1.2h-1c-0.1-0.3-0.1-0.7-0.1-1.4v-0.1c0-0.8-0.2-1.1-1.2-1.1H352.6z M352.6,37.9h1.1c0.8,0,1.1-0.3,1.1-0.9
		c0-0.6-0.3-0.9-1-0.9h-1.2V37.9z"/>
	<path class="st3" d="M362.4,38.3c0,1.7-1,3.2-2.8,3.2c-1.8,0-2.8-1.4-2.8-3.2c0-1.8,1-3.2,2.8-3.2
		C361.3,35.1,362.4,36.4,362.4,38.3z M357.9,38.3c0,1.3,0.6,2.3,1.7,2.3c1.2,0,1.7-1.1,1.7-2.3c0-1.2-0.5-2.2-1.7-2.2
		C358.4,36.1,357.9,37,357.9,38.3z"/>
	<path class="st3" d="M364.2,39.6c0.1,0.7,0.6,1,1.3,1c0.8,0,1.1-0.3,1.1-0.8c0-0.5-0.3-0.8-1.3-1.1c-1.5-0.4-1.9-1-1.9-1.8
		c0-1,0.7-1.8,2.1-1.8c1.5,0,2.1,0.9,2.2,1.8h-1.1c-0.1-0.4-0.3-0.9-1.1-0.9c-0.6,0-0.9,0.3-0.9,0.8c0,0.5,0.3,0.7,1.3,0.9
		c1.7,0.4,2,1.1,2,2c0,1.1-0.8,1.9-2.3,1.9c-1.5,0-2.2-0.8-2.4-1.9H364.2z"/>
	<path class="st3" d="M370.9,35.2h2.2c1.7,0,2.8,1.2,2.8,3c0,1.8-1.1,3.2-2.8,3.2h-2.2V35.2z M372,40.5h1c1.2,0,1.8-0.9,1.8-2.2
		c0-1.1-0.5-2.1-1.8-2.1H372V40.5z"/>
	<path class="st3" d="M381,38.6h-2.8v1.8h3.1l-0.1,1h-4.1v-6.2h4v1h-3v1.5h2.8V38.6z"/>
	<path class="st3" d="M385.4,39.8l-0.5,1.6h-1.1l2-6.2h1.4l2.1,6.2h-1.2l-0.5-1.6H385.4z M387.3,38.9c-0.5-1.4-0.7-2.3-0.9-2.8h0
		c-0.1,0.6-0.5,1.6-0.8,2.8H387.3z"/>
	<path class="st3" d="M390.6,36.2h-1.8v-1h4.7v1h-1.8v5.3h-1.1V36.2z"/>
	<path class="st3" d="M398.2,38.6h-2.8v1.8h3.1l-0.1,1h-4.1v-6.2h4v1h-3v1.5h2.8V38.6z"/>
	<path class="st3" d="M399.5,41.4v-6.2h1.4c0.8,1.4,2.3,4.1,2.6,4.8h0c-0.1-0.7-0.1-1.7-0.1-2.8v-2h1v6.2h-1.3
		c-0.7-1.3-2.3-4.3-2.6-5h0c0,0.6,0.1,1.8,0.1,2.9v2.1H399.5z"/>
	<path class="st3" d="M410.7,39.5c-0.2,1.1-1,2-2.5,2c-1.8,0-2.7-1.4-2.7-3.2c0-1.7,0.9-3.2,2.8-3.2c1.5,0,2.3,0.9,2.4,2h-1.1
		c-0.2-0.5-0.5-1-1.3-1c-1.1,0-1.6,1.1-1.6,2.3c0,1.1,0.4,2.3,1.6,2.3c0.9,0,1.2-0.6,1.3-1H410.7z"/>
	<path class="st3" d="M412.8,35.2v6.2h-1.1v-6.2H412.8z"/>
	<path class="st3" d="M419.6,38.3c0,1.7-1,3.2-2.8,3.2c-1.8,0-2.8-1.4-2.8-3.2c0-1.8,1-3.2,2.8-3.2
		C418.5,35.1,419.6,36.4,419.6,38.3z M415.1,38.3c0,1.3,0.6,2.3,1.7,2.3c1.2,0,1.7-1.1,1.7-2.3c0-1.2-0.5-2.2-1.7-2.2
		C415.6,36.1,415.1,37,415.1,38.3z M418.7,33.3l-1.5,1.2h-1l1.2-1.2H418.7z"/>
	<path class="st3" d="M420.7,41.4v-6.2h1.4c0.8,1.4,2.3,4.1,2.6,4.8h0c-0.1-0.7-0.1-1.7-0.1-2.8v-2h1v6.2h-1.3
		c-0.7-1.3-2.3-4.3-2.6-5h0c0,0.6,0.1,1.8,0.1,2.9v2.1H420.7z"/>
	<path class="st3" d="M430.5,41.4v-2.2c0-0.1,0-0.1,0-0.2l-2-3.8h1.2c0.5,1,1.2,2.3,1.4,3c0.3-0.6,1-2,1.5-3h1.2l-2.1,3.8
		c0,0,0,0.1,0,0.2v2.2H430.5z"/>
	<path class="st3" d="M441.3,39.5c-0.2,1.1-1,2-2.5,2c-1.8,0-2.7-1.4-2.7-3.2c0-1.7,0.9-3.2,2.8-3.2c1.5,0,2.3,0.9,2.4,2h-1.1
		c-0.2-0.5-0.5-1-1.3-1c-1.1,0-1.6,1.1-1.6,2.3c0,1.1,0.4,2.3,1.6,2.3c0.9,0,1.2-0.6,1.3-1H441.3z"/>
	<path class="st3" d="M443.4,35.2v3.7c0,1.3,0.6,1.7,1.3,1.7c0.8,0,1.3-0.4,1.3-1.7v-3.7h1.1v3.7c0,2.1-1.1,2.6-2.4,2.6
		c-1.3,0-2.4-0.6-2.4-2.6v-3.7H443.4z"/>
	<path class="st3" d="M449.6,35.2v6.2h-1.1v-6.2H449.6z"/>
	<path class="st3" d="M451.1,35.2h2.2c1.7,0,2.8,1.2,2.8,3c0,1.8-1.1,3.2-2.8,3.2h-2.2V35.2z M452.2,40.5h1c1.2,0,1.8-0.9,1.8-2.2
		c0-1.1-0.5-2.1-1.8-2.1h-1.1V40.5z"/>
	<path class="st3" d="M458.2,39.8l-0.5,1.6h-1.1l2-6.2h1.4l2.1,6.2h-1.2l-0.5-1.6H458.2z M460.1,38.9c-0.5-1.4-0.7-2.3-0.9-2.8h0
		c-0.1,0.6-0.5,1.6-0.8,2.8H460.1z"/>
	<path class="st3" d="M462.9,35.2h2.2c1.7,0,2.8,1.2,2.8,3c0,1.8-1.1,3.2-2.8,3.2h-2.2V35.2z M464,40.5h1c1.2,0,1.8-0.9,1.8-2.2
		c0-1.1-0.5-2.1-1.8-2.1H464V40.5z"/>
	<path class="st3" d="M474.4,38.3c0,1.7-1,3.2-2.8,3.2c-1.8,0-2.8-1.4-2.8-3.2c0-1.8,1-3.2,2.8-3.2
		C473.3,35.1,474.4,36.4,474.4,38.3z M469.9,38.3c0,1.3,0.6,2.3,1.7,2.3c1.2,0,1.7-1.1,1.7-2.3c0-1.2-0.5-2.2-1.7-2.2
		C470.4,36.1,469.9,37,469.9,38.3z"/>
	<path class="st3" d="M478.7,35.2v6.2h-1.1v-6.2H478.7z"/>
	<path class="st3" d="M480.2,41.4v-6.2h1.4c0.8,1.4,2.3,4.1,2.6,4.8h0c-0.1-0.7-0.1-1.7-0.1-2.8v-2h1v6.2h-1.3
		c-0.7-1.3-2.3-4.3-2.6-5h0c0,0.6,0.1,1.8,0.1,2.9v2.1H480.2z"/>
	<path class="st3" d="M486.5,35.2h4v1h-2.9v1.7h2.7v1h-2.7v2.6h-1.1V35.2z"/>
	<path class="st3" d="M492.1,39.8l-0.5,1.6h-1.1l2-6.2h1.4l2.1,6.2h-1.2l-0.5-1.6H492.1z M494.1,38.9c-0.5-1.4-0.7-2.3-0.9-2.8h0
		c-0.1,0.6-0.5,1.6-0.8,2.8H494.1z"/>
	<path class="st3" d="M496.8,41.4v-6.2h1.4c0.8,1.4,2.3,4.1,2.6,4.8h0c-0.1-0.7-0.1-1.7-0.1-2.8v-2h1v6.2h-1.3
		c-0.7-1.3-2.3-4.3-2.6-5h0c0,0.6,0.1,1.8,0.1,2.9v2.1H496.8z"/>
	<path class="st3" d="M504.4,36.2h-1.8v-1h4.7v1h-1.8v5.3h-1.1V36.2z"/>
	<path class="st3" d="M509.2,35.2v6.2h-1.1v-6.2H509.2z"/>
	<path class="st3" d="M510.7,35.2h1.1v5.3h3l-0.1,1h-3.9V35.2z"/>
	<path class="st3" d="M297.2,48.2h2.2c1.7,0,2.8,1.2,2.8,3c0,1.8-1.1,3.2-2.8,3.2h-2.2V48.2z M298.3,53.5h1c1.2,0,1.8-0.9,1.8-2.2
		c0-1.1-0.5-2.1-1.8-2.1h-1.1V53.5z"/>
	<path class="st3" d="M307.3,51.6h-2.8v1.8h3.1l-0.1,1h-4.1v-6.2h4v1h-3v1.5h2.8V51.6z"/>
	<path class="st3" d="M310.6,48.2h1.1v5.3h3l-0.1,1h-3.9V48.2z"/>
	<path class="st3" d="M316.8,52.8l-0.5,1.6h-1.1l2-6.2h1.4l2.1,6.2h-1.2l-0.5-1.6H316.8z M318.8,51.9c-0.5-1.4-0.7-2.3-0.9-2.8h0
		c-0.1,0.6-0.5,1.6-0.8,2.8H318.8z"/>
	<path class="st3" d="M324.3,52.6c0.1,0.7,0.6,1,1.3,1c0.8,0,1.1-0.3,1.1-0.8c0-0.5-0.3-0.8-1.3-1.1c-1.5-0.4-1.9-1-1.9-1.8
		c0-1,0.7-1.8,2.1-1.8c1.5,0,2.1,0.9,2.2,1.8h-1.1c-0.1-0.4-0.3-0.9-1.1-0.9c-0.6,0-0.9,0.3-0.9,0.8c0,0.5,0.3,0.7,1.3,0.9
		c1.7,0.4,2,1.1,2,2c0,1.1-0.8,1.9-2.3,1.9c-1.5,0-2.2-0.8-2.4-1.9H324.3z"/>
	<path class="st3" d="M332.8,51.6h-2.8v1.8h3.1l-0.1,1h-4.1v-6.2h4v1h-3v1.5h2.8V51.6z"/>
	<path class="st3" d="M338.9,52.5c-0.2,1.1-1,2-2.5,2c-1.8,0-2.7-1.4-2.7-3.2c0-1.7,0.9-3.2,2.8-3.2c1.5,0,2.3,0.9,2.4,2h-1.1
		c-0.2-0.5-0.5-1-1.3-1c-1.1,0-1.6,1.1-1.6,2.3c0,1.1,0.4,2.3,1.6,2.3c0.9,0,1.2-0.6,1.3-1H338.9z"/>
	<path class="st3" d="M341,51.8v2.6H340v-6.2h2.5c1.3,0,1.9,0.7,1.9,1.7c0,0.8-0.4,1.3-0.9,1.5c0.4,0.1,0.8,0.5,0.8,1.6v0.3
		c0,0.4,0,0.9,0.1,1.2h-1c-0.1-0.3-0.1-0.7-0.1-1.4v-0.1c0-0.8-0.2-1.1-1.2-1.1H341z M341,50.9h1.1c0.8,0,1.1-0.3,1.1-0.9
		c0-0.6-0.3-0.9-1-0.9H341V50.9z"/>
	<path class="st3" d="M349.5,51.6h-2.8v1.8h3.1l-0.1,1h-4.1v-6.2h4v1h-3v1.5h2.8V51.6z"/>
	<path class="st3" d="M352.1,49.2h-1.8v-1h4.7v1h-1.8v5.3h-1.1V49.2z"/>
	<path class="st3" d="M356.2,52.8l-0.5,1.6h-1.1l2-6.2h1.4l2.1,6.2H359l-0.5-1.6H356.2z M358.2,51.9c-0.5-1.4-0.7-2.3-0.9-2.8h0
		c-0.1,0.6-0.5,1.6-0.8,2.8H358.2z"/>
	<path class="st3" d="M362,51.8v2.6h-1.1v-6.2h2.5c1.3,0,1.9,0.7,1.9,1.7c0,0.8-0.4,1.3-0.9,1.5c0.4,0.1,0.8,0.5,0.8,1.6v0.3
		c0,0.4,0,0.9,0.1,1.2h-1c-0.1-0.3-0.1-0.7-0.1-1.4v-0.1c0-0.8-0.2-1.1-1.2-1.1H362z M362,50.9h1.1c0.8,0,1.1-0.3,1.1-0.9
		c0-0.6-0.3-0.9-1-0.9H362V50.9z"/>
	<path class="st3" d="M367.6,48.2v6.2h-1.1v-6.2H367.6z M369,46.4l-1.5,1.2h-1l1.2-1.2H369z"/>
	<path class="st3" d="M370.1,52.8l-0.5,1.6h-1.1l2-6.2h1.4l2.1,6.2h-1.2l-0.5-1.6H370.1z M372,51.9c-0.5-1.4-0.7-2.3-0.9-2.8h0
		c-0.1,0.6-0.5,1.6-0.8,2.8H372z"/>
	<path class="st3" d="M376.9,48.2h2.2c1.7,0,2.8,1.2,2.8,3c0,1.8-1.1,3.2-2.8,3.2h-2.2V48.2z M378,53.5h1c1.2,0,1.8-0.9,1.8-2.2
		c0-1.1-0.5-2.1-1.8-2.1H378V53.5z"/>
	<path class="st3" d="M387,51.6h-2.8v1.8h3.1l-0.1,1h-4.1v-6.2h4v1h-3v1.5h2.8V51.6z"/>
	<path class="st3" d="M391.3,52.8l-0.5,1.6h-1.1l2-6.2h1.4l2.1,6.2h-1.2l-0.5-1.6H391.3z M393.3,51.9c-0.5-1.4-0.7-2.3-0.9-2.8h0
		c-0.1,0.6-0.5,1.6-0.8,2.8H393.3z"/>
	<path class="st3" d="M396.1,48.2h2.2c1.7,0,2.8,1.2,2.8,3c0,1.8-1.1,3.2-2.8,3.2h-2.2V48.2z M397.2,53.5h1c1.2,0,1.8-0.9,1.8-2.2
		c0-1.1-0.5-2.1-1.8-2.1h-1.1V53.5z"/>
	<path class="st3" d="M407.2,52c0-1.1,0-2.3,0-3h0c-0.3,1.2-1,3.5-1.6,5.4h-0.9c-0.5-1.7-1.2-4.2-1.5-5.4h0c0,0.7,0.1,2,0.1,3.1v2.3
		h-1v-6.2h1.6c0.5,1.7,1.1,3.9,1.3,4.8h0c0.1-0.7,0.9-3.1,1.5-4.8h1.6v6.2h-1.1V52z"/>
	<path class="st3" d="M410.8,48.2v6.2h-1.1v-6.2H410.8z"/>
	<path class="st3" d="M412.3,54.4v-6.2h1.4c0.8,1.4,2.3,4.1,2.6,4.8h0c-0.1-0.7-0.1-1.7-0.1-2.8v-2h1v6.2h-1.3
		c-0.7-1.3-2.3-4.3-2.6-5h0c0,0.6,0.1,1.8,0.1,2.9v2.1H412.3z"/>
	<path class="st3" d="M419.8,48.2v6.2h-1.1v-6.2H419.8z"/>
	<path class="st3" d="M421.9,52.6c0.1,0.7,0.6,1,1.3,1c0.8,0,1.1-0.3,1.1-0.8c0-0.5-0.3-0.8-1.3-1.1c-1.5-0.4-1.9-1-1.9-1.8
		c0-1,0.7-1.8,2.1-1.8c1.5,0,2.1,0.9,2.2,1.8h-1.1c-0.1-0.4-0.3-0.9-1.1-0.9c-0.6,0-0.9,0.3-0.9,0.8c0,0.5,0.3,0.7,1.3,0.9
		c1.7,0.4,2,1.1,2,2c0,1.1-0.8,1.9-2.3,1.9c-1.5,0-2.2-0.8-2.4-1.9H421.9z"/>
	<path class="st3" d="M427.6,49.2h-1.8v-1h4.7v1h-1.8v5.3h-1.1V49.2z"/>
	<path class="st3" d="M432.4,51.8v2.6h-1.1v-6.2h2.5c1.3,0,1.9,0.7,1.9,1.7c0,0.8-0.4,1.3-0.9,1.5c0.4,0.1,0.8,0.5,0.8,1.6v0.3
		c0,0.4,0,0.9,0.1,1.2h-1c-0.1-0.3-0.1-0.7-0.1-1.4v-0.1c0-0.8-0.2-1.1-1.2-1.1H432.4z M432.4,50.9h1.1c0.8,0,1.1-0.3,1.1-0.9
		c0-0.6-0.3-0.9-1-0.9h-1.2V50.9z"/>
	<path class="st3" d="M438,52.8l-0.5,1.6h-1.1l2-6.2h1.4l2.1,6.2h-1.2l-0.5-1.6H438z M440,51.9c-0.5-1.4-0.7-2.3-0.9-2.8h0
		c-0.1,0.6-0.5,1.6-0.8,2.8H440z"/>
	<path class="st3" d="M447.5,52.5c-0.2,1.1-1,2-2.5,2c-1.8,0-2.7-1.4-2.7-3.2c0-1.7,0.9-3.2,2.8-3.2c1.5,0,2.3,0.9,2.4,2h-1.1
		c-0.2-0.5-0.5-1-1.3-1c-1.1,0-1.6,1.1-1.6,2.3c0,1.1,0.4,2.3,1.6,2.3c0.9,0,1.2-0.6,1.3-1H447.5z"/>
	<path class="st3" d="M449.7,48.2v6.2h-1.1v-6.2H449.7z"/>
	<path class="st3" d="M456.4,51.3c0,1.7-1,3.2-2.8,3.2c-1.8,0-2.8-1.4-2.8-3.2c0-1.8,1-3.2,2.8-3.2
		C455.3,48.1,456.4,49.4,456.4,51.3z M451.9,51.3c0,1.3,0.6,2.3,1.7,2.3c1.2,0,1.7-1.1,1.7-2.3c0-1.2-0.5-2.2-1.7-2.2
		C452.4,49.1,451.9,50,451.9,51.3z M455.5,46.3l-1.5,1.2h-1l1.2-1.2H455.5z"/>
	<path class="st3" d="M457.6,54.4v-6.2h1.4c0.8,1.4,2.3,4.1,2.6,4.8h0c-0.1-0.7-0.1-1.7-0.1-2.8v-2h1v6.2h-1.3
		c-0.7-1.3-2.3-4.3-2.6-5h0c0,0.6,0.1,1.8,0.1,2.9v2.1H457.6z"/>
	<path class="st3" d="M467.3,54.4v-2.2c0-0.1,0-0.1,0-0.2l-2-3.8h1.2c0.5,1,1.2,2.3,1.4,3c0.3-0.6,1-2,1.5-3h1.2l-2.1,3.8
		c0,0,0,0.1,0,0.2v2.2H467.3z"/>
	<path class="st3" d="M473.2,48.2h4v1h-2.9v1.7h2.7v1h-2.7v2.6h-1.1V48.2z"/>
	<path class="st3" d="M479.3,48.2v6.2h-1.1v-6.2H479.3z"/>
	<path class="st3" d="M480.8,54.4v-6.2h1.4c0.8,1.4,2.3,4.1,2.6,4.8h0c-0.1-0.7-0.1-1.7-0.1-2.8v-2h1v6.2h-1.3
		c-0.7-1.3-2.3-4.3-2.6-5h0c0,0.6,0.1,1.8,0.1,2.9v2.1H480.8z"/>
	<path class="st3" d="M488.1,52.8l-0.5,1.6h-1.1l2-6.2h1.4l2.1,6.2h-1.2l-0.5-1.6H488.1z M490.1,51.9c-0.5-1.4-0.7-2.3-0.9-2.8h0
		c-0.1,0.6-0.5,1.6-0.8,2.8H490.1z"/>
	<path class="st3" d="M492.8,54.4v-6.2h1.4c0.8,1.4,2.3,4.1,2.6,4.8h0c-0.1-0.7-0.1-1.7-0.1-2.8v-2h1v6.2h-1.3
		c-0.7-1.3-2.3-4.3-2.6-5h0c0,0.6,0.1,1.8,0.1,2.9v2.1H492.8z"/>
	<path class="st3" d="M498.7,53.5l3.3-4.4h-3.2v-1h4.4v1l-3.2,4.3h3.4l-0.1,1h-4.6V53.5z"/>
	<path class="st3" d="M505.5,52.8l-0.5,1.6h-1.1l2-6.2h1.4l2.1,6.2h-1.2l-0.5-1.6H505.5z M507.5,51.9c-0.5-1.4-0.7-2.3-0.9-2.8h0
		c-0.1,0.6-0.5,1.6-0.8,2.8H507.5z"/>
	<path class="st3" d="M511,52.6c0.1,0.7,0.6,1,1.3,1c0.8,0,1.1-0.3,1.1-0.8c0-0.5-0.3-0.8-1.3-1.1c-1.5-0.4-1.9-1-1.9-1.8
		c0-1,0.7-1.8,2.1-1.8c1.5,0,2.1,0.9,2.2,1.8h-1.1c-0.1-0.4-0.3-0.9-1.1-0.9c-0.6,0-0.9,0.3-0.9,0.8c0,0.5,0.3,0.7,1.3,0.9
		c1.7,0.4,2,1.1,2,2c0,1.1-0.8,1.9-2.3,1.9c-1.5,0-2.2-0.8-2.4-1.9H511z"/>
	<path class="st3" d="M342.9,61.2h2.2c1.7,0,2.8,1.2,2.8,3c0,1.8-1.1,3.2-2.8,3.2h-2.2V61.2z M344,66.5h1c1.2,0,1.8-0.9,1.8-2.2
		c0-1.1-0.5-2.1-1.8-2.1H344V66.5z"/>
	<path class="st3" d="M353,64.6h-2.8v1.8h3.1l-0.1,1h-4.1v-6.2h4v1h-3v1.5h2.8V64.6z"/>
	<path class="st3" d="M354.3,61.2h1.1v5.3h3l-0.1,1h-3.9V61.2z"/>
	<path class="st3" d="M366.2,67.4h-0.8c0-0.2-0.1-0.4-0.1-0.7c-0.3,0.5-0.9,0.8-1.8,0.8c-1.7,0-2.6-1.4-2.6-3.1c0-1.9,1-3.3,2.8-3.3
		c1.5,0,2.3,0.9,2.5,1.9h-1.1c-0.1-0.5-0.5-1-1.4-1c-1.3,0-1.7,1.1-1.7,2.3c0,1.1,0.4,2.2,1.7,2.2c1.2,0,1.4-0.8,1.4-1.6v-0.1h-1.4
		v-1h2.5V67.4z"/>
	<path class="st3" d="M372.9,64.3c0,1.7-1,3.2-2.8,3.2c-1.8,0-2.8-1.4-2.8-3.2c0-1.8,1-3.2,2.8-3.2
		C371.8,61.1,372.9,62.4,372.9,64.3z M368.4,64.3c0,1.3,0.6,2.3,1.7,2.3c1.2,0,1.7-1.1,1.7-2.3c0-1.2-0.5-2.2-1.7-2.2
		C368.9,62.1,368.4,63,368.4,64.3z"/>
	<path class="st3" d="M374,61.2h2.5c1.4,0,1.9,0.8,1.9,1.6c0,0.7-0.4,1.2-0.8,1.4c0.4,0.2,1,0.6,1,1.4c0,1.1-0.8,1.9-2,1.9H374V61.2
		z M376.3,63.7c0.7,0,1-0.3,1-0.8c0-0.5-0.3-0.8-0.9-0.8h-1.3v1.6H376.3z M375.1,66.5h1.2c0.7,0,1.1-0.3,1.1-1
		c0-0.6-0.3-0.9-1.1-0.9h-1.2V66.5z"/>
	<path class="st3" d="M380.7,61.2v6.2h-1.1v-6.2H380.7z"/>
	<path class="st3" d="M386.1,64.6h-2.8v1.8h3.1l-0.1,1h-4.1v-6.2h4v1h-3v1.5h2.8V64.6z"/>
	<path class="st3" d="M388.4,64.8v2.6h-1.1v-6.2h2.5c1.3,0,1.9,0.7,1.9,1.7c0,0.8-0.4,1.3-0.9,1.5c0.4,0.1,0.8,0.5,0.8,1.6v0.3
		c0,0.4,0,0.9,0.1,1.2h-1c-0.1-0.3-0.1-0.7-0.1-1.4v-0.1c0-0.8-0.2-1.1-1.2-1.1H388.4z M388.4,63.9h1.1c0.8,0,1.1-0.3,1.1-0.9
		c0-0.6-0.3-0.9-1-0.9h-1.2V63.9z"/>
	<path class="st3" d="M393,67.4v-6.2h1.4c0.8,1.4,2.3,4.1,2.6,4.8h0c-0.1-0.7-0.1-1.7-0.1-2.8v-2h1v6.2h-1.3c-0.7-1.3-2.3-4.3-2.6-5
		h0c0,0.6,0.1,1.8,0.1,2.9v2.1H393z"/>
	<path class="st3" d="M404.6,64.3c0,1.7-1,3.2-2.8,3.2c-1.8,0-2.8-1.4-2.8-3.2c0-1.8,1-3.2,2.8-3.2
		C403.6,61.1,404.6,62.4,404.6,64.3z M400.2,64.3c0,1.3,0.6,2.3,1.7,2.3c1.2,0,1.7-1.1,1.7-2.3c0-1.2-0.5-2.2-1.7-2.2
		C400.7,62.1,400.2,63,400.2,64.3z"/>
	<path class="st3" d="M407.8,61.2h2.2c1.7,0,2.8,1.2,2.8,3c0,1.8-1.1,3.2-2.8,3.2h-2.2V61.2z M408.9,66.5h1c1.2,0,1.8-0.9,1.8-2.2
		c0-1.1-0.5-2.1-1.8-2.1h-1.1V66.5z"/>
	<path class="st3" d="M418,64.6h-2.8v1.8h3.1l-0.1,1H414v-6.2h4v1h-3v1.5h2.8V64.6z"/>
	<path class="st3" d="M421.3,61.2h1.1v5.3h3l-0.1,1h-3.9V61.2z"/>
	<path class="st3" d="M427.5,65.8l-0.5,1.6h-1.1l2-6.2h1.4l2.1,6.2h-1.2l-0.5-1.6H427.5z M429.4,64.9c-0.5-1.4-0.7-2.3-0.9-2.8h0
		c-0.1,0.6-0.5,1.6-0.8,2.8H429.4z"/>
	<path class="st3" d="M439.2,65.5c-0.2,1.1-1,2-2.5,2c-1.8,0-2.7-1.4-2.7-3.2c0-1.7,0.9-3.2,2.8-3.2c1.5,0,2.3,0.9,2.4,2h-1.1
		c-0.2-0.5-0.5-1-1.3-1c-1.1,0-1.6,1.1-1.6,2.3c0,1.1,0.4,2.3,1.6,2.3c0.9,0,1.2-0.6,1.3-1H439.2z"/>
	<path class="st3" d="M441.3,61.2v6.2h-1.1v-6.2H441.3z"/>
	<path class="st3" d="M443.8,61.2v3.7c0,1.3,0.6,1.7,1.3,1.7c0.8,0,1.3-0.4,1.3-1.7v-3.7h1.1v3.7c0,2.1-1.1,2.6-2.4,2.6
		c-1.3,0-2.4-0.6-2.4-2.6v-3.7H443.8z"/>
	<path class="st3" d="M448.9,61.2h2.2c1.7,0,2.8,1.2,2.8,3c0,1.8-1.1,3.2-2.8,3.2h-2.2V61.2z M450,66.5h1c1.2,0,1.8-0.9,1.8-2.2
		c0-1.1-0.5-2.1-1.8-2.1H450V66.5z"/>
	<path class="st3" d="M456,65.8l-0.5,1.6h-1.1l2-6.2h1.4l2.1,6.2h-1.2l-0.5-1.6H456z M458,64.9c-0.5-1.4-0.7-2.3-0.9-2.8h0
		c-0.1,0.6-0.5,1.6-0.8,2.8H458z"/>
	<path class="st3" d="M460.7,61.2h2.2c1.7,0,2.8,1.2,2.8,3c0,1.8-1.1,3.2-2.8,3.2h-2.2V61.2z M461.8,66.5h1c1.2,0,1.8-0.9,1.8-2.2
		c0-1.1-0.5-2.1-1.8-2.1h-1.1V66.5z"/>
	<path class="st3" d="M469,61.2h2.2c1.7,0,2.8,1.2,2.8,3c0,1.8-1.1,3.2-2.8,3.2H469V61.2z M470.1,66.5h1c1.2,0,1.8-0.9,1.8-2.2
		c0-1.1-0.5-2.1-1.8-2.1h-1.1V66.5z"/>
	<path class="st3" d="M479.1,64.6h-2.8v1.8h3.1l-0.1,1h-4.1v-6.2h4v1h-3v1.5h2.8V64.6z"/>
	<path class="st3" d="M487.4,65c0-1.1,0-2.3,0-3h0c-0.3,1.2-1,3.5-1.6,5.4h-0.9c-0.5-1.7-1.2-4.2-1.5-5.4h0c0,0.7,0.1,2,0.1,3.1v2.3
		h-1v-6.2h1.6c0.5,1.7,1.1,3.9,1.3,4.8h0c0.1-0.7,0.9-3.1,1.5-4.8h1.6v6.2h-1.1V65z"/>
	<path class="st3" d="M493.9,64.6H491v1.8h3.1l-0.1,1H490v-6.2h4v1h-3v1.5h2.8V64.6z M493.9,59.4l-1.5,1.2h-1l1.2-1.2H493.9z"/>
	<path class="st3" d="M498.7,67.4l-1.4-2.3h0l-1.4,2.3h-1.2l2-3.1l-1.9-3.1h1.3l1.3,2.2h0l1.3-2.2h1.2l-1.9,3l2,3.2H498.7z"/>
	<path class="st3" d="M501.8,61.2v6.2h-1.1v-6.2H501.8z"/>
	<path class="st3" d="M508.1,65.5c-0.2,1.1-1,2-2.5,2c-1.8,0-2.7-1.4-2.7-3.2c0-1.7,0.9-3.2,2.8-3.2c1.5,0,2.3,0.9,2.4,2H507
		c-0.2-0.5-0.5-1-1.3-1c-1.1,0-1.6,1.1-1.6,2.3c0,1.1,0.4,2.3,1.6,2.3c0.9,0,1.2-0.6,1.3-1H508.1z"/>
	<path class="st3" d="M514.5,64.3c0,1.7-1,3.2-2.8,3.2c-1.8,0-2.8-1.4-2.8-3.2c0-1.8,1-3.2,2.8-3.2
		C513.4,61.1,514.5,62.4,514.5,64.3z M510,64.3c0,1.3,0.6,2.3,1.7,2.3c1.2,0,1.7-1.1,1.7-2.3c0-1.2-0.5-2.2-1.7-2.2
		C510.5,62.1,510,63,510,64.3z"/>
</g>
<path class="st4" d="M517.6,268.2H18.2c-3.4,0-6.2-2.8-6.2-6.2V18.1c0-3.4,2.8-6.2,6.2-6.2h499.4c3.4,0,6.2,2.8,6.2,6.2V262
	C523.8,265.4,521.1,268.2,517.6,268.2z"/>
<g>
	<path class="st3" d="M117.5,120.1h-7.3v10.5h-3.4v-29.9h11.2c6.7,0,11.2,3.6,11.2,9.5C129.3,116.8,123.9,120.1,117.5,120.1z
		 M117.8,103.9h-7.6V117h7.4c5,0,8.2-2.6,8.2-6.6C125.8,106.1,122.6,103.9,117.8,103.9z"/>
	<path class="st3" d="M138,130.6h-3.3v-22.1h3.3v5.8c1.6-3.7,4.8-6.3,9-6.1v3.5h-0.3c-4.8,0-8.8,3.5-8.8,10.1V130.6z"/>
	<path class="st3" d="M160.8,128.3c3,0,5.2-1.2,7-3.1l2,1.8c-2.2,2.5-4.9,4.1-9.1,4.1c-6.1,0-11-4.7-11-11.5
		c0-6.4,4.5-11.5,10.6-11.5c6.5,0,10.3,5.2,10.3,11.7c0,0.3,0,0.6,0,1H153C153.5,125.6,156.9,128.3,160.8,128.3z M167.2,118.4
		c-0.3-4-2.6-7.5-7-7.5c-3.8,0-6.7,3.2-7.2,7.5H167.2z"/>
	<path class="st3" d="M176.3,103.7v-3.6h3.8v3.6H176.3z M176.5,130.6v-22.1h3.3v22.1H176.5z"/>
	<path class="st3" d="M190.6,130.6h-3.3v-22.1h3.3v3.8c1.5-2.4,3.8-4.3,7.6-4.3c5.3,0,8.5,3.6,8.5,8.8v13.7h-3.3v-12.9
		c0-4.1-2.2-6.7-6.1-6.7c-3.8,0-6.6,2.8-6.6,6.9V130.6z"/>
	<path class="st3" d="M220.9,131.1c-3.2,0-6.7-1.2-9.1-3.2l1.7-2.3c2.4,1.8,5,2.8,7.6,2.8c2.6,0,4.6-1.4,4.6-3.5v-0.1
		c0-2.2-2.6-3.1-5.5-3.9c-3.5-1-7.3-2.2-7.3-6.2v-0.1c0-3.8,3.2-6.3,7.5-6.3c2.7,0,5.7,0.9,7.9,2.4l-1.5,2.5c-2-1.3-4.4-2.1-6.5-2.1
		c-2.6,0-4.3,1.4-4.3,3.2v0.1c0,2.1,2.7,2.9,5.7,3.8c3.4,1,7.1,2.3,7.1,6.3v0.1C228.7,128.6,225.3,131.1,220.9,131.1z"/>
	<path class="st3" d="M244.7,131.1c-6.4,0-11.3-5.3-11.3-11.5c0-6.3,4.9-11.6,11.3-11.6c4.2,0,6.8,1.8,8.8,3.9l-2.2,2.3
		c-1.8-1.8-3.7-3.3-6.7-3.3c-4.5,0-7.9,3.8-7.9,8.6c0,4.8,3.5,8.6,8.1,8.6c2.8,0,5-1.4,6.7-3.3l2.1,2
		C251.5,129.3,248.8,131.1,244.7,131.1z"/>
	<path class="st3" d="M262.3,130.6H259v-22.1h3.3v5.8c1.6-3.7,4.8-6.3,9-6.1v3.5h-0.3c-4.8,0-8.8,3.5-8.8,10.1V130.6z"/>
	<path class="st3" d="M276.3,103.7v-3.6h3.8v3.6H276.3z M276.5,130.6v-22.1h3.3v22.1H276.5z"/>
	<path class="st3" d="M299.1,131.1c-4.1,0-6.7-2.2-8.5-4.7v11.1h-3.3v-28.9h3.3v4.4c1.8-2.6,4.4-4.9,8.5-4.9
		c5.3,0,10.5,4.2,10.5,11.5C309.7,126.8,304.5,131.1,299.1,131.1z M298.5,111c-4.1,0-8,3.4-8,8.5c0,5.2,3.9,8.6,8,8.6
		c4.3,0,7.8-3.2,7.8-8.5C306.3,114.4,302.7,111,298.5,111z"/>
	<path class="st3" d="M325.6,131.1c-6.4,0-11.3-5.3-11.3-11.5c0-6.3,4.9-11.6,11.3-11.6c4.2,0,6.8,1.8,8.8,3.9l-2.2,2.3
		c-1.8-1.8-3.7-3.3-6.7-3.3c-4.5,0-7.9,3.8-7.9,8.6c0,4.8,3.5,8.6,8.1,8.6c2.8,0,5-1.4,6.7-3.3l2.1,2
		C332.4,129.3,329.7,131.1,325.6,131.1z"/>
	<path class="st3" d="M340,103.7v-3.6h3.8v3.6H340z M340.2,130.6v-22.1h3.3v22.1H340.2z"/>
	<path class="st3" d="M361.2,131.1c-6.6,0-11.4-5.2-11.4-11.5c0-6.3,4.9-11.6,11.5-11.6c6.6,0,11.5,5.2,11.5,11.5
		C372.7,125.8,367.8,131.1,361.2,131.1z M361.2,111c-4.8,0-8.1,3.8-8.1,8.6c0,4.8,3.5,8.6,8.2,8.6c4.8,0,8.1-3.8,8.1-8.5
		C369.4,114.8,365.8,111,361.2,111z M359.9,105.2L364,99l3.4,1.6l-4.8,4.6H359.9z"/>
	<path class="st3" d="M381.9,130.6h-3.3v-22.1h3.3v3.8c1.5-2.4,3.8-4.3,7.6-4.3c5.3,0,8.5,3.6,8.5,8.8v13.7h-3.3v-12.9
		c0-4.1-2.2-6.7-6.1-6.7c-3.8,0-6.6,2.8-6.6,6.9V130.6z"/>
	<path class="st3" d="M428.3,131.4c-1.9,4.6-4,6.2-7.3,6.2c-1.8,0-3.2-0.4-4.7-1.1l1.1-2.6c1.1,0.6,2,0.8,3.5,0.8c2,0,3.2-1,4.5-4.1
		l-10-22h3.6l8,18.4l7.1-18.4h3.5L428.3,131.4z"/>
	<path class="st3" d="M142.8,179.6h-3.3v-22.1h3.3v5.8c1.6-3.7,4.8-6.3,9-6.1v3.5h-0.3c-4.8,0-8.8,3.5-8.8,10.1V179.6z"/>
	<path class="st3" d="M165.5,177.3c3,0,5.2-1.2,7-3.1l2,1.8c-2.2,2.5-4.9,4.1-9.1,4.1c-6.1,0-11-4.7-11-11.5
		c0-6.4,4.5-11.5,10.6-11.5c6.5,0,10.3,5.2,10.3,11.7c0,0.3,0,0.6,0,1h-17.5C158.2,174.6,161.6,177.3,165.5,177.3z M171.9,167.4
		c-0.3-4-2.6-7.5-7-7.5c-3.8,0-6.7,3.2-7.2,7.5H171.9z"/>
	<path class="st3" d="M181,152.7v-3.6h3.8v3.6H181z M181.2,179.6v-22.1h3.3v22.1H181.2z"/>
	<path class="st3" d="M195.4,179.6h-3.3v-22.1h3.3v3.8c1.5-2.4,3.8-4.3,7.6-4.3c5.3,0,8.5,3.6,8.5,8.8v13.7h-3.3v-12.9
		c0-4.1-2.2-6.7-6.1-6.7c-3.8,0-6.6,2.8-6.6,6.9V179.6z"/>
	<path class="st3" d="M225.6,180.1c-3.2,0-6.7-1.2-9.1-3.2l1.7-2.3c2.4,1.8,5,2.8,7.6,2.8c2.6,0,4.6-1.4,4.6-3.5v-0.1
		c0-2.2-2.6-3.1-5.5-3.9c-3.5-1-7.3-2.2-7.3-6.2v-0.1c0-3.8,3.2-6.3,7.5-6.3c2.7,0,5.7,0.9,7.9,2.4l-1.5,2.5c-2-1.3-4.4-2.1-6.5-2.1
		c-2.6,0-4.3,1.4-4.3,3.2v0.1c0,2.1,2.7,2.9,5.7,3.8c3.4,1,7.1,2.3,7.1,6.3v0.1C233.4,177.6,230,180.1,225.6,180.1z"/>
	<path class="st3" d="M249.4,180.1c-6.4,0-11.3-5.3-11.3-11.5c0-6.3,4.9-11.6,11.3-11.6c4.2,0,6.8,1.8,8.8,3.9l-2.2,2.3
		c-1.8-1.8-3.7-3.3-6.7-3.3c-4.5,0-7.9,3.8-7.9,8.6c0,4.8,3.5,8.6,8.1,8.6c2.8,0,5-1.4,6.7-3.3l2.1,2
		C256.2,178.3,253.6,180.1,249.4,180.1z"/>
	<path class="st3" d="M267,179.6h-3.3v-22.1h3.3v5.8c1.6-3.7,4.8-6.3,9-6.1v3.5h-0.3c-4.8,0-8.8,3.5-8.8,10.1V179.6z"/>
	<path class="st3" d="M281,152.7v-3.6h3.8v3.6H281z M281.3,179.6v-22.1h3.3v22.1H281.3z"/>
	<path class="st3" d="M303.8,180.1c-4.1,0-6.7-2.2-8.5-4.7v11.1h-3.3v-28.9h3.3v4.4c1.8-2.6,4.4-4.9,8.5-4.9
		c5.3,0,10.5,4.2,10.5,11.5C314.4,175.8,309.2,180.1,303.8,180.1z M303.2,160c-4.1,0-8,3.4-8,8.5c0,5.2,3.9,8.6,8,8.6
		c4.3,0,7.8-3.2,7.8-8.5C311,163.4,307.4,160,303.2,160z"/>
	<path class="st3" d="M330.3,180.1c-6.4,0-11.3-5.3-11.3-11.5c0-6.3,4.9-11.6,11.3-11.6c4.2,0,6.8,1.8,8.8,3.9l-2.2,2.3
		c-1.8-1.8-3.7-3.3-6.7-3.3c-4.5,0-7.9,3.8-7.9,8.6c0,4.8,3.5,8.6,8.1,8.6c2.8,0,5-1.4,6.7-3.3l2.1,2
		C337.1,178.3,334.5,180.1,330.3,180.1z"/>
	<path class="st3" d="M344.7,152.7v-3.6h3.8v3.6H344.7z M345,179.6v-22.1h3.3v22.1H345z"/>
	<path class="st3" d="M365.9,180.1c-6.6,0-11.4-5.2-11.4-11.5c0-6.3,4.9-11.6,11.5-11.6c6.6,0,11.5,5.2,11.5,11.5
		C377.4,174.8,372.5,180.1,365.9,180.1z M365.9,160c-4.8,0-8.1,3.8-8.1,8.6c0,4.8,3.5,8.6,8.2,8.6c4.8,0,8.1-3.8,8.1-8.5
		C374.1,163.8,370.5,160,365.9,160z M364.6,154.2l4.1-6.2l3.4,1.6l-4.8,4.6H364.6z"/>
	<path class="st3" d="M386.6,179.6h-3.3v-22.1h3.3v3.8c1.5-2.4,3.8-4.3,7.6-4.3c5.3,0,8.5,3.6,8.5,8.8v13.7h-3.3v-12.9
		c0-4.1-2.2-6.7-6.1-6.7c-3.8,0-6.6,2.8-6.6,6.9V179.6z"/>
	<path class="st3" d="M203,226.3c3,0,5.2-1.2,7-3.1l2,1.8c-2.2,2.5-4.9,4.1-9.1,4.1c-6.1,0-11-4.7-11-11.5c0-6.4,4.5-11.5,10.6-11.5
		c6.5,0,10.3,5.2,10.3,11.7c0,0.3,0,0.6,0,1h-17.5C195.7,223.6,199.1,226.3,203,226.3z M209.5,216.4c-0.3-4-2.6-7.5-7-7.5
		c-3.8,0-6.7,3.2-7.2,7.5H209.5z"/>
	<path class="st3" d="M221.7,228.6h-3.3v-22.1h3.3v3.8c1.5-2.4,3.8-4.3,7.6-4.3c5.3,0,8.5,3.6,8.5,8.8v13.7h-3.3v-12.9
		c0-4.1-2.2-6.7-6.1-6.7c-3.8,0-6.6,2.8-6.6,6.9V228.6z"/>
	<path class="st3" d="M257.7,228.6v-31.2h3.3v31.2H257.7z"/>
	<path class="st3" d="M268.8,228.6v-22.1h3.3v22.1H268.8z M269.1,203.2l4.1-6.2l3.4,1.6l-4.8,4.6H269.1z"/>
	<path class="st3" d="M283,228.6h-3.3v-22.1h3.3v3.8c1.5-2.4,3.8-4.3,7.6-4.3c5.3,0,8.5,3.6,8.5,8.8v13.7h-3.3v-12.9
		c0-4.1-2.2-6.7-6.1-6.7c-3.8,0-6.6,2.8-6.6,6.9V228.6z"/>
	<path class="st3" d="M315.6,226.3c3,0,5.2-1.2,7-3.1l2,1.8c-2.2,2.5-4.9,4.1-9.1,4.1c-6.1,0-11-4.7-11-11.5
		c0-6.4,4.5-11.5,10.6-11.5c6.5,0,10.3,5.2,10.3,11.7c0,0.3,0,0.6,0,1h-17.5C308.3,223.6,311.7,226.3,315.6,226.3z M322.1,216.4
		c-0.3-4-2.6-7.5-7-7.5c-3.8,0-6.7,3.2-7.2,7.5H322.1z"/>
	<path class="st3" d="M332.4,210.8l-1-2.7c2.4-1.1,4.8-1.8,8-1.8c6,0,9.4,3.1,9.4,8.9v13.5h-3.2v-3.3c-1.5,2-4.1,3.8-8,3.8
		c-4.1,0-8.2-2.3-8.2-6.9c0-4.7,3.8-7.2,9.4-7.2c2.8,0,4.8,0.4,6.8,0.9v-0.8c0-4-2.4-6-6.6-6C336.5,209.2,334.4,209.8,332.4,210.8z
		 M332.7,222.1c0,2.8,2.6,4.4,5.6,4.4c4.1,0,7.4-2.5,7.4-6v-2.1c-1.6-0.5-3.8-0.9-6.5-0.9C335.1,217.4,332.7,219.2,332.7,222.1z"/>
</g>
<g>
	<g>
		<g>
			<path class="st5" d="M133.3,45.9c0.7-1.2,1.6-2.2,2.8-3c4.6-2.9,10.8-0.2,11.8,5.2c0.1,0.5,0.1,0.9,0.1,1.4c0,3.5,0,7,0,10.5
				c0,0.3-0.1,0.4-0.4,0.4c-2,0-4.1,0-6.1,0c-0.3,0-0.3-0.1-0.3-0.3c0-0.8,0-1.7,0-2.5c0-0.2-0.1-0.3-0.3-0.3c-0.5,0-1,0-1.5,0
				c-0.2,0-0.3,0-0.3,0.2c0,0.8,0,1.7,0,2.5c0,0.3-0.1,0.4-0.4,0.4c-2,0-4,0-6.1,0c-0.3,0-0.3-0.1-0.3-0.3c0-1.6,0-3.1,0-4.7
				c0-1.6,0-3.2,0-4.8c0-0.4-0.1-0.8,0-1.2c0,0,0-0.1,0-0.1C132.5,48.1,132.8,47,133.3,45.9z M140.4,55.3c0.2,0,0.6,0,1-0.1
				c3-0.6,5-3.4,4.5-6.4c-0.3-2.2-1.6-3.7-3.7-4.5c-0.2-0.1-0.3-0.1-0.3,0.1c-0.1,0.3-0.2,0.6-0.4,0.9c-1.4,2.5-3.6,3.8-6.5,3.8
				c-0.3,0-0.4,0.1-0.4,0.4C134.5,52.6,137,55.2,140.4,55.3z M145.9,54.8c-0.8,0.8-1.6,1.4-2.5,1.8c-0.1,0-0.1,0.1-0.1,0.2
				c0,0.4,0,0.9,0,1.3c0,0.1,0,0.2,0.2,0.2c0.8,0,1.5,0,2.3,0c0.2,0,0.2-0.1,0.2-0.2C145.9,57.1,145.9,56,145.9,54.8z M134.5,54.8
				c0,1.2,0,2.2,0,3.3c0,0.1,0,0.2,0.2,0.2c0.7,0,1.5,0,2.2,0c0.1,0,0.2,0,0.2-0.2c0-0.4,0-0.9,0-1.3c0-0.1,0-0.2-0.1-0.2
				C136.1,56.2,135.3,55.6,134.5,54.8z M135.2,46.9c2,0.1,4-1.4,4.5-3C138.1,43.8,135.8,45.4,135.2,46.9z"/>
			<path class="st6" d="M132.5,50.6c0,1.6,0,3.2,0,4.8c-0.7,0.7-1.5,1.3-2.5,1.8c-0.2,0.1-0.2,0.2-0.2,0.3c0,1.1,0,2.1,0,3.2
				c0,0.2-0.1,0.3-0.3,0.3c-0.5,0-1,0-1.5,0c-0.2,0-0.3,0-0.3-0.3c0-0.9,0-1.7,0-2.6c0-0.2-0.1-0.3-0.3-0.3c-0.5,0.1-1,0.1-1.5,0
				c-0.2,0-0.2,0-0.2,0.2c0,0.9,0,1.7,0,2.6c0,0.2-0.1,0.3-0.3,0.3c-0.5,0-1,0-1.5,0c-0.2,0-0.3,0-0.3-0.3c0-1,0-2.1,0-3.1
				c0-0.2-0.1-0.3-0.3-0.4c-2.9-1.4-4.8-4.4-4.4-7.9c0.4-3.6,3-6.2,6.4-6.8c3.2-0.5,5.8,0.6,7.7,3.2c0.1,0.1,0.1,0.2,0.2,0.2
				c-0.5,1.1-0.9,2.2-0.9,3.4c0,0,0,0.1,0,0.1c-0.4-2.2-1.6-3.8-3.6-4.6c-0.2-0.1-0.3-0.1-0.4,0.2c-0.5,1.3-1.3,2.4-2.5,3.2
				c-1.3,1-2.9,1.4-4.5,1.4c-0.3,0-0.3,0.1-0.3,0.3c0,0.4,0,0.8,0.1,1.2c0.4,2.3,2.3,4.2,4.6,4.6c2.3,0.4,4.7-0.6,5.9-2.7
				C132.1,52.3,132.3,51.5,132.5,50.6z M121.7,47.5c1.8,0.1,4.1-1.4,4.6-3.1C124.2,44.7,122.7,45.7,121.7,47.5z"/>
			<path class="st5" d="M140.2,52.1c0.6,0,1.2,0,1.8,0c0.2,0,0.3,0,0.3,0.3c-0.1,1-1,1.8-2,1.8c-1.1,0-2-0.7-2.1-1.7
				c0-0.2,0-0.3,0.3-0.3C139,52.1,139.6,52.1,140.2,52.1z"/>
			<path class="st5" d="M138.6,49c0.6,0,1,0.5,1,1c0,0.6-0.5,1-1,1c-0.6,0-1-0.5-1-1C137.6,49.5,138.1,49.1,138.6,49z"/>
			<path class="st5" d="M142.8,50.1c0,0.6-0.5,1-1,1c-0.6,0-1-0.5-1-1c0-0.6,0.5-1,1-1C142.3,49,142.8,49.5,142.8,50.1z"/>
			<path class="st6" d="M126.7,52.1c0.6,0,1.2,0,1.8,0c0.2,0,0.2,0,0.2,0.2c-0.1,1-1,1.8-2.1,1.8c-1,0-1.9-0.8-2-1.9
				c0-0.2,0.1-0.2,0.2-0.2C125.5,52.1,126.1,52.1,126.7,52.1z"/>
			<path class="st6" d="M126.2,50.1c0,0.6-0.5,1-1,1c-0.6,0-1-0.5-1-1.1c0-0.6,0.5-1,1-1C125.8,49.1,126.2,49.5,126.2,50.1z"/>
			<path class="st6" d="M127.2,50.1c0-0.6,0.4-1,1-1.1c0.6,0,1,0.5,1,1c0,0.6-0.5,1-1,1.1C127.7,51.1,127.2,50.7,127.2,50.1z"/>
		</g>
		<g>
			<path class="st7" d="M157,56.2c-2.9,0-5.1-2.3-5.1-5.1v0c0-2.8,2.1-5.1,5.2-5.1c1.9,0,3,0.6,3.9,1.5l-1.4,1.6
				c-0.8-0.7-1.5-1.1-2.5-1.1c-1.7,0-2.9,1.4-2.9,3.1v0c0,1.7,1.2,3.1,2.9,3.1c1.1,0,1.8-0.5,2.6-1.2l1.4,1.4
				C160,55.5,158.9,56.2,157,56.2z"/>
			<path class="st7" d="M170.6,56l-0.9-2.2h-4.2l-0.9,2.2h-2.2l4.3-10h2l4.3,10H170.6z M167.6,48.7l-1.3,3.2h2.6L167.6,48.7z"/>
			<path class="st7" d="M178.9,56.2c-2.9,0-5.1-2.3-5.1-5.1v0c0-2.8,2.1-5.1,5.2-5.1c1.9,0,3,0.6,3.9,1.5l-1.4,1.6
				c-0.8-0.7-1.5-1.1-2.5-1.1c-1.7,0-2.9,1.4-2.9,3.1v0c0,1.7,1.2,3.1,2.9,3.1c1.1,0,1.8-0.5,2.6-1.2l1.4,1.4
				C182,55.5,180.8,56.2,178.9,56.2z"/>
			<path class="st7" d="M185.3,56v-9.9h2.2V56H185.3z"/>
		</g>
	</g>
	<g>
		<rect x="110.5" y="37.7" class="st7" width="0.8" height="27.6"/>
	</g>
	<g>
		<path class="st8" d="M81.9,52.9c0.2,0.3,0.5,0.4,0.9,0.5c0.5,0,0.9-0.5,0.9-0.5l8.9-11.4c0.7-0.8,1.5-0.1,1.5-0.1
			c0.7,0.7,0.2,1.4,0.2,1.4l-2,2.5l0,0c-0.2,0.2-0.3,0.4-0.3,0.7c0,0.2,0.1,0.5,0.2,0.6v0l2,2.5l6.3-8l-2.5-3.2l-0.5-0.6
			c-0.4-0.6-1.3-0.7-1.3-0.7h-3.8c-1,0-1.5,0.7-1.5,0.7L80.2,50.8"/>
		<path class="st8" d="M81.4,45.9l-2.5-3.2c-0.5-0.8,0.2-1.4,0.2-1.4c0.9-0.6,1.5,0.3,1.5,0.3l2.1,2.7l2.5-3.2l-2.8-3.7
			c-0.7-1-1.7-0.8-1.7-0.8h-3.4c-1.1,0-1.6,0.7-1.6,0.7l-3,3.8l6.3,8"/>
		<path class="st8" d="M91.2,48.7c0,0-0.3-0.4-0.8-0.4c-0.6,0-0.8,0.4-0.8,0.4l-9,11.5C79.8,61,79,60.3,79,60.3
			c-0.7-0.7-0.1-1.4-0.1-1.4l2-2.6v0c0.2-0.2,0.3-0.4,0.3-0.7c0-0.2-0.1-0.5-0.2-0.6v0l-2-2.5l-6.3,8.1l3.5,4.5l5.5,0l11.1-14.2"/>
		<path class="st8" d="M91.6,55.6l2.5,3.3c0.6,0.8-0.2,1.4-0.2,1.4C93,61,92.4,60,92.4,60l-2.1-2.7l-2.5,3.2l3.6,4.6l5.5,0l3.5-4.5
			l-6.3-8.1"/>
		<path class="st8" d="M100.4,52.2c-0.7,0-1.3-0.6-1.3-1.4c0-0.7,0.6-1.4,1.3-1.4s1.3,0.6,1.3,1.4C101.7,51.6,101.1,52.2,100.4,52.2
			 M100.4,48.3c-1.4,0-2.6,1.1-2.6,2.5c0,1.4,1.1,2.5,2.6,2.5c1.4,0,2.6-1.1,2.6-2.5C102.9,49.4,101.8,48.3,100.4,48.3"/>
		<path class="st8" d="M86.5,32.7c0.7,0,1.3,0.6,1.3,1.4c0,0.7-0.6,1.4-1.3,1.4s-1.3-0.6-1.3-1.4C85.2,33.3,85.8,32.7,86.5,32.7
			 M86.5,36.6c1.4,0,2.6-1.1,2.6-2.5c0-1.4-1.1-2.5-2.6-2.5c-1.4,0-2.6,1.1-2.6,2.5C84,35.4,85.1,36.6,86.5,36.6"/>
		<path class="st8" d="M71.3,50.8c0-0.7,0.6-1.4,1.3-1.4c0.7,0,1.3,0.6,1.3,1.4c0,0.7-0.6,1.4-1.3,1.4
			C71.9,52.2,71.3,51.5,71.3,50.8 M75.2,50.8c0-1.4-1.1-2.5-2.6-2.5c-1.4,0-2.6,1.1-2.6,2.5c0,1.4,1.1,2.5,2.6,2.5
			C74,53.3,75.2,52.2,75.2,50.8"/>
		<path class="st8" d="M86.5,68.9c-0.7,0-1.3-0.6-1.3-1.4c0-0.7,0.6-1.4,1.3-1.4s1.3,0.6,1.3,1.4C87.9,68.3,87.3,68.9,86.5,68.9
			 M86.5,65c-1.4,0-2.6,1.1-2.6,2.5c0,1.4,1.1,2.5,2.6,2.5c1.4,0,2.6-1.1,2.6-2.5C89.1,66.2,87.9,65,86.5,65"/>
		<path class="st9" d="M59.9,34H30.5v19.6c0,10.7,14.7,14,14.7,14h0c0,0,14.7-3.2,14.7-14 M59.2,34.7v18.8c0,2.3-0.7,4.4-2.1,6.3
			c-1.2,1.5-2.8,2.9-4.8,4.1c-3.1,1.8-6.3,2.7-7,2.9c-0.7-0.2-3.9-1-7-2.8c-2-1.2-3.7-2.6-4.8-4.1c-1.4-1.9-2.1-4-2.1-6.3V34.7H59.2
			z"/>
		<path class="st9" d="M48.8,40.3v-1.8h-1.8v1.7h-0.7v-1.7h-1.9v1.7h-0.7v-1.7h-1.9v1.8l0.9,1.6c0,0.1,0,0.1,0,0.2l0,8.2h0.9l0-3
			c0-0.7,0.8-1.3,1.7-1.3c0.9,0,1.7,0.6,1.7,1.3l0,3h0.9l0-3.1c0,0,0,0,0,0v-1.5c0,0,0,0,0,0l0-1.1v0v-0.5l0-1.9
			c0-0.1,0-0.1,0.1-0.2"/>
		<path class="st9" d="M41.9,50.5l0-2.7l-0.3,0.2c-0.1,0.1-0.3,0.1-0.4,0l-0.4-0.3c0,0,0,0,0,0l0,1.1c0,0.1-0.1,0.2-0.1,0.3
			c0,0,0.1,0,0.1,0.1c0.5,0.4,0.5,0.9,0.4,1.4"/>
		<path class="st9" d="M45.2,46.7c-0.6,0-0.9,0.4-0.9,0.6l0,3h1.9l0-3C46.1,47.1,45.8,46.7,45.2,46.7"/>
		<path class="st9" d="M34.2,50.5C34.1,50.2,34,50,34,49.6c-0.1-0.6-0.1-1.1-0.1-1.1c0-0.2,0.1-0.3,0.3-0.3l0.8-0.2l-0.9-0.6
			c-0.1-0.1-0.2-0.2-0.2-0.3v-1c0-0.1,0.1-0.3,0.2-0.3l0.3-0.2v-0.3l-0.3-0.1c-0.1-0.1-0.2-0.2-0.2-0.3v-1.2c0-0.2,0.2-0.4,0.4-0.4
			l1.1,0c0-0.3,0-0.7,0-1c0.1-0.4,0.4-0.9,0.5-1.2l-0.1-0.4c0-0.1,0-0.2,0.1-0.3c0.1-0.1,0.2-0.1,0.3-0.1h0.6c0.1,0,0.1,0,0.2,0.1
			l1.5,0.9h0.7c0.1,0,0.2,0,0.3,0.1c0.1,0.1,0.1,0.2,0.1,0.3l-0.1,1.2c0,0.1,0,0.2-0.1,0.3h0.4c0.1,0,0.2,0,0.3,0.1l0.2,0.2l0.2-0.1
			l0.3-0.6c0.1-0.1,0.2-0.2,0.3-0.2h1v-0.2L41,40.6c0-0.1,0-0.1,0-0.2v-2.3c0-0.2,0.2-0.4,0.4-0.4h2.2h0.7h1.9h0.7h2.2
			c0.2,0,0.4,0.2,0.4,0.4v2.3c0,0.1,0,0.1,0,0.2l-0.9,1.6v0.2h0.9c0.1,0,0.3,0.1,0.3,0.2l0.3,0.6l0.2,0.1l0.2-0.2
			c0.1-0.1,0.2-0.1,0.3-0.1h0.4C51,42.8,51,42.7,51,42.6l0-1.2c0-0.1,0-0.2,0.1-0.3c0.1-0.1,0.2-0.1,0.3-0.1H52l1.5-0.9
			c0.1,0,0.1-0.1,0.2-0.1h0.6c0.1,0,0.2,0,0.3,0.1c0.1,0.1,0.1,0.2,0.1,0.3L54.5,41c0.1,0.2,0.4,0.7,0.5,1.2c0.1,0.3,0.1,0.7,0,1
			l1.1,0c0.2,0,0.4,0.2,0.4,0.4l0,1.2c0,0.1-0.1,0.3-0.2,0.3L56,45.2v0.3l0.3,0.2c0.1,0.1,0.2,0.2,0.2,0.3v1c0,0.1-0.1,0.2-0.2,0.3
			l-0.9,0.6l0.8,0.2c0.1,0,0.2,0.2,0.3,0.3c0,0,0,0.5-0.1,1.1c-0.1,0.3-0.1,0.6-0.2,0.8h1.3c0,0,0,0,0,0V36.5H32.9v13.9"/>
		<path class="st9" d="M49.6,49.1c0,0,0.1,0,0.1-0.1c-0.1-0.1-0.1-0.2-0.1-0.3l0-1.1c0,0,0,0,0,0l-0.4,0.3c-0.1,0.1-0.3,0.1-0.4,0
			l-0.3-0.2l0,2.7h0.7C49.1,50,49.2,49.5,49.6,49.1"/>
		<path class="st9" d="M54.4,57.9c-0.2,0-0.4-0.2-0.4-0.4v-2.4c0-0.2-0.1-0.4-0.3-0.6c-0.1-0.1-0.4-0.3-0.7-0.3
			c-0.6,0-0.9,0.4-0.9,0.9v2.3c0,0.1,0,0.2-0.1,0.3c-0.1,0.1-0.2,0.1-0.3,0.1h-2.1c-0.2,0-0.4-0.2-0.4-0.4v-2.4
			c0-0.2-0.1-0.4-0.3-0.6c-0.1-0.1-0.4-0.3-0.7-0.3c-0.2,0-0.5,0.1-0.6,0.3l1.8,9c2.5-1.1,5.4-2.9,7-5.7"/>
		<path class="st9" d="M48.7,63.8l-2.5-12.6h-2l-2.5,12.6c0,0,0,0,0,0c1.7,0.7,3.1,1.1,3.5,1.2C45.6,64.9,47,64.6,48.7,63.8
			C48.7,63.9,48.7,63.8,48.7,63.8"/>
		<path class="st9" d="M42.8,54.6c-0.2-0.1-0.4-0.2-0.6-0.2c0,0,0,0,0,0c-0.4,0-0.6,0.2-0.7,0.3c-0.2,0.2-0.3,0.4-0.3,0.6v2.4
			c0,0.2-0.2,0.4-0.4,0.4h-2.1c-0.1,0-0.2,0-0.3-0.1c-0.1-0.1-0.1-0.2-0.1-0.3v-2.3c0-0.4-0.4-0.9-0.9-0.9c0,0,0,0,0,0
			c-0.4,0-0.6,0.2-0.7,0.3c-0.2,0.2-0.3,0.4-0.3,0.6v2.4c0,0.2-0.2,0.4-0.4,0.4h-2c1.6,2.8,4.5,4.6,7,5.7"/>
		<path class="st9" d="M57.5,51.2H47l0.5,2.7c0.2-0.1,0.5-0.2,0.8-0.2c0.5,0,0.9,0.2,1.3,0.5c0.3,0.3,0.5,0.7,0.5,1.1v2h1.4v-2
			c0,0,0,0,0,0c0.1-0.9,0.8-1.5,1.6-1.5c0.5,0,0.9,0.2,1.3,0.5c0.3,0.3,0.5,0.7,0.5,1.1v2h2c0.5-1.1,0.8-2.3,0.8-3.7L57.5,51.2
			C57.5,51.2,57.5,51.2,57.5,51.2"/>
		<path class="st9" d="M35.6,57.2v-2c0-0.4,0.2-0.8,0.5-1.1c0.3-0.3,0.8-0.5,1.3-0.5c0.9,0,1.6,0.7,1.6,1.5c0,0,0,0,0,0v2h1.4v-2
			c0-0.4,0.2-0.8,0.5-1.1c0.3-0.3,0.8-0.5,1.3-0.5c0.3,0,0.5,0.1,0.8,0.2l0.5-2.6H32.9v2.3c0,1.4,0.3,2.6,0.8,3.7"/>
		<path class="st9" d="M36.5,49.7h0.6c0,0.1,0.1,0.2,0.1,0.2c0,0,0,0.1,0,0.1c0,0.1,0,0.3,0,0.4h-2c-0.3-0.2-0.4-1-0.5-1.7l0.9-0.3
			c0.2,0,0.3-0.2,0.3-0.3v-0.3c0-0.1-0.1-0.2-0.2-0.3l-1-0.7v-0.6l0.3-0.2c0.1-0.1,0.2-0.2,0.2-0.3v-0.8c0-0.1-0.1-0.3-0.2-0.3
			l-0.3-0.1l0-0.6l0.9,0l0.4,0.7l0,1l-0.3,1c0,0.1,0,0.2,0.1,0.3c0.1,0.1,0.2,0.1,0.3,0.1h0.3c0.2,0,0.3-0.1,0.4-0.3
			c0-0.2,0.1-0.6,0.2-0.8c0.1-0.2,0.3-0.5,0.5-0.7c0.1-0.1,0.1-0.3,0-0.5l-1.2-1.4c0-0.2-0.1-0.7,0-1.1c0.1-0.4,0.4-0.9,0.5-1
			c0-0.1,0.1-0.2,0-0.2l0-0.1h0.1l1.5,0.9c0.1,0,0.1,0.1,0.2,0.1h0.4l0,0.5l-0.5,0.2c-0.1,0-0.2,0.2-0.2,0.3l0,0.4
			c0,0.2,0.2,0.4,0.4,0.4l1.2,0l0.3,0.3c0.1,0.1,0.3,0.1,0.5,0c0,0,0.6-0.4,0.6-0.5l0.2-0.4h0.7v0.8v0.5c0,0-1.3,0.4-1.4,0.5
			c-0.1,0-0.1,0.4-0.1,0.5c0,0.1,0,0.1,0.2,0.2c0,0,0.4,0.3,0.5,0.3l0.4-0.4l0.5,0l0,1.2l-0.5,0.3l-1.5-1c-0.2-0.1-0.4-0.1-0.5,0.1
			l-0.2,0.3c-0.1,0.1-0.1,0.4,0,0.5l0.9,0.8l0,0.7l-0.9,0.4c-0.1,0.1-0.2,0.2-0.2,0.3v0.1c0,0.2,0.2,0.4,0.4,0.4h1
			c0.2,0.2,0.1,0.5,0,0.7H38c-0.1-0.1-0.1-0.2-0.1-0.4c0,0,0-0.1,0-0.1c0-0.2,0-0.5,0.1-0.6l0.6-0.7c0-0.1,0.1-0.1,0.1-0.2l0-0.3
			c0-0.1-0.1-0.2-0.2-0.3c-0.1-0.1-0.2-0.1-0.3,0l-0.9,0.4c-0.1,0-0.2,0.2-0.2,0.3l-0.1,0.4l-0.5,0.2c-0.2,0-0.3,0.2-0.3,0.3v0.1
			C36.1,49.6,36.3,49.7,36.5,49.7"/>
		<path class="st9" d="M53.9,49.7h-0.6c0,0.1-0.1,0.2-0.1,0.2c0,0,0,0.1,0,0.1c0,0.1,0,0.3,0,0.4h2c0.3-0.2,0.4-1,0.5-1.7l-0.9-0.3
			c-0.1,0-0.3-0.2-0.3-0.3v-0.3c0-0.1,0.1-0.2,0.2-0.3l1-0.7v-0.6l-0.3-0.2c-0.1-0.1-0.2-0.2-0.2-0.3v-0.8c0-0.1,0.1-0.3,0.2-0.3
			l0.3-0.1v-0.6l-0.9,0l-0.4,0.7l0,1l0.3,1c0,0.1,0,0.2-0.1,0.3c-0.1,0.1-0.2,0.1-0.3,0.1h-0.3c-0.2,0-0.3-0.1-0.4-0.3
			c0-0.2-0.1-0.6-0.2-0.8c-0.1-0.2-0.3-0.5-0.5-0.7c-0.1-0.1-0.1-0.3,0-0.5l1.2-1.4c0-0.2,0.1-0.7,0-1.1c-0.1-0.4-0.4-0.9-0.4-1
			c0-0.1-0.1-0.2-0.1-0.2l0-0.1h-0.1l-1.5,0.9c-0.1,0-0.1,0.1-0.2,0.1h-0.4l0,0.5l0.5,0.2c0.1,0,0.2,0.2,0.2,0.3l0,0.4
			c0,0.2-0.2,0.4-0.4,0.4l-1.2,0L50.5,44c-0.1,0.1-0.3,0.1-0.5,0c0,0-0.6-0.4-0.6-0.5l-0.2-0.4h-0.7v0.8v0.5c0,0,1.3,0.4,1.4,0.5
			c0.1,0,0.1,0.4,0.1,0.5c0,0.1,0,0.1-0.2,0.2c0,0-0.4,0.3-0.5,0.3L49,45.7l-0.5,0v1.2l0.5,0.3l1.5-1c0.2-0.1,0.4-0.1,0.5,0.1
			l0.2,0.3c0.1,0.1,0.1,0.4,0,0.5l-0.9,0.8l0,0.7l0.9,0.4c0.1,0.1,0.2,0.2,0.2,0.3v0.1c0,0.2-0.2,0.4-0.4,0.4h-1
			c-0.2,0.2-0.1,0.5,0,0.7h2.4c0.1-0.1,0.1-0.2,0.1-0.4c0,0,0-0.1,0-0.1c0-0.2,0-0.5-0.1-0.6l-0.6-0.7c0-0.1-0.1-0.1-0.1-0.2l0-0.3
			c0-0.1,0.1-0.2,0.2-0.3c0.1-0.1,0.2-0.1,0.3,0l0.9,0.4c0.1,0,0.2,0.2,0.2,0.3l0.1,0.4l0.5,0.2c0.2,0,0.3,0.2,0.3,0.3v0.1
			C54.3,49.6,54.1,49.7,53.9,49.7"/>
	</g>
</g>
</svg>
