<svg id="Layer_1" data-name="Layer 1" xmlns="http://www.w3.org/2000/svg" viewBox="0 0 869.59 456.78"><defs><style>.cls-1{fill:#bc955c;}.cls-2{fill:#fff;}</style></defs><title>BANNER UBICACIÓN</title><rect class="cls-1" width="869.59" height="456.78"/><path class="cls-2" d="M297.29,185.23V156.72h11V185c0,8.13,4.07,12.33,10.77,12.33s10.76-4.06,10.76-12V156.72h11v28.16c0,15.11-8.48,22.52-21.88,22.52S297.29,199.92,297.29,185.23Z"/><path class="cls-2" d="M361.67,201.63v5H350.84v-52h10.83V173.9a14,14,0,0,1,11.91-6.2c8.91,0,17.39,7,17.39,19.74v.15c0,12.76-8.34,19.74-17.39,19.74A14.67,14.67,0,0,1,361.67,201.63Zm18.47-14v-.15c0-6.34-4.28-10.55-9.34-10.55s-9.27,4.21-9.27,10.55v.15c0,6.34,4.21,10.55,9.27,10.55S380.14,194,380.14,187.59Z"/><path class="cls-2" d="M399.17,154.58h11.41v9.62H399.17Zm.29,13.83H410.3v38.21H399.46Z"/><path class="cls-2" d="M418.64,187.73v-.14a19.62,19.62,0,0,1,20-19.89c7.2,0,11.69,2.42,15.26,6.41l-6.63,7.13c-2.43-2.57-4.85-4.2-8.7-4.2-5.42,0-9.27,4.77-9.27,10.4v.15c0,5.84,3.78,10.55,9.7,10.55,3.63,0,6.13-1.57,8.76-4.07l6.35,6.42c-3.71,4.06-8,7-15.61,7A19.51,19.51,0,0,1,418.64,187.73Z"/><path class="cls-2" d="M458.92,195.64v-.14c0-8.34,6.34-12.19,15.4-12.19a27.08,27.08,0,0,1,9.34,1.57v-.64c0-4.5-2.78-7-8.2-7a27.94,27.94,0,0,0-10.55,2.07l-2.71-8.27A33.6,33.6,0,0,1,477,168c5.91,0,10.19,1.57,12.9,4.28s4.14,7.06,4.14,12.19v22.17H483.59v-4.13A14.71,14.71,0,0,1,472,207.33C464.84,207.33,458.92,203.2,458.92,195.64Zm24.88-2.49v-1.93a16.9,16.9,0,0,0-6.92-1.42c-4.63,0-7.48,1.85-7.48,5.27v.14c0,2.93,2.42,4.64,5.92,4.64C480.38,199.85,483.8,197.07,483.8,193.15Z"/><path class="cls-2" d="M522.94,187.73v-.14c0-10.91,7.77-19.89,18.89-19.89,12.76,0,18.61,9.91,18.61,20.74,0,.86-.07,1.85-.14,2.85H533.71c1.07,4.92,4.49,7.49,9.34,7.49,3.63,0,6.27-1.14,9.26-3.92l6.21,5.49c-3.57,4.42-8.7,7.13-15.62,7.13C531.43,207.48,522.94,199.42,522.94,187.73Zm26.95-3.21c-.64-4.85-3.49-8.13-8.06-8.13s-7.41,3.21-8.27,8.13Z"/><path class="cls-2" d="M569,154.58h10.83v52H569Z"/><path class="cls-2" d="M610.35,181.81v-.14c0-14.19,10.69-25.81,26-25.81,9.41,0,15,3.14,19.67,7.7l-7,8.06c-3.85-3.5-7.77-5.63-12.76-5.63-8.41,0-14.47,7-14.47,15.54v.14c0,8.55,5.91,15.68,14.47,15.68,5.7,0,9.19-2.28,13.11-5.84l7,7.05c-5.13,5.49-10.83,8.92-20.46,8.92C621.26,207.48,610.35,196.14,610.35,181.81Z"/><path class="cls-2" d="M682.28,156.36h10.13l21.38,50.26H702.32l-4.57-11.19h-21.1l-4.56,11.19H660.9Zm11.55,29.37-6.63-16.18-6.63,16.18Z"/><path class="cls-2" d="M716.08,181.81v-.14c0-14.19,10.69-25.81,26-25.81,9.41,0,15,3.14,19.67,7.7l-7,8.06C750.94,168.12,747,166,742,166c-8.41,0-14.47,7-14.47,15.54v.14c0,8.55,5.91,15.68,14.47,15.68,5.7,0,9.19-2.28,13.12-5.84l7,7.05c-5.13,5.49-10.83,8.92-20.46,8.92C727,207.48,716.08,196.14,716.08,181.81Z"/><path class="cls-2" d="M771.4,156.72h11v49.9h-11Z"/><path class="cls-2" d="M296.94,260.14h10.83v5.42c2.5-3.21,5.78-6.13,11.27-6.13,5,0,8.77,2.21,10.76,6.06,3.35-3.92,7.35-6.06,12.55-6.06,8,0,12.9,4.85,12.9,14v24.88H344.42V277c0-5.13-2.28-7.77-6.35-7.77s-6.56,2.64-6.56,7.77v21.31H320.68V277c0-5.13-2.28-7.77-6.35-7.77s-6.56,2.64-6.56,7.77v21.31H296.94Z"/><path class="cls-2" d="M362.39,287.38v-.15c0-8.34,6.34-12.19,15.4-12.19a27,27,0,0,1,9.33,1.57V276c0-4.49-2.78-7-8.19-7a28.13,28.13,0,0,0-10.55,2.07l-2.71-8.27a33.73,33.73,0,0,1,14.82-3.06c5.92,0,10.2,1.56,12.91,4.27s4.13,7.06,4.13,12.19v22.17H387.05v-4.13a14.69,14.69,0,0,1-11.55,4.85C368.3,299.07,362.39,294.93,362.39,287.38Zm24.88-2.5V283a16.77,16.77,0,0,0-6.92-1.43c-4.63,0-7.48,1.85-7.48,5.28V287c0,2.92,2.42,4.63,5.91,4.63C383.85,291.58,387.27,288.8,387.27,284.88Zm-3.21-41.56,9.34,4.06-9.13,8.56H376Z"/><path class="cls-2" d="M403.88,293.29l4.64-7.13c4.13,3,8.48,4.57,12,4.57,3.14,0,4.57-1.14,4.57-2.86v-.14c0-2.35-3.71-3.13-7.92-4.42-5.34-1.57-11.4-4.06-11.4-11.48v-.14c0-7.77,6.27-12.12,14-12.12A26.46,26.46,0,0,1,434,264l-4.14,7.49c-3.78-2.21-7.55-3.57-10.33-3.57s-4,1.14-4,2.64v.14c0,2.14,3.64,3.14,7.77,4.57,5.35,1.78,11.55,4.35,11.55,11.33v.14c0,8.49-6.34,12.34-14.61,12.34A26.73,26.73,0,0,1,403.88,293.29Z"/><path class="cls-2" d="M462.2,279.46v-.14a19.62,19.62,0,0,1,20-19.89c7.2,0,11.69,2.42,15.26,6.42L490.86,273c-2.43-2.57-4.85-4.21-8.7-4.21-5.42,0-9.27,4.78-9.27,10.41v.14c0,5.85,3.78,10.55,9.7,10.55,3.63,0,6.13-1.57,8.77-4.06l6.34,6.41c-3.71,4.07-8,7-15.61,7A19.51,19.51,0,0,1,462.2,279.46Z"/><path class="cls-2" d="M501.84,279.46v-.14c0-10.91,7.77-19.89,18.89-19.89,12.76,0,18.61,9.91,18.61,20.75,0,.85-.07,1.85-.14,2.85H512.61c1.06,4.92,4.49,7.48,9.33,7.48,3.64,0,6.28-1.14,9.27-3.92l6.2,5.49c-3.56,4.42-8.69,7.13-15.61,7.13C510.32,299.21,501.84,291.15,501.84,279.46Zm26.95-3.21c-.64-4.84-3.5-8.12-8.06-8.12s-7.41,3.21-8.27,8.12Z"/><path class="cls-2" d="M547.4,260.14h10.83v7.7c2.21-5.27,5.78-8.69,12.19-8.41v11.34h-.57c-7.2,0-11.62,4.34-11.62,13.47v14.11H547.4Z"/><path class="cls-2" d="M574.28,279.46v-.14a19.62,19.62,0,0,1,20-19.89c7.2,0,11.69,2.42,15.25,6.42L602.93,273c-2.42-2.57-4.84-4.21-8.69-4.21-5.42,0-9.27,4.78-9.27,10.41v.14c0,5.85,3.78,10.55,9.69,10.55,3.64,0,6.14-1.57,8.77-4.06l6.35,6.41c-3.71,4.07-8,7-15.61,7A19.51,19.51,0,0,1,574.28,279.46Z"/><path class="cls-2" d="M614.56,287.38v-.15c0-8.34,6.34-12.19,15.4-12.19a27.08,27.08,0,0,1,9.34,1.57V276c0-4.49-2.78-7-8.2-7a28.13,28.13,0,0,0-10.55,2.07l-2.71-8.27a33.75,33.75,0,0,1,14.83-3.06c5.91,0,10.19,1.56,12.9,4.27s4.13,7.06,4.13,12.19v22.17H639.22v-4.13a14.68,14.68,0,0,1-11.54,4.85C620.48,299.07,614.56,294.93,614.56,287.38Zm24.88-2.5V283a16.77,16.77,0,0,0-6.92-1.43c-4.63,0-7.48,1.85-7.48,5.28V287c0,2.92,2.42,4.63,5.91,4.63C636,291.58,639.44,288.8,639.44,284.88Z"/><path class="cls-2" d="M659.05,260.14h10.83v5.42c2.5-3.21,5.7-6.13,11.19-6.13,8.2,0,13,5.42,13,14.19v24.73H683.21V277c0-5.13-2.42-7.77-6.56-7.77s-6.77,2.64-6.77,7.77v21.31H659.05Z"/><path class="cls-2" d="M701.61,279.46v-.14c0-11,8.84-19.89,20.74-19.89S743,268.2,743,279.18v.14c0,11-8.84,19.89-20.75,19.89S701.61,290.44,701.61,279.46Zm30.65,0v-.14c0-5.63-4.06-10.55-10-10.55-6.2,0-9.91,4.78-9.91,10.41v.14c0,5.63,4.07,10.55,10.05,10.55C728.56,289.87,732.26,285.09,732.26,279.46Z"/><path class="cls-2" d="M86.73,304c-1.63-1.32-1.79-1.94-1-3.92,1-2.4,2-4.81,3-7.21.69-1.62,1.83-2.23,3.08-1.7s1.67,1.81,1.06,3.37-1.33,3.25-2.06,5c4.91,0,9.63,0,14.34,0A1.12,1.12,0,0,0,106,299q3.72-8.89,7.36-17.84a1.76,1.76,0,0,0,0-.43H103.21c-1.52,0-3.4-.46-4.46.25s-1.32,2.64-1.93,4a7.71,7.71,0,0,1-.65,1.32,2,2,0,0,1-2.48.77,2,2,0,0,1-1.44-2.3,6.7,6.7,0,0,1,.53-1.68q7-17,14.06-34c.82-2,1.27-2.31,3.42-2.31h20.66c-.58-.84-1-1.47-1.44-2.09-6.24-8.86-11.36-18.28-14.22-28.8-3.53-13-2.87-25.66,3.56-37.64,6.59-12.26,16.69-20.38,30.2-23.92a47.49,47.49,0,0,1,54.77,25.5c5.78,12,6.1,24.42,2.48,37.06-2.89,10.09-7.87,19.14-13.85,27.69l-1.51,2.2h20.65c2.14,0,2.58.3,3.42,2.32q10.44,25.24,20.89,50.5a8.66,8.66,0,0,0,.69,1.22V304Zm74.13-32c.77-.65,1.42-1.18,2-1.73a169.82,169.82,0,0,0,18.63-18.92c8.9-10.66,16.37-22.14,20.35-35.6C204.19,208,205,200,203.25,192a42.69,42.69,0,0,0-21.31-29.23,42.92,42.92,0,0,0-53.71,9.53c-8,9.41-11.4,20.42-10.4,32.69a62.22,62.22,0,0,0,6.58,22.35C133.05,245,146.09,259.1,160.86,272Zm60.51,4.26c-1-2.4-1.86-4.58-2.83-6.71-.13-.3-.78-.52-1.19-.53-2.36,0-4.72,0-7.09,0-1.87,0-3.74,0-5.6-.1a2,2,0,0,1-2-2,2.08,2.08,0,0,1,1.71-2.27,7.2,7.2,0,0,1,1.61-.13c3.43,0,6.86,0,10.48,0-1.78-4.31-3.46-8.44-5.23-12.54a1.85,1.85,0,0,0-1.42-.63c-7.09,0-14.18-.05-21.27,0a2.79,2.79,0,0,0-1.85.84c-3.32,3.63-6.57,7.33-9.83,11-.31.35-.61.71-1.11,1.31h19.14c2.22,0,3.3.75,3.3,2.27s-1,2.24-3.29,2.26h-1.19c-7,0-14.08,0-21.12,0a3.7,3.7,0,0,0-2.77,1c-2.19,2.05-4.47,4-6.76,5.95-1.87,1.6-2.49,1.59-4.34.06A163.8,163.8,0,0,1,136,253.12a4.46,4.46,0,0,0-4.23-1.89,1.59,1.59,0,0,0-1.62,1.12c-1.93,4.78-3.92,9.54-5.89,14.3-.87,2.09-1.23,2.34-3.54,2.35-5.32,0-10.64,0-16,0-.46,0-1.23,0-1.35.29-1,2.23-1.93,4.52-2.94,7h1.93c4.73,0,9.45,0,14.18,0,2,0,2.94,1.34,2.35,3.25-.11.37-.29.72-.44,1.09q-3.57,8.64-7.15,17.29c-.21.52-.37,1.06-.59,1.69,2.24,0,4.31-.1,6.37,0a2.13,2.13,0,0,0,2.45-1.62c4.8-11.78,9.67-23.53,14.52-35.29,1.18-2.86,2.54-3.18,4.87-1.2q21.87,18.63,43.78,37.21a3.85,3.85,0,0,0,2.22.82c3.39.09,6.79.05,10.19,0,.35,0,.71-.07,1.25-.13-.49-.45-.8-.76-1.13-1l-19.8-17.3c-1-.9-2.29-1.72-1.63-3.42s2-1.43,3.37-1.43h44.18ZM123.74,299.5h52.91l-39.16-33.31C132.86,277.42,128.33,288.38,123.74,299.5Zm107.2.09c-.22-.59-.37-1-.56-1.5-2.2-5.36-4.44-10.7-6.59-16.08a1.84,1.84,0,0,0-2-1.34c-12.71.05-25.42,0-38.12,0h-1.55a4.27,4.27,0,0,0,.38.55c6.78,5.93,13.55,11.88,20.37,17.78a3.05,3.05,0,0,0,1.87.54c7.44,0,14.88,0,22.31,0ZM125.75,251.27c-5,0-9.57,0-14.19,0a1.82,1.82,0,0,0-1.18,1c-.8,1.73-1.49,3.52-2.22,5.29-.93,2.25-1.85,4.5-2.84,6.89h11.27c3.7,0,3.7,0,5.13-3.47Z"/><path class="cls-2" d="M160.85,221.23a20.39,20.39,0,0,1-18.28-29.32c.74-1.53,2-2.11,3.18-1.52s1.57,1.85.89,3.31A16,16,0,0,0,164,216.56c6.35-1.1,11.78-6.89,12.64-13.53a15.3,15.3,0,0,0-7.1-15.61c-5.37-3.58-11.1-3.5-16.75-.35-.25.14-.49.32-.76.45-1.36.71-2.56.47-3.23-.62s-.33-2.38,1-3.26a20.48,20.48,0,1,1,13.57,37.58A20.84,20.84,0,0,1,160.85,221.23Z"/></svg>