<svg id="Layer_1" data-name="Layer 1" xmlns="http://www.w3.org/2000/svg" viewBox="0 0 868.9 456.42"><defs><style>.cls-1{fill:#9c213d;}.cls-2{fill:#fff;}</style></defs><title>BANNER PREINSCRIPCIÓN</title><rect class="cls-1" width="868.9" height="456.42"/><path class="cls-2" d="M117.61,313.33h24.23c14.16,0,22.72,8.39,22.72,20.51V334c0,13.73-10.68,20.85-24,20.85h-9.91v17.8h-13ZM141,343.25c6.52,0,10.34-3.9,10.34-9v-.17c0-5.85-4.07-9-10.6-9H130.66v18.13Z"/><path class="cls-2" d="M172.87,327.23h12.88v9.16c2.62-6.27,6.86-10.34,14.49-10v13.47h-.68c-8.56,0-13.81,5.17-13.81,16v16.78H172.87Z"/><path class="cls-2" d="M204.82,350.2V350c0-13,9.23-23.64,22.46-23.64,15.16,0,22.11,11.78,22.11,24.66,0,1-.08,2.2-.17,3.39H217.61c1.28,5.85,5.34,8.9,11.11,8.9,4.32,0,7.45-1.36,11-4.67l7.38,6.53c-4.24,5.26-10.34,8.47-18.56,8.47C214.9,373.67,204.82,364.1,204.82,350.2Zm32-3.81c-.76-5.77-4.15-9.66-9.57-9.66s-8.82,3.81-9.84,9.66Z"/><path class="cls-2" d="M257.45,340.2h26.1v12.37h-26.1Z"/><path class="cls-2" d="M293.81,310.79h13.56v11.44H293.81Zm.34,16.44H307v45.43H294.15Z"/><path class="cls-2" d="M319.15,327.23H332v6.44c3-3.81,6.78-7.28,13.3-7.28,9.75,0,15.43,6.44,15.43,16.86v29.41H347.88V347.32c0-6.1-2.89-9.24-7.8-9.24s-8.05,3.14-8.05,9.24v25.34H319.15Z"/><path class="cls-2" d="M368.39,366.64l5.51-8.47c4.91,3.56,10.08,5.42,14.32,5.42,3.73,0,5.42-1.36,5.42-3.39V360c0-2.8-4.41-3.73-9.41-5.25-6.35-1.87-13.55-4.83-13.55-13.65V341c0-9.23,7.45-14.4,16.61-14.4a31.41,31.41,0,0,1,16.95,5.25l-4.92,8.9c-4.49-2.63-9-4.24-12.29-4.24-3.13,0-4.74,1.36-4.74,3.14v.17c0,2.54,4.32,3.72,9.23,5.42,6.36,2.12,13.73,5.17,13.73,13.47v.17c0,10.09-7.54,14.67-17.37,14.67A31.77,31.77,0,0,1,368.39,366.64Z"/><path class="cls-2" d="M412.29,350.2V350a23.31,23.31,0,0,1,23.81-23.64c8.56,0,13.9,2.88,18.14,7.62l-7.88,8.48c-2.88-3.05-5.77-5-10.34-5-6.44,0-11,5.68-11,12.37V350c0,7,4.49,12.54,11.53,12.54,4.32,0,7.28-1.86,10.42-4.83l7.54,7.63c-4.4,4.83-9.49,8.3-18.56,8.3A23.19,23.19,0,0,1,412.29,350.2Z"/><path class="cls-2" d="M462.89,327.23h12.88v9.16c2.62-6.27,6.86-10.34,14.49-10v13.47h-.68c-8.56,0-13.81,5.17-13.81,16v16.78H462.89Z"/><path class="cls-2" d="M498.57,310.79h13.56v11.44H498.57Zm.34,16.44h12.88v45.43H498.91Z"/><path class="cls-2" d="M523.91,327.23h12.88v6.53c3.14-4.24,7.46-7.37,14.15-7.37,10.6,0,20.68,8.3,20.68,23.47V350c0,15.17-9.92,23.48-20.68,23.48a17.46,17.46,0,0,1-14.15-6.78v19.49H523.91ZM558.74,350v-.17c0-7.54-5.09-12.54-11.1-12.54s-11,5-11,12.54V350c0,7.54,5,12.54,11,12.54S558.74,357.66,558.74,350Z"/><path class="cls-2" d="M578.91,350.2V350a23.32,23.32,0,0,1,23.82-23.64c8.55,0,13.89,2.88,18.13,7.62L613,342.49c-2.88-3.05-5.76-5-10.34-5-6.44,0-11,5.68-11,12.37V350c0,7,4.5,12.54,11.53,12.54,4.32,0,7.29-1.86,10.42-4.83l7.55,7.63c-4.41,4.83-9.5,8.3-18.56,8.3A23.19,23.19,0,0,1,578.91,350.2Z"/><path class="cls-2" d="M629.76,310.79h13.56v11.44H629.76Zm.34,16.44H643v45.43H630.1Z"/><path class="cls-2" d="M652.9,350.2V350c0-13,10.51-23.64,24.66-23.64s24.49,10.42,24.49,23.47V350c0,13.05-10.51,23.64-24.66,23.64S652.9,363.25,652.9,350.2Zm36.44,0V350c0-6.69-4.83-12.54-12-12.54-7.37,0-11.78,5.68-11.78,12.37V350c0,6.7,4.83,12.54,11.95,12.54C684.93,362.57,689.34,356.9,689.34,350.2Zm-7.2-43,11.1,4.83-10.85,10.17h-9.83Z"/><path class="cls-2" d="M711.38,327.23h12.88v6.44c3-3.81,6.78-7.28,13.31-7.28,9.74,0,15.42,6.44,15.42,16.86v29.41H740.11V347.32c0-6.1-2.88-9.24-7.8-9.24s-8,3.14-8,9.24v25.34H711.38Z"/><path class="cls-2" d="M450.76,212.55a77.09,77.09,0,0,0,3.18,7.29c3.25,5.75,8,10.24,12.91,14.52.46.4,1.14.73,1.32,1.24a4.64,4.64,0,0,1,.4,2.89c-.32.77-1.48,1.24-2.33,1.72-.33.18-.85,0-1.28,0H408a2.71,2.71,0,0,1-2.86-1.87,2.82,2.82,0,0,1,1-3.27c3.36-3.06,6.86-6,10-9.27a36.08,36.08,0,0,0,5-7.21c1-1.71,1.34-3.75,2.13-6.08H368.84c-7.35,0-11.54-4.16-11.55-11.52,0-25.67.08-51.33-.05-77,0-7.56,5.76-11.86,11.38-11.32,2.07.2,4.17,0,6.26,0h1.86v-34c0-3.39.87-4.26,4.26-4.26H487.85c3.51,0,4.35.84,4.35,4.35q0,15.75,0,31.51v2.38H501c6,0,10.22,3.94,10.64,9.91,0,.61,0,1.23,0,1.84,0,25.42,0,50.85,0,76.27a14.93,14.93,0,0,1-1.16,6.05c-1.86,4-5.34,5.73-9.7,5.74h-50Zm35.58-19.79V80.39H382.64V192.76Zm-123.21,6.18c-.67,4.64.22,7.93,6.69,7.91,43.16-.14,86.32-.08,129.48-.08.8,0,1.6,0,2.39,0a4,4,0,0,0,3.86-2.9,27.32,27.32,0,0,0,.54-4.9ZM363,193h13.65V118.59a2.55,2.55,0,0,0-.62-.19c-2.33,0-4.67,0-7,0-4.43,0-6,1.6-6,6V193Zm143,0V123.85a7.91,7.91,0,0,0,0-1.29c-.31-1.9-1.27-3.66-3.18-3.84-3.44-.3-6.92-.08-10.41-.08V193Zm-77.25,19.61c-1,9.27-7,15.39-13,21.79h42.78c-5.88-6.56-11.66-12.86-13.23-21.79Z"/><path class="cls-2" d="M436.93,246.17h37.19a8.58,8.58,0,0,1,1.83.06,2.67,2.67,0,0,1,2.36,2.65,2.56,2.56,0,0,1-2.07,2.85,9.74,9.74,0,0,1-2.36.19H399.7c-3,0-4.43-.92-4.41-2.92s1.38-2.84,4.46-2.84Z"/><path class="cls-2" d="M387.34,246.17c2.85,0,4.28.94,4.32,2.82s-1.47,2.95-4.4,2.95-4.39-.91-4.36-2.94S384.21,246.17,387.34,246.17Z"/><path class="cls-2" d="M486.46,246.17c2.87,0,4.28.92,4.33,2.81s-1.46,3-4.38,3S482,251,482,249,483.35,246.17,486.46,246.17Z"/><path class="cls-2" d="M417.11,125.15c7.64-8,19.91-9.4,29.45,0,.92-1.74,1.86-3.35,2.65-5,1-2,2.36-2.81,4-2.08s2,2.21,1.24,4.24a24.33,24.33,0,1,1-22.05-33.07,23.84,23.84,0,0,1,18,8.72c1.61,1.88,1.68,3.44.25,4.68s-2.93.89-4.57-1c-4.93-5.61-11.11-7.8-18.36-6.23a17.69,17.69,0,0,0-13.67,12.35C412,114,413.19,119.72,417.11,125.15Zm25.37,3.62c-5.91-7.21-16.86-6.18-21.3,0C426.83,133.39,436,133.42,442.48,128.77Z"/><path class="cls-2" d="M434.66,150.34q17,0,34.08,0c.78,0,1.79-.06,2.28.38.75.65,1.65,1.78,1.56,2.59s-1.14,1.86-2,2.51c-.49.38-1.41.26-2.14.26h-68c-.31,0-.62,0-.92,0-2-.12-3.37-1.31-3.34-3s1.37-2.79,3.44-2.79Z"/><path class="cls-2" d="M434.66,163.23H450.5c2.32,0,3.54,1,3.56,2.78s-1.15,2.88-3.47,2.88q-16.12,0-32.24,0c-2.32,0-3.49-1-3.46-2.89s1.24-2.76,3.56-2.77Z"/><path class="cls-2" d="M431.9,98.39a8.21,8.21,0,0,1,8,8.2c-.09,4.81-3.95,9.09-8.17,9.07s-8.09-4.43-8-9.33A8,8,0,0,1,431.9,98.39Zm-3,8.14c0,1.9,1.48,4,2.87,4s2.95-2.12,3-4a3.06,3.06,0,0,0-3-3.06A2.92,2.92,0,0,0,428.87,106.53Z"/><path class="cls-2" d="M450.2,108.34c2-2.42,3.89-4.74,5.81-7,1.46-1.75,3-2.1,4.43-1s1.38,2.9-.07,4.69c-2.32,2.85-4.64,5.69-7,8.52-1.88,2.26-3.09,2.34-5.4.42-1.28-1-2.59-2.06-3.83-3.15a2.76,2.76,0,0,1-.5-4.06,2.87,2.87,0,0,1,4.1-.32C448.54,106.94,449.28,107.59,450.2,108.34Z"/><path class="cls-2" d="M434.62,180.9c-1.78,0-3.56,0-5.34,0s-3.2-1.15-3.21-2.79a2.84,2.84,0,0,1,3-2.81c3.61-.05,7.23-.06,10.85,0a2.8,2.8,0,0,1,2.94,2.87,2.87,2.87,0,0,1-3.1,2.71C438.06,180.92,436.34,180.9,434.62,180.9Z"/></svg>