<svg id="Layer_1" data-name="Layer 1" xmlns="http://www.w3.org/2000/svg" viewBox="0 0 38.96 38.97"><defs><style>.cls-1{fill:#9c213d;}</style></defs><title>CHECK ICONO</title><path class="cls-1" d="M39,18.19v2.59a2,2,0,0,0-.08.33,17.38,17.38,0,0,1-.75,4,19.19,19.19,0,0,1-6.24,9.38,18.8,18.8,0,0,1-9,4.19c-.7.12-1.4.21-2.1.31H18.18l-.33-.08c-.7-.09-1.41-.15-2.1-.29a18.76,18.76,0,0,1-9.84-5.17A18.93,18.93,0,0,1,.19,16.83,18.63,18.63,0,0,1,7.41,4.23,18.92,18.92,0,0,1,23.2.37a18.81,18.81,0,0,1,10,5.27,19.09,19.09,0,0,1,5.5,10.45C38.77,16.79,38.86,17.49,39,18.19ZM19.47,2.29a17.2,17.2,0,1,0,17.2,17.2A17.24,17.24,0,0,0,19.47,2.29Z"/><path class="cls-1" d="M17.12,29.89,7.06,19.82,11.85,15l5.45,5.44,11-10,4.62,5.07Zm11-16.18L17.22,23.63l-5.34-5.35-1.53,1.53,6.88,6.88,12.43-11.3Z"/></svg>