<svg id="Layer_1" data-name="Layer 1" xmlns="http://www.w3.org/2000/svg" viewBox="0 0 43 47.91"><defs><style>.cls-1{fill:#9c213d;}</style></defs><title>ICONO TELÉFONO 2</title><path class="cls-1" d="M34,28.73a5.43,5.43,0,0,0-7.62-.93l-2.05,1.6-7.29-9.34,2.05-1.6A5.44,5.44,0,0,0,20,10.84L11.56,0,5.91,4.42A15.37,15.37,0,0,0,3.26,26L15.78,42a15.38,15.38,0,0,0,21.57,2.65L43,40.24Zm.08,11.76a10.07,10.07,0,0,1-14.15-1.73l-12.52-16A10.09,10.09,0,0,1,9.16,8.58l1.49-1.16,5.22,6.67a.14.14,0,0,1,0,.11.17.17,0,0,1-.05.1L9.63,19.15l13.8,17.66L29.65,32a.12.12,0,0,1,.1,0,.17.17,0,0,1,.1.05l5.74,7.35Z"/></svg>