<svg id="Layer_1" data-name="Layer 1" xmlns="http://www.w3.org/2000/svg" viewBox="0 0 35.82 46.16"><defs><style>.cls-1{fill:#9c213d;}</style></defs><title>ICONO UBICACIÓN</title><path class="cls-1" d="M35.82,17.57A17.74,17.74,0,0,0,17.91,0,17.74,17.74,0,0,0,0,17.57a17.28,17.28,0,0,0,4.57,11.7L18,46.16,31.73,28.74h0A17.3,17.3,0,0,0,35.82,17.57Zm-7.11,6.91c-.14.21-.28.41-.43.6l-.06.09L17.9,37.88l-9.73-12,0-.05A12.46,12.46,0,0,1,5,17.57,12.8,12.8,0,0,1,17.91,4.91a12.79,12.79,0,0,1,12.9,12.66A12.38,12.38,0,0,1,28.71,24.48Z"/><path class="cls-1" d="M17.8,9.77a7.67,7.67,0,1,0,7.67,7.67A7.68,7.68,0,0,0,17.8,9.77ZM17.8,20a2.57,2.57,0,1,1,2.57-2.56A2.56,2.56,0,0,1,17.8,20Z"/></svg>