<svg id="Layer_1" data-name="Layer 1" xmlns="http://www.w3.org/2000/svg" viewBox="0 0 24.21 26.97"><defs><style>.cls-1{fill:#bc955c;}</style></defs><title>ICONO TELÉFONO</title><path class="cls-1" d="M15.71,27a8.63,8.63,0,0,1-6.83-3.32l-7-9A8.65,8.65,0,0,1,3.33,2.49L6.51,0l4.77,6.1a3.06,3.06,0,0,1,.62,2.26,3,3,0,0,1-1.15,2l-1.15.9,4.1,5.26,1.16-.9a3.05,3.05,0,0,1,4.28.52l5.07,6.48L21,25.14A8.62,8.62,0,0,1,15.71,27M6,4.17l-.84.66a5.68,5.68,0,0,0-1,8l7,9a5.69,5.69,0,0,0,8,1l.84-.65L16.8,18a.08.08,0,0,0-.11,0l-3.5,2.73L5.42,10.78l3.5-2.73A.07.07,0,0,0,9,8a.08.08,0,0,0,0-.06Z"/></svg>