<svg id="Layer_1" data-name="Layer 1" xmlns="http://www.w3.org/2000/svg" viewBox="0 0 47.45 47.46"><defs><style>.cls-1{fill:#9c213d;}</style></defs><title>ICONO SERVICIOS</title><path class="cls-1" d="M23.72,46.23a5.23,5.23,0,0,1-3.6,1.23c-5.05,0-10.11,0-15.17,0a4.72,4.72,0,0,1-4.95-5V27.06a4.73,4.73,0,0,1,4.91-4.92H11.3a20.91,20.91,0,0,1-.22-5c0-4.08,0-8.17,0-12.25A4.72,4.72,0,0,1,16,0H31.51a4.72,4.72,0,0,1,4.86,4.87q0,7.77,0,15.56c0,.55-.12,1.11-.18,1.71h6.46a4.72,4.72,0,0,1,4.79,4.79q0,7.88,0,15.76a4.7,4.7,0,0,1-4.77,4.75H26.91A4.89,4.89,0,0,1,23.72,46.23ZM25.3,25.3V42.36c0,1.33.6,1.92,1.94,1.92H42.36c1.33,0,1.92-.59,1.92-1.92V27.23c0-1.33-.59-1.93-1.92-1.93H25.3Zm7.91-12.6V5a1.65,1.65,0,0,0-1.88-1.88H16.11A1.66,1.66,0,0,0,14.23,5V20.26a1.66,1.66,0,0,0,1.88,1.88H31.33a1.65,1.65,0,0,0,1.88-1.88ZM22.14,25.3h-17c-1.33,0-1.93.6-1.93,1.93V42.35c0,1.33.6,1.93,1.93,1.93H20.21c1.34,0,1.93-.59,1.93-1.92V25.3Z"/><path class="cls-1" d="M28.83,34.8a6.55,6.55,0,0,1,4.05-6.12A6.4,6.4,0,0,1,40,29.83a1.63,1.63,0,0,1,.61,1.85A1.57,1.57,0,0,1,38,32.3a3.53,3.53,0,0,0-6,2.76,3.54,3.54,0,0,0,3.73,3.24,3.49,3.49,0,0,0,2.18-.94,1.6,1.6,0,0,1,2.37,0,1.62,1.62,0,0,1-.23,2.4,6.4,6.4,0,0,1-7.2,1.2A6.52,6.52,0,0,1,28.83,34.8Z"/><path class="cls-1" d="M23.77,6a1.5,1.5,0,0,1,1.38.82C27,10.23,28.86,13.6,30.7,17a1.59,1.59,0,0,1-.63,2.17,1.56,1.56,0,0,1-2.16-.66c-.37-.64-.73-1.29-1.07-1.95a.54.54,0,0,0-.56-.34c-1.7,0-3.4,0-5.09,0a.59.59,0,0,0-.61.37c-.31.63-.66,1.25-1,1.86a1.59,1.59,0,1,1-2.78-1.52c1.81-3.33,3.64-6.66,5.46-10A1.61,1.61,0,0,1,23.77,6Zm-1.23,7H24.9l-1.18-2.15Z"/><path class="cls-1" d="M7.64,34.74V30a1.66,1.66,0,0,1,1.9-1.91,29.45,29.45,0,0,1,3.64.1,3.84,3.84,0,0,1,3,5.12.67.67,0,0,0,.18.8,4.11,4.11,0,0,1,.92,4.64,4.17,4.17,0,0,1-3.92,2.74c-1.37.06-2.74,0-4.1,0a1.64,1.64,0,0,1-1.65-1.77C7.63,38.07,7.64,36.4,7.64,34.74Zm3.23,3.53c.9,0,1.79,0,2.67,0a1.08,1.08,0,0,0,.91-1.12A1.06,1.06,0,0,0,13.56,36c-.89-.06-1.79,0-2.69,0Zm0-5.51c.61,0,1.17,0,1.73,0a.65.65,0,0,0,.65-.72.66.66,0,0,0-.65-.73c-.57,0-1.14,0-1.73,0Z"/></svg>