<svg id="Layer_1" data-name="Layer 1" xmlns="http://www.w3.org/2000/svg" viewBox="0 0 339.97 44.91"><defs><style>.cls-1{fill:#9c213d;}.cls-2{fill:#bc955c;}</style></defs><title>LOGO GOBIENO SAF</title><path class="cls-1" d="M201.18,19.52l.77-.91a2.75,2.75,0,0,0,1.77.71c.53,0,.85-.21.85-.55v0c0-.32-.2-.49-1.19-.74-1.2-.3-2-.62-2-1.78h0a1.85,1.85,0,0,1,2.08-1.76,3.49,3.49,0,0,1,2.2.74l-.68,1a2.79,2.79,0,0,0-1.54-.58c-.5,0-.76.23-.76.51v0c0,.38.25.5,1.28.76,1.2.31,1.88.73,1.88,1.75h0c0,1.16-.9,1.81-2.18,1.81a3.81,3.81,0,0,1-2.51-.93"/><polygon class="cls-1" points="207.13 14.55 211.61 14.55 211.61 15.69 208.43 15.69 208.43 16.87 211.22 16.87 211.22 18 208.43 18 208.43 19.23 211.65 19.23 211.65 20.37 207.13 20.37 207.13 14.55"/><path class="cls-1" d="M212.61,17.47h0a3,3,0,0,1,3.09-3,3.09,3.09,0,0,1,2.34.89l-.83.94a2.25,2.25,0,0,0-1.52-.65A1.73,1.73,0,0,0,214,17.44v0a1.75,1.75,0,0,0,1.72,1.83,2.16,2.16,0,0,0,1.56-.69l.83.83a3.06,3.06,0,0,1-2.43,1,3,3,0,0,1-3-3"/><path class="cls-1" d="M221.79,17.37c.63,0,1-.33,1-.82v0c0-.55-.38-.83-1-.83h-1.3v1.67Zm-2.63-2.82h2.71a2.37,2.37,0,0,1,1.73.59,1.8,1.8,0,0,1,.51,1.33h0a1.83,1.83,0,0,1-1.27,1.81l1.44,2.08h-1.52l-1.27-1.87h-1v1.87h-1.3Z"/><polygon class="cls-1" points="225.42 14.55 229.9 14.55 229.9 15.69 226.72 15.69 226.72 16.87 229.52 16.87 229.52 18 226.72 18 226.72 19.23 229.94 19.23 229.94 20.37 225.42 20.37 225.42 14.55"/><polygon class="cls-1" points="232.6 15.73 230.8 15.73 230.8 14.55 235.71 14.55 235.71 15.73 233.91 15.73 233.91 20.37 232.6 20.37 232.6 15.73"/><path class="cls-1" d="M239.47,17.93,238.69,16l-.79,1.89ZM238.1,14.5h1.2l2.55,5.87h-1.37l-.54-1.31h-2.51l-.54,1.31h-1.33Z"/><path class="cls-1" d="M245.44,17.37c.64,0,1-.33,1-.82v0c0-.55-.39-.83-1-.83h-1.3v1.67Zm-2.62-2.82h2.71a2.37,2.37,0,0,1,1.73.59,1.8,1.8,0,0,1,.5,1.33h0a1.81,1.81,0,0,1-1.27,1.81l1.45,2.08h-1.52l-1.27-1.87h-1v1.87h-1.3Z"/><path class="cls-1" d="M250.18,12.62l1.11.47-1.08,1h-1Zm-1.07,1.93h1.31v5.82h-1.31Z"/><path class="cls-1" d="M255.31,17.93,254.53,16l-.79,1.89Zm-1.37-3.43h1.21l2.54,5.87h-1.37l-.54-1.31h-2.51l-.54,1.31H251.4Z"/><path class="cls-1" d="M263.55,19.21a1.67,1.67,0,0,0,1.78-1.74h0a1.69,1.69,0,0,0-1.78-1.76h-1v3.51Zm-2.32-4.66h2.32a2.93,2.93,0,0,1,3.15,2.89v0a3,3,0,0,1-3.15,2.91h-2.32Z"/><polygon class="cls-1" points="267.96 14.55 272.43 14.55 272.43 15.69 269.26 15.69 269.26 16.87 272.05 16.87 272.05 18 269.26 18 269.26 19.23 272.48 19.23 272.48 20.37 267.96 20.37 267.96 14.55"/><path class="cls-1" d="M205.09,27.81l-.79-1.88-.78,1.88Zm-1.37-3.42h1.2l2.54,5.86H206.1l-.54-1.31h-2.51l-.54,1.31h-1.33Z"/><path class="cls-1" d="M210.75,29.09a1.67,1.67,0,0,0,1.79-1.73v0a1.69,1.69,0,0,0-1.79-1.75h-1v3.5Zm-2.32-4.66h2.32a2.93,2.93,0,0,1,3.15,2.89v0a2.94,2.94,0,0,1-3.15,2.91h-2.32Z"/><polygon class="cls-1" points="215.16 24.43 216.57 24.43 218.13 26.89 219.69 24.43 221.09 24.43 221.09 30.25 219.8 30.25 219.8 26.45 218.13 28.94 218.09 28.94 216.44 26.48 216.44 30.25 215.16 30.25 215.16 24.43"/><rect class="cls-1" x="222.7" y="24.43" width="1.31" height="5.82"/><polygon class="cls-1" points="225.6 24.43 226.8 24.43 229.58 28.01 229.58 24.43 230.87 24.43 230.87 30.25 229.76 30.25 226.88 26.55 226.88 30.25 225.6 30.25 225.6 24.43"/><rect class="cls-1" x="232.47" y="24.43" width="1.3" height="5.82"/><path class="cls-1" d="M234.94,29.4l.77-.9a2.74,2.74,0,0,0,1.77.7c.53,0,.85-.21.85-.55h0c0-.33-.2-.49-1.19-.74-1.2-.3-2-.63-2-1.78v0a1.84,1.84,0,0,1,2.08-1.75,3.44,3.44,0,0,1,2.2.74l-.68,1a2.77,2.77,0,0,0-1.54-.57c-.5,0-.76.22-.76.5v0c0,.38.25.51,1.28.77,1.2.3,1.88.73,1.88,1.74v0c0,1.15-.9,1.8-2.18,1.8a3.76,3.76,0,0,1-2.51-.93"/><polygon class="cls-1" points="242.21 25.61 240.41 25.61 240.41 24.43 245.32 24.43 245.32 25.61 243.51 25.61 243.51 30.25 242.21 30.25 242.21 25.61"/><path class="cls-1" d="M249,27.26c.63,0,1-.34,1-.83h0c0-.55-.38-.83-1-.83h-1.3v1.67Zm-2.63-2.83H249a2.41,2.41,0,0,1,1.73.59,1.8,1.8,0,0,1,.51,1.33v0a1.8,1.8,0,0,1-1.27,1.8l1.44,2.08h-1.52l-1.27-1.86h-1v1.86h-1.3Z"/><path class="cls-1" d="M256.12,27.81l-.79-1.88-.78,1.88Zm-1.37-3.42H256l2.54,5.86h-1.36l-.54-1.31h-2.51l-.54,1.31h-1.33Z"/><path class="cls-1" d="M258.88,27.36v0a3,3,0,0,1,3.09-3,3.1,3.1,0,0,1,2.34.9l-.83.94a2.18,2.18,0,0,0-1.51-.66,1.74,1.74,0,0,0-1.72,1.81v0A1.74,1.74,0,0,0,262,29.17a2.19,2.19,0,0,0,1.56-.68l.83.82a3.07,3.07,0,0,1-2.44,1,3,3,0,0,1-3-3"/><rect class="cls-1" x="265.46" y="24.43" width="1.31" height="5.82"/><path class="cls-1" d="M271.7,22.5l1.11.47-1.08,1h-1ZM273,27.36v0a1.78,1.78,0,0,0-1.79-1.83,1.75,1.75,0,0,0-1.78,1.81v0a1.78,1.78,0,0,0,1.79,1.83A1.76,1.76,0,0,0,273,27.36Zm-4.94,0v0a3.15,3.15,0,0,1,6.3,0v0a3.15,3.15,0,0,1-6.3,0Z"/><polygon class="cls-1" points="275.62 24.43 276.82 24.43 279.6 28.01 279.6 24.43 280.89 24.43 280.89 30.25 279.78 30.25 276.91 26.55 276.91 30.25 275.62 30.25 275.62 24.43"/><polygon class="cls-1" points="286.89 28.05 284.61 24.53 286.14 24.53 287.55 26.87 288.99 24.53 290.47 24.53 288.19 28.03 288.19 30.35 286.89 30.35 286.89 28.05"/><polygon class="cls-1" points="293.92 24.53 298.43 24.53 298.43 25.69 295.22 25.69 295.22 26.93 298.05 26.93 298.05 28.1 295.22 28.1 295.22 30.35 293.92 30.35 293.92 24.53"/><rect class="cls-1" x="299.6" y="24.53" width="1.31" height="5.82"/><polygon class="cls-1" points="302.5 24.53 303.7 24.53 306.48 28.11 306.48 24.53 307.77 24.53 307.77 30.35 306.66 30.35 303.79 26.65 303.79 30.35 302.5 30.35 302.5 24.53"/><path class="cls-1" d="M312.65,27.91,311.86,26l-.79,1.88Zm-1.38-3.42h1.21L315,30.35h-1.36L313.11,29h-2.5l-.55,1.31h-1.33Z"/><polygon class="cls-1" points="315.99 24.53 317.19 24.53 319.97 28.11 319.97 24.53 321.26 24.53 321.26 30.35 320.15 30.35 317.28 26.65 317.28 30.35 315.99 30.35 315.99 24.53"/><polygon class="cls-1" points="322.56 29.38 325.82 25.65 322.66 25.65 322.66 24.53 327.5 24.53 327.5 25.5 324.24 29.23 327.5 29.23 327.5 30.35 322.56 30.35 322.56 29.38"/><path class="cls-1" d="M332.29,27.91,331.5,26l-.79,1.88Zm-1.37-3.42h1.2l2.54,5.86H333.3L332.75,29h-2.5l-.55,1.31h-1.33Z"/><path class="cls-1" d="M335.27,29.5l.77-.9a2.78,2.78,0,0,0,1.77.7c.54,0,.86-.21.86-.55h0c0-.33-.2-.49-1.19-.74-1.2-.3-2-.63-2-1.78v0c0-1.06.86-1.75,2.08-1.75a3.44,3.44,0,0,1,2.2.74l-.68,1a2.77,2.77,0,0,0-1.54-.57c-.5,0-.76.22-.76.5v0c0,.38.25.51,1.27.77,1.21.3,1.89.73,1.89,1.74v0c0,1.15-.9,1.8-2.18,1.8a3.78,3.78,0,0,1-2.52-.93"/><rect class="cls-1" x="191.94" y="5.87" width="0.5" height="33.16"/><path class="cls-1" d="M60.93,24.86a1.18,1.18,0,0,0,1,.53,1.34,1.34,0,0,0,1-.59L73.55,11.55a1.24,1.24,0,0,1,1.73-.18A1.21,1.21,0,0,1,75.49,13l-2.35,3v0a1.08,1.08,0,0,0-.33.79,1.1,1.1,0,0,0,.28.73h0l2.37,2.95,7.47-9.32-3-3.74-.55-.7a2.56,2.56,0,0,0-1.56-.84H73.35a2.47,2.47,0,0,0-1.83.8L59,22.45Z"/><path class="cls-1" d="M60.4,16.78l-3-3.78a1.23,1.23,0,0,1,.28-1.65,1.27,1.27,0,0,1,1.76.35l2.48,3.12,2.94-3.71L61.49,6.84a2.31,2.31,0,0,0-2-1H55.4a2.25,2.25,0,0,0-1.84.79L50,11.1l7.47,9.37Z"/><path class="cls-1" d="M72,20a1.24,1.24,0,0,0-1-.51,1.16,1.16,0,0,0-1,.46L59.33,33.36a1.29,1.29,0,0,1-1.79.18,1.19,1.19,0,0,1-.15-1.65l2.38-3h0a1.11,1.11,0,0,0,.33-.79,1.08,1.08,0,0,0-.28-.74h0l-2.37-2.95L50,33.81,54.14,39l6.56,0L73.91,22.44Z"/><path class="cls-1" d="M72.5,28.08l3,3.81a1.17,1.17,0,0,1-.18,1.65,1.29,1.29,0,0,1-1.87-.38L70.94,30,68,33.72,72.24,39l6.52,0,4.18-5.26-7.49-9.38Z"/><path class="cls-1" d="M82.88,24a1.58,1.58,0,1,1,1.59-1.58A1.59,1.59,0,0,1,82.88,24m0-4.51a2.94,2.94,0,1,0,3,2.93A3,3,0,0,0,82.88,19.53Z"/><path class="cls-1" d="M66.44,1.36a1.58,1.58,0,1,1-1.6,1.58,1.58,1.58,0,0,1,1.6-1.58m0,4.51a3,3,0,0,0,3-2.93,3,3,0,0,0-6.06,0A3,3,0,0,0,66.44,5.87Z"/><path class="cls-1" d="M48.36,22.45A1.59,1.59,0,1,1,50,24a1.59,1.59,0,0,1-1.59-1.58m4.62,0a3,3,0,1,0-3,2.94A3,3,0,0,0,53,22.45Z"/><path class="cls-1" d="M66.44,43.55A1.58,1.58,0,1,1,68,42a1.59,1.59,0,0,1-1.59,1.58m0-4.51a2.94,2.94,0,1,0,3,2.93A3,3,0,0,0,66.44,39Z"/><path class="cls-2" d="M34.81,2.92H0V25.7C0,38.2,17.4,42,17.4,42h0s17.4-3.77,17.4-16.27ZM34,3.75v22A11.75,11.75,0,0,1,31.43,33a19.29,19.29,0,0,1-5.71,4.79,34.1,34.1,0,0,1-8.31,3.33,33.53,33.53,0,0,1-8.28-3.31A19.31,19.31,0,0,1,3.39,33,11.69,11.69,0,0,1,.85,25.7V3.75Z"/><path class="cls-2" d="M21.62,10.21V8.12H19.43v2h-.86v-2H16.31v2h-.85v-2H13.23v2.09l1.09,1.84a.46.46,0,0,1,0,.21v9.58h1.06V18.4a1.86,1.86,0,0,1,2-1.55,1.86,1.86,0,0,1,2,1.55l0,3.44h1.08V15h0V12.26a.43.43,0,0,1,.06-.22Z"/><path class="cls-2" d="M13.53,22.06V18.89l-.39.23a.45.45,0,0,1-.46,0l-.47-.31v1.26a.4.4,0,0,1-.17.32.39.39,0,0,1,.14.08,1.51,1.51,0,0,1,.49,1.61Z"/><path class="cls-2" d="M17.4,17.69c-.66,0-1.12.46-1.12.71v3.44h2.24V18.4c0-.25-.46-.71-1.12-.71"/><path class="cls-2" d="M4.35,22.06a3.79,3.79,0,0,1-.27-1A7.5,7.5,0,0,1,4,19.8a.43.43,0,0,1,.3-.39l.94-.28-1.06-.74A.42.42,0,0,1,4,18.05V16.89a.44.44,0,0,1,.23-.38l.42-.21v-.39l-.38-.15A.43.43,0,0,1,4,15.37V14a.42.42,0,0,1,.42-.42H5.74a4.44,4.44,0,0,1,0-1.2A5.59,5.59,0,0,1,6.35,11l-.07-.49a.44.44,0,0,1,.1-.33A.43.43,0,0,1,6.71,10h.71a.39.39,0,0,1,.23.07l1.74,1.08h.8a.44.44,0,0,1,.31.13.43.43,0,0,1,.12.31L10.56,13a.47.47,0,0,1-.14.29H11a.44.44,0,0,1,.31.13l.24.24.19-.13.3-.64a.44.44,0,0,1,.39-.24h1.14v-.24l-1.09-1.83a.43.43,0,0,1-.06-.22V7.7a.42.42,0,0,1,.43-.42h9.25a.42.42,0,0,1,.43.42v2.62a.43.43,0,0,1-.06.22l-1.11,1.83v.24h1.12a.42.42,0,0,1,.39.24l.31.64.18.13.25-.24a.43.43,0,0,1,.3-.13h.53a.41.41,0,0,1-.13-.29l-.06-1.35a.39.39,0,0,1,.11-.31.46.46,0,0,1,.31-.13h.8l1.74-1.08A.39.39,0,0,1,27.4,10h.72a.41.41,0,0,1,.32.15.4.4,0,0,1,.1.33l-.07.49A4.89,4.89,0,0,1,29,12.34a4.46,4.46,0,0,1,.06,1.2h1.32a.42.42,0,0,1,.42.42v1.4a.42.42,0,0,1-.26.39l-.38.15v.39l.41.21a.44.44,0,0,1,.23.38v1.16a.42.42,0,0,1-.18.34l-1.06.74.94.28a.43.43,0,0,1,.3.39,8.11,8.11,0,0,1-.08,1.3,3.77,3.77,0,0,1-.28,1h1.58V5.82H2.8V22.06Z"/><path class="cls-2" d="M22.66,20.45a.46.46,0,0,1,.14-.07.42.42,0,0,1-.16-.33l0-1.22v0l-.47.31a.45.45,0,0,1-.46,0l-.37-.22v3.16h.85a1.51,1.51,0,0,1,.49-1.61"/><path class="cls-2" d="M28.35,30.74a.42.42,0,0,1-.43-.42V27.58a1,1,0,0,0-.32-.65,1.2,1.2,0,0,0-.88-.33,1.11,1.11,0,0,0-1.1,1v2.72a.42.42,0,0,1-.13.3.42.42,0,0,1-.3.12H22.65a.42.42,0,0,1-.43-.42V27.58a1,1,0,0,0-.32-.65A1.24,1.24,0,0,0,21,26.6a1,1,0,0,0-.74.29l2.09,10.47c2.94-1.28,6.43-3.37,8.31-6.62Z"/><path class="cls-2" d="M21.55,37.62,18.61,22.9H16.22L13.28,37.62a.14.14,0,0,1,0,.06,39.46,39.46,0,0,0,4.17,1.38,40.61,40.61,0,0,0,4.14-1.37.19.19,0,0,1,0-.07"/><path class="cls-2" d="M14.55,26.87a1.07,1.07,0,0,0-.72-.27h0a1.22,1.22,0,0,0-.85.33,1,1,0,0,0-.32.65v2.74a.43.43,0,0,1-.43.43H9.66a.44.44,0,0,1-.31-.13.41.41,0,0,1-.12-.3V27.6a1.12,1.12,0,0,0-1.11-1h0a1.23,1.23,0,0,0-.86.33,1,1,0,0,0-.32.65v2.74a.42.42,0,0,1-.42.43H4.17c1.88,3.23,5.36,5.31,8.29,6.6Z"/><path class="cls-2" d="M32,22.9H19.48L20.1,26a1.86,1.86,0,0,1,.91-.23,2.09,2.09,0,0,1,1.49.57,1.81,1.81,0,0,1,.57,1.25V29.9h1.69V27.54a2,2,0,0,1,1.95-1.78,2.06,2.06,0,0,1,1.49.57,1.82,1.82,0,0,1,.58,1.25V29.9h2.34a10.1,10.1,0,0,0,.93-4.27V22.9h0"/><path class="cls-2" d="M6.07,29.9V27.58a1.77,1.77,0,0,1,.57-1.24,2.07,2.07,0,0,1,1.5-.58,2,2,0,0,1,1.94,1.78V29.9h1.69V27.58a1.78,1.78,0,0,1,.58-1.24,2,2,0,0,1,1.49-.58,1.92,1.92,0,0,1,.89.22l.62-3.08H2.8v2.73a10,10,0,0,0,.94,4.27Z"/><path class="cls-2" d="M7.07,21.2h.7a.85.85,0,0,1,.1.28,1,1,0,0,0,0,.17,1.68,1.68,0,0,1-.06.41H5.39c-.35-.23-.53-1.17-.54-1.94l1.06-.32a.42.42,0,0,0,.3-.4V19A.44.44,0,0,0,6,18.65l-1.18-.82v-.69l.41-.21a.42.42,0,0,0,.23-.37v-.94a.42.42,0,0,0-.27-.39l-.37-.15v-.7H6l.53.86v1.2l-.37,1.13a.42.42,0,0,0,.41.55h.32a.44.44,0,0,0,.43-.35,7.28,7.28,0,0,1,.22-1A4.44,4.44,0,0,1,8.1,16a.42.42,0,0,0,0-.55L6.62,13.77a4.44,4.44,0,0,1,0-1.26,5.16,5.16,0,0,1,.53-1.22A.35.35,0,0,0,7.22,11l0-.15h.1L9,12a.46.46,0,0,0,.23.06h.47l0,.63-.57.2a.42.42,0,0,0-.28.39v.44a.41.41,0,0,0,.42.41h1.47l.38.39a.44.44,0,0,0,.57,0s.67-.52.7-.58l.23-.49h.86V15s-1.57.52-1.69.59-.16.52-.14.63,0,.16.17.29a4.71,4.71,0,0,0,.6.4l.45-.43.6,0v1.42l-.57.34-1.8-1.21a.43.43,0,0,0-.58.09l-.28.35a.43.43,0,0,0,.05.57l1,.94,0,.77-1,.45a.43.43,0,0,0-.25.38v.17a.43.43,0,0,0,.43.43h1.24a.88.88,0,0,1,0,.86H8.9a.8.8,0,0,1-.17-.47,1,1,0,0,0,0-.17,3.29,3.29,0,0,1,.07-.7l.66-.83a.36.36,0,0,0,.09-.24l0-.4A.43.43,0,0,0,9,18.84l-1.07.43a.42.42,0,0,0-.26.33L7.57,20,7,20.2a.43.43,0,0,0-.3.4v.17a.42.42,0,0,0,.42.43"/><path class="cls-2" d="M27.75,21.2h-.69a.56.56,0,0,0-.1.28c0,.05,0,.11,0,.17a1.31,1.31,0,0,0,.06.41h2.43c.35-.23.52-1.17.54-1.94l-1.07-.32a.42.42,0,0,1-.3-.4V19a.44.44,0,0,1,.18-.35L30,17.83v-.69l-.42-.21a.42.42,0,0,1-.23-.37v-.94a.43.43,0,0,1,.27-.39l.38-.15v-.7H28.85l-.53.86v1.2l.36,1.13a.4.4,0,0,1-.06.38.42.42,0,0,1-.34.17H28a.42.42,0,0,1-.42-.35,6.1,6.1,0,0,0-.23-1,4.34,4.34,0,0,0-.57-.81.42.42,0,0,1,0-.55l1.48-1.66a4.44,4.44,0,0,0,0-1.26,5.12,5.12,0,0,0-.54-1.22A.45.45,0,0,1,27.6,11l0-.15h-.09L25.79,12a.46.46,0,0,1-.23.06h-.48l0,.63.56.2a.42.42,0,0,1,.28.39v.44a.42.42,0,0,1-.43.41H24.06l-.39.39a.43.43,0,0,1-.56,0s-.67-.52-.7-.58l-.24-.49h-.85V15s1.56.52,1.69.59.16.52.14.63,0,.16-.18.29a5.26,5.26,0,0,1-.59.4l-.46-.43-.6,0v1.42l.57.34,1.8-1.21a.42.42,0,0,1,.58.09l.28.35a.42.42,0,0,1,0,.57l-1,.94v.77l1,.45a.43.43,0,0,1,.25.38v.17a.42.42,0,0,1-.42.43H23.11a.86.86,0,0,0,0,.86h2.85a.8.8,0,0,0,.17-.47c0-.06,0-.11,0-.17a3.37,3.37,0,0,0-.06-.7l-.67-.83a.5.5,0,0,1-.09-.24l0-.4a.43.43,0,0,1,.18-.36.41.41,0,0,1,.41-.05l1.08.43a.42.42,0,0,1,.26.33l.06.42.62.18a.44.44,0,0,1,.31.4v.17a.43.43,0,0,1-.43.43"/><path class="cls-1" d="M95.08,17.47v0a3,3,0,0,1,3-3,3.16,3.16,0,0,1,2.21.78l-.43.5A2.57,2.57,0,0,0,98,15.05a2.29,2.29,0,0,0-2.25,2.39h0a2.27,2.27,0,0,0,2.35,2.42,2.81,2.81,0,0,0,1.71-.58V17.85H98v-.6h2.45v2.32a3.59,3.59,0,0,1-2.38.89,2.88,2.88,0,0,1-3-3"/><path class="cls-1" d="M108,17.47v0a2.33,2.33,0,0,0-2.34-2.4,2.31,2.31,0,0,0-2.32,2.39h0a2.33,2.33,0,0,0,2.34,2.41A2.31,2.31,0,0,0,108,17.47m-5.35,0v0a3,3,0,0,1,6,0h0a3,3,0,0,1-3,3A2.94,2.94,0,0,1,102.67,17.47Z"/><path class="cls-1" d="M113.65,17.72h-1.88v2.05h2c.89,0,1.45-.39,1.45-1h0c0-.63-.54-1-1.57-1m1.24-1.64c0-.57-.46-.95-1.31-.95h-1.81v2h1.76c.8,0,1.36-.36,1.36-1Zm-3.78-1.54h2.53a2.18,2.18,0,0,1,1.55.52,1.27,1.27,0,0,1,.38.93v0a1.4,1.4,0,0,1-.94,1.34c.7.21,1.27.61,1.27,1.41v0c0,1-.85,1.58-2.15,1.58h-2.64Z"/><rect class="cls-1" x="118.29" y="14.54" width="0.67" height="5.82"/><polygon class="cls-1" points="121.67 14.54 125.96 14.54 125.96 15.14 122.34 15.14 122.34 17.13 125.58 17.13 125.58 17.73 122.34 17.73 122.34 19.77 126 19.77 126 20.36 121.67 20.36 121.67 14.54"/><path class="cls-1" d="M130.72,17.51c.88,0,1.52-.45,1.52-1.2h0c0-.72-.56-1.15-1.52-1.15h-1.83v2.36Zm-2.5-3h2.55a2.39,2.39,0,0,1,1.69.58,1.62,1.62,0,0,1,.46,1.15v0a1.73,1.73,0,0,1-1.61,1.7l1.82,2.37h-.82l-1.72-2.26h-1.7v2.26h-.67Z"/><polygon class="cls-1" points="135.33 14.54 135.96 14.54 139.69 19.21 139.69 14.54 140.35 14.54 140.35 20.36 139.81 20.36 135.98 15.59 135.98 20.36 135.33 20.36 135.33 14.54"/><path class="cls-1" d="M148.1,17.47v0a2.33,2.33,0,0,0-2.34-2.4,2.3,2.3,0,0,0-2.32,2.39h0a2.33,2.33,0,1,0,4.66,0m-5.36,0v0a3,3,0,0,1,3-3,3,3,0,0,1,3,3h0a3,3,0,0,1-6,0Z"/><path class="cls-1" d="M155,15.15v4.61h1.39a2.27,2.27,0,0,0,2.45-2.29v0a2.28,2.28,0,0,0-2.45-2.3Zm-.67-.61h2.06a2.94,2.94,0,0,1,3.15,2.9h0a2.94,2.94,0,0,1-3.15,2.91h-2.06Z"/><polygon class="cls-1" points="161.62 14.54 165.9 14.54 165.9 15.14 162.28 15.14 162.28 17.13 165.52 17.13 165.52 17.73 162.28 17.73 162.28 19.77 165.94 19.77 165.94 20.36 161.62 20.36 161.62 14.54"/><polygon class="cls-1" points="171.28 14.54 171.94 14.54 171.94 19.76 175.28 19.76 175.28 20.36 171.28 20.36 171.28 14.54"/><path class="cls-1" d="M181.05,18.23l-1.35-3-1.36,3Zm-1.66-3.73H180l2.7,5.86H182l-.69-1.53h-3.23l-.7,1.53h-.69Z"/><path class="cls-1" d="M95,27.45v0a3,3,0,0,1,3.09-3,3.1,3.1,0,0,1,2.34.9l-.83.94A2.2,2.2,0,0,0,98,25.6a1.74,1.74,0,0,0-1.72,1.82h0A1.75,1.75,0,0,0,98,29.26a2.13,2.13,0,0,0,1.56-.68l.83.83a3.05,3.05,0,0,1-2.43,1,3,3,0,0,1-3-3"/><rect class="cls-1" x="101.5" y="24.52" width="1.31" height="5.82"/><path class="cls-1" d="M104.31,27.85V24.52h1.3v3.3c0,.94.49,1.43,1.28,1.43s1.28-.47,1.28-1.39V24.52h1.31v3.29a2.37,2.37,0,0,1-2.6,2.63,2.33,2.33,0,0,1-2.57-2.59"/><path class="cls-1" d="M113.28,29.19a1.67,1.67,0,0,0,1.78-1.74v0a1.68,1.68,0,0,0-1.78-1.75h-1v3.51ZM111,24.52h2.32a2.94,2.94,0,0,1,3.15,2.9h0a2.94,2.94,0,0,1-3.15,2.91H111Z"/><path class="cls-1" d="M120.69,27.91,119.9,26l-.78,1.89Zm-1.37-3.43h1.2l2.54,5.86H121.7l-.54-1.3h-2.51l-.54,1.3h-1.33Z"/><path class="cls-1" d="M126.32,29.19a1.68,1.68,0,0,0,1.79-1.74v0a1.69,1.69,0,0,0-1.79-1.75h-1v3.51ZM124,24.52h2.31a2.93,2.93,0,0,1,3.15,2.9h0a2.94,2.94,0,0,1-3.15,2.91H124Z"/><path class="cls-1" d="M135.58,29.19a1.67,1.67,0,0,0,1.78-1.74v0a1.68,1.68,0,0,0-1.78-1.75h-1v3.51Zm-2.32-4.67h2.32a2.94,2.94,0,0,1,3.15,2.9h0a2.94,2.94,0,0,1-3.15,2.91h-2.32Z"/><polygon class="cls-1" points="139.97 24.52 144.44 24.52 144.44 25.66 141.26 25.66 141.26 26.84 144.06 26.84 144.06 27.98 141.26 27.98 141.26 29.21 144.48 29.21 144.48 30.34 139.97 30.34 139.97 24.52"/><polygon class="cls-1" points="148.27 24.52 149.68 24.52 151.24 26.98 152.79 24.52 154.2 24.52 154.2 30.34 152.91 30.34 152.91 26.54 151.24 29.03 151.2 29.03 149.55 26.57 149.55 30.34 148.27 30.34 148.27 24.52"/><path class="cls-1" d="M158.24,22.59l1.11.48-1.08,1h-1Zm-2.48,1.93h4.47v1.14h-3.18v1.18h2.8V28h-2.8v1.23h3.22v1.13h-4.51Z"/><polygon class="cls-1" points="163.18 27.38 161.2 24.52 162.72 24.52 163.97 26.41 165.22 24.52 166.71 24.52 164.72 27.37 166.79 30.34 165.26 30.34 163.94 28.35 162.6 30.34 161.11 30.34 163.18 27.38"/><rect class="cls-1" x="167.79" y="24.52" width="1.31" height="5.82"/><path class="cls-1" d="M170.36,27.45v0a3,3,0,0,1,3.09-3,3.1,3.1,0,0,1,2.34.9l-.83.94a2.2,2.2,0,0,0-1.52-.66,1.74,1.74,0,0,0-1.72,1.82h0a1.75,1.75,0,0,0,1.72,1.83,2.13,2.13,0,0,0,1.56-.68l.83.83a3.05,3.05,0,0,1-2.43,1,3,3,0,0,1-3-3"/><path class="cls-1" d="M181.39,27.45v0a1.79,1.79,0,0,0-1.8-1.83,1.76,1.76,0,0,0-1.78,1.82h0a1.79,1.79,0,0,0,1.8,1.83,1.75,1.75,0,0,0,1.78-1.81m-4.94,0v0a3,3,0,0,1,3.16-3,3,3,0,0,1,3.14,3h0a3,3,0,0,1-3.16,3A3,3,0,0,1,176.45,27.45Z"/></svg>