<?xml version="1.0" encoding="utf-8"?>
<!-- Generator: Adobe Illustrator 21.0.0, SVG Export Plug-In . SVG Version: 6.00 Build 0)  -->
<svg version="1.1" id="Capa_1" xmlns="http://www.w3.org/2000/svg" xmlns:xlink="http://www.w3.org/1999/xlink" x="0px" y="0px"
	 viewBox="0 0 2585.5 423" style="enable-background:new 0 0 2585.5 423;" xml:space="preserve">
<style type="text/css">
	.st0{fill:#FFFFFF;}
	.st1{fill:#6F7271;}
	.st2{fill:#691C32;}
	.st3{fill:#898D8D;}
</style>
<rect class="st0" width="2585.5" height="423"/>
<rect x="1300.5" y="102.4" class="st1" width="3.2" height="220.3"/>
<g>
	<path class="st2" d="M446.5,228.5c1.6,2.4,3.7,3.4,6.8,3.5c4.1,0.1,6.8-4,6.8-4l68.7-88c5.7-5.9,11.3-1.1,11.3-1.1
		c5.4,5.7,1.4,10.9,1.4,10.9l-15.4,19.6v0.1c-1.3,1.4-2.2,3.2-2.2,5.3c0,1.9,0.7,3.6,1.8,4.9l0,0l15.5,19.6l48.7-61.9l-19.4-24.8
		l-3.6-4.7c-3.1-4.5-10.2-5.6-10.2-5.6h-29.2c-7.8,0-12,5.3-12,5.3l-81.7,104.8"/>
	<path class="st2" d="M443,174.8l-19.5-25c-4-6.4,1.8-11,1.8-11c7.3-4.3,11.5,2.3,11.5,2.3l16.1,20.8l19.1-24.7l-22-28.4
		c-5.3-7.5-13.3-6.4-13.3-6.4h-26.4c-8.4,0-12,5.2-12,5.2L375,137.2l48.7,62.2"/>
	<path class="st2" d="M518.3,196.2c0,0-2.2-3.5-6.5-3.4c-4.5,0.1-6.3,3.1-6.3,3.1L436,285c-5.6,6.2-11.7,1.2-11.7,1.2
		c-5.4-5.7-1-10.9-1-10.9l15.6-20v-0.1c1.3-1.4,2.1-3.2,2.1-5.3c0-1.9-0.6-3.6-1.8-4.9l-15.5-19.6L374.9,288l27.2,34.5l42.8,0.1
		L531,212.5"/>
	<path class="st2" d="M521.9,249.9l19.7,25.4c4.5,6.3-1.2,10.9-1.2,10.9c-7.6,5.1-12.2-2.5-12.2-2.5l-16.5-20.9l-19.1,24.6
		l27.6,35.3l42.5-0.1l27.2-34.9l-48.8-62.3"/>
	<path class="st2" d="M589.5,223.1c-5.7,0-10.4-4.7-10.4-10.5s4.6-10.5,10.4-10.5s10.4,4.7,10.4,10.5
		C600,218.4,595.3,223.1,589.5,223.1 M589.5,193.1c-10.9,0-19.7,8.7-19.7,19.5s8.8,19.5,19.7,19.5s19.8-8.7,19.8-19.5
		S600.4,193.1,589.5,193.1"/>
	<path class="st2" d="M482.3,72.4c5.7,0,10.4,4.7,10.4,10.5s-4.7,10.5-10.4,10.5c-5.7,0-10.4-4.7-10.4-10.5
		C472,77.1,476.6,72.4,482.3,72.4 M482.3,102.4c10.9,0,19.8-8.8,19.8-19.5c0-10.8-8.8-19.5-19.8-19.5c-10.9,0-19.7,8.7-19.7,19.5
		C462.6,93.6,471.5,102.4,482.3,102.4"/>
	<path class="st2" d="M364.5,212.5c0-5.8,4.6-10.5,10.4-10.5c5.7,0,10.4,4.7,10.4,10.5s-4.6,10.4-10.4,10.4
		C369.1,223,364.5,218.3,364.5,212.5 M394.6,212.5c0-10.8-8.9-19.5-19.8-19.5s-19.8,8.7-19.8,19.5c0,10.7,8.9,19.5,19.8,19.5
		C385.8,232,394.6,223.2,394.6,212.5"/>
	<path class="st2" d="M482.4,352.7c-5.7,0-10.4-4.7-10.4-10.5s4.6-10.5,10.4-10.5c5.7,0,10.4,4.7,10.4,10.5S488.1,352.7,482.4,352.7
		 M482.4,322.7c-10.9,0-19.7,8.7-19.7,19.5s8.8,19.5,19.7,19.5s19.8-8.7,19.8-19.5C502.1,331.4,493.3,322.7,482.4,322.7"/>
</g>
<g>
	<path class="st1" d="M276.2,82.8h-227v151.3c0,83.1,113.4,108.1,113.4,108.1h0.1c0,0,113.4-25.1,113.4-108.1 M270.7,88.3v145.8
		c0,17.7-5.6,34-16.5,48.5c-8.9,11.8-21.4,22.5-37.3,31.8c-24.1,14.2-48.7,20.8-54.2,22.1c-5.5-1.4-29.8-7.9-54-22
		c-15.8-9.3-28.4-20-37.4-31.8c-11-14.5-16.6-30.9-16.6-48.6V88.3H270.7z"/>
	<path class="st1" d="M190.2,131.2v-13.9h-14.3v13h-5.6v-13h-14.7v13H150v-13h-14.5v13.9l7.1,12.2c0.2,0.4,0.4,0.9,0.4,1.4l0.1,63.6
		h6.9l-0.1-22.9c0-5.4,6.1-10.3,12.9-10.3s12.9,4.9,12.9,10.3l0.1,22.9h7.1v-24.1c0-0.1,0-0.2,0-0.3v-12c0-0.1,0-0.1,0-0.2v-8.7
		c0,0,0,0,0-0.1v-3.8v-14.5c0-0.5,0.1-1,0.4-1.4"/>
	<path class="st1" d="M137.4,209.9v-21.1l-2.6,1.5c-0.9,0.6-2.1,0.5-3-0.1l-3-2.1c0,0.1,0,0.2,0,0.2l-0.1,8.1c0,0.9-0.4,1.7-1.1,2.2
		c0.3,0.1,0.6,0.2,0.9,0.5c3.7,3,4,7.2,3.2,10.7"/>
	<path class="st1" d="M162.7,180.9c-4.3,0-7.3,3-7.3,4.7l0.1,22.9h14.6l-0.1-22.9C169.9,183.9,166.9,180.9,162.7,180.9"/>
	<path class="st1" d="M77.6,209.9c-0.8-1.8-1.4-3.9-1.8-6.4c-0.7-4.4-0.6-8.5-0.6-8.6c0-1.2,0.8-2.2,1.9-2.6l6.1-1.9l-6.9-4.9
		c-0.7-0.5-1.2-1.4-1.2-2.3v-7.7c0-1,0.6-2,1.5-2.5l2.7-1.4V169l-2.5-1c-1.1-0.4-1.7-1.4-1.7-2.6v-9.3c0-1.5,1.3-2.8,2.8-2.8
		l8.6-0.1c-0.2-2.3-0.2-5.4,0.3-8c0.8-3.5,2.7-7.2,3.7-8.9l-0.5-3.2c-0.1-0.8,0.1-1.6,0.7-2.2c0.5-0.6,1.3-1,2.1-1h4.6
		c0.5,0,1.1,0.2,1.5,0.4l11.4,7.2h5.2c0.8,0,1.5,0.3,2,0.9c0.5,0.5,0.8,1.3,0.8,2.1l-0.4,8.9c0,0.8-0.4,1.5-0.9,1.9h3.5
		c0.8,0,1.5,0.3,2,0.9l1.6,1.6l1.2-0.9l2-4.2c0.4-1,1.4-1.6,2.5-1.6h7.4v-1.6l-7.1-12.2c-0.2-0.4-0.4-0.9-0.4-1.4v-17.4
		c0-1.5,1.3-2.8,2.8-2.8H150h5.6h14.7h5.6H193c1.5,0,2.8,1.3,2.8,2.8v17.4c0,0.5-0.1,1-0.4,1.4l-7.2,12.1v1.6h7.3
		c1.1,0,2.1,0.6,2.5,1.6l2.1,4.2l1.2,0.9l1.6-1.6c0.5-0.5,1.3-0.9,2-0.9h3.5c-0.6-0.5-0.9-1.2-0.9-1.9l-0.4-8.9
		c0-0.8,0.3-1.5,0.8-2.1s1.3-0.9,2-0.9h5.2l11.3-7.2c0.4-0.3,1-0.4,1.5-0.4h4.6c0.8,0,1.6,0.4,2.1,1s0.8,1.4,0.6,2.2l-0.4,3.2
		c0.9,1.7,2.9,5.5,3.6,8.9c0.6,2.6,0.5,5.7,0.4,8l8.6,0.1c1.5,0,2.8,1.3,2.8,2.8v9.3c0,1.1-0.7,2.1-1.7,2.6l-2.5,1v2.6l2.7,1.4
		c0.9,0.5,1.5,1.5,1.5,2.5v7.7c0,0.9-0.4,1.8-1.2,2.3l-6.9,4.9l6.1,1.9c1.1,0.3,1.9,1.4,2,2.6c0,0.2,0.1,4.2-0.6,8.6
		c-0.4,2.5-1,4.6-1.8,6.4H258h0.1V102.1H67.5v107.8"/>
	<path class="st1" d="M197,199.2c0.3-0.2,0.6-0.4,0.9-0.5c-0.7-0.5-1.1-1.3-1.1-2.1l-0.1-8.1c0-0.1,0-0.2,0-0.2l-3.1,2.1
		c-0.9,0.6-2.1,0.6-3,0.1l-2.4-1.5v21h5.6C193,206.4,193.3,202.2,197,199.2"/>
	<path class="st1" d="M234.1,267.6c-1.5,0-2.8-1.2-2.8-2.8v-18.2c0-1.4-0.8-3-2.1-4.3c-1.1-1.1-2.9-2.3-5.7-2.3
		c-4.3,0.1-6.8,3.4-7.2,6.7v18.1c0,0.8-0.3,1.5-0.8,2s-1.2,0.8-2,0.8h-16.6c-1.6,0-2.8-1.2-2.8-2.8v-18.2c0-1.4-0.8-3-2.1-4.3
		c-1.1-1.1-2.9-2.3-5.7-2.3c-1.9,0-3.6,0.7-4.8,1.9l13.6,69.5c19.2-8.5,41.9-22.4,54.2-43.9"/>
	<path class="st1" d="M189.7,313.2l-19.2-97.8H155l-19.1,97.8c0,0.2-0.1,0.3-0.1,0.4c13.3,5.5,24.1,8.2,27.1,9.2
		c3.1-1,13.8-3.7,27-9.1C189.8,313.6,189.8,313.4,189.7,313.2"/>
	<path class="st1" d="M144.1,241.9c-1.3-1.2-2.9-1.8-4.8-1.8h-0.2c-2.7,0-4.5,1.2-5.6,2.2c-1.3,1.2-2.1,2.9-2.1,4.3v18.3
		c0,1.5-1.3,2.8-2.8,2.8H112c-0.7,0-1.4-0.3-1.9-0.8s-0.8-1.3-0.8-2v-18.1c-0.4-3.2-2.9-6.6-7.2-6.6H102c-2.7,0-4.5,1.2-5.6,2.2
		c-1.3,1.2-2.1,2.9-2.1,4.3V265c0,1.5-1.3,2.8-2.8,2.8h-15c12.2,21.5,34.9,35.3,54,43.9"/>
	<path class="st1" d="M258.1,215.5h-81.8l4,20.5c1.8-0.9,3.8-1.5,5.9-1.5c3.7-0.1,7.2,1.3,9.7,3.8c2.4,2.3,3.8,5.4,3.8,8.3V262h11
		v-15.5c0-0.1,0-0.2,0-0.3c0.6-6.6,6.1-11.7,12.7-11.8c3.7-0.1,7.1,1.3,9.7,3.8c2.4,2.3,3.8,5.4,3.8,8.3V262h15.2
		c3.8-8.4,6.1-17.8,6.1-28.4L258.1,215.5L258.1,215.5"/>
	<path class="st1" d="M88.8,262v-15.5c0-2.9,1.4-5.9,3.8-8.3c2.6-2.5,6-3.9,9.7-3.8c6.6,0.1,12.1,5.2,12.7,11.9c0,0.1,0,0.2,0,0.2
		V262h11v-15.5c0-2.9,1.4-5.9,3.8-8.3c2.6-2.5,6-3.9,9.8-3.8c2.1,0,4,0.6,5.8,1.5l4-20.4H67.5v18.1c0,10.6,2.3,20,6.1,28.4"/>
	<path class="st1" d="M95.3,204.1h4.5c0.3,0.6,0.5,1.2,0.7,1.9c0,0.4,0,0.8,0.1,1.1c0,1-0.2,1.9-0.4,2.8H84.4
		c-2.3-1.6-3.4-7.8-3.5-12.9l6.9-2.1c1.2-0.4,2-1.4,2-2.7v-2.7c0-0.9-0.4-1.8-1.2-2.3l-7.7-5.5v-4.6l2.7-1.4
		c0.9-0.5,1.5-1.4,1.5-2.5V167c0-1.1-0.7-2.1-1.7-2.6l-2.5-1v-4.6l7.3-0.1l3.5,5.7v7.9l-2.4,7.6c-0.3,0.9-0.1,1.8,0.4,2.5
		s1.4,1.1,2.3,1.1h2.1c1.4,0,2.5-1,2.7-2.3s0.9-4.8,1.5-6.4c0.5-1.3,2.5-3.9,3.7-5.4c0.9-1.1,0.8-2.6,0-3.6l-9.6-11
		c-0.2-1.6-0.5-5.6,0.1-8.4c0.7-3,2.7-6.9,3.5-8.1c0.3-0.5,0.5-1.2,0.4-1.8l-0.2-1h0.7l11.3,7.2c0.4,0.3,0.9,0.4,1.5,0.4h3.1
		l-0.2,4.2l-3.7,1.3c-1.1,0.4-1.8,1.5-1.8,2.7v2.9c0,1.5,1.3,2.8,2.8,2.8h9.6l2.5,2.6c0.9,1,2.6,1.2,3.7,0.3c0,0,4.3-3.4,4.5-3.9
		l1.5-3.2h5.6v6.6v3.6c0,0-10.2,3.5-11,3.9c-0.7,0.3-1.1,3.5-0.9,4.2c0.1,0.8,0.1,1.1,1.2,1.9c0,0,3,2.3,3.9,2.7l2.9-2.8l3.9,0.3
		v9.4l-3.8,2.2l-11.7-8c-1.2-0.9-2.9-0.6-3.8,0.6l-1.8,2.4c-0.9,1.1-0.8,2.8,0.3,3.8l6.7,6.2l-0.1,5.1l-6.7,3
		c-1,0.4-1.7,1.5-1.7,2.6v1.1c0,1.6,1.3,2.8,2.8,2.8h8.1c1.4,1.8,0.9,4.2,0.3,5.8h-18.6c-0.7-0.7-0.9-1.8-1.1-3.2
		c0-0.3,0-0.7-0.1-1.1c0-1.8,0.2-3.6,0.4-4.6l4.3-5.6c0.4-0.4,0.6-1,0.6-1.6l0.1-2.7c0.1-0.9-0.4-1.9-1.2-2.4
		c-0.8-0.6-1.8-0.7-2.7-0.3l-7,2.9c-0.9,0.4-1.6,1.2-1.7,2.1l-0.4,2.8l-4.1,1.2c-1.2,0.4-2,1.4-2,2.7v1.1
		C92.6,202.9,93.8,204.1,95.3,204.1"/>
	<path class="st1" d="M230.1,204.1h-4.5c-0.4,0.6-0.5,1.2-0.6,1.9c0,0.4,0,0.8-0.1,1.1c0,1,0.2,1.9,0.4,2.8h15.9
		c2.3-1.6,3.4-7.8,3.6-12.9l-6.9-2.1c-1.2-0.4-2-1.4-2-2.7v-2.7c0-0.9,0.4-1.8,1.2-2.3l7.7-5.5v-4.6l-2.7-1.4
		c-0.9-0.5-1.5-1.4-1.5-2.5V167c0-1.1,0.7-2.1,1.7-2.6l2.5-1v-4.6l-7.3-0.1l-3.5,5.7v7.9l2.4,7.6c0.2,0.9,0.1,1.8-0.4,2.5
		s-1.4,1.1-2.3,1.1h-2.1c-1.4,0-2.5-1-2.8-2.3c-0.2-1.3-0.9-4.8-1.5-6.4c-0.5-1.3-2.5-3.9-3.7-5.4c-0.9-1.1-0.9-2.6,0-3.6l9.6-11
		c0.2-1.6,0.5-5.6,0-8.4c-0.6-3-2.8-6.9-3.5-8.1c-0.4-0.5-0.5-1.2-0.4-1.8l0.1-1h-0.6l-11.4,7.2c-0.4,0.3-0.9,0.4-1.5,0.4h-3.1
		l0.2,4.2l3.6,1.3c1.1,0.4,1.8,1.5,1.8,2.7v2.9c0,1.5-1.2,2.8-2.8,2.8H206l-2.5,2.6c-1,1-2.6,1.2-3.7,0.3c0,0-4.3-3.4-4.5-3.9
		l-1.5-3.2h-5.6v6.6v3.6c0,0,10.2,3.5,11,3.9c0.6,0.3,1,3.5,0.9,4.2c-0.1,0.8-0.1,1.1-1.2,1.9c0,0-2.9,2.3-3.9,2.7l-3-2.8l-3.9,0.3
		v9.4l3.8,2.2l11.7-8c1.2-0.9,2.9-0.6,3.8,0.6l1.8,2.4c0.9,1.1,0.8,2.8-0.3,3.8l-6.7,6.2l0.1,5.1l6.7,3c1,0.4,1.7,1.5,1.7,2.6v1.1
		c0,1.6-1.3,2.8-2.8,2.8h-8.1c-1.4,1.8-0.8,4.2-0.2,5.8h18.6c0.6-0.7,0.9-1.8,1.1-3.2c0-0.3,0-0.7,0.1-1.1c0-1.8-0.2-3.6-0.4-4.6
		l-4.3-5.6c-0.4-0.4-0.6-1-0.6-1.6l-0.1-2.7c0-0.9,0.4-1.9,1.2-2.4c0.8-0.6,1.8-0.7,2.7-0.3l7,2.9c0.9,0.4,1.6,1.2,1.7,2.1l0.4,2.8
		l4.1,1.2c1.2,0.4,2,1.4,2,2.7v1.1C232.9,202.9,231.7,204.1,230.1,204.1"/>
</g>
<g>
	<path class="st1" d="M669.1,179.4v-0.1c0-10.6,7.8-20,19.4-20c6.5,0,10.5,1.9,14.4,5.1l-2.8,3.3c-3-2.6-6.3-4.4-11.8-4.4
		c-8.6,0-14.7,7.3-14.7,15.9v0.1c0,9.2,5.9,16.1,15.3,16.1c4.4,0,8.5-1.7,11.2-3.9v-9.6h-11.8V178h15.9v15.4
		c-3.6,3.2-9,5.9-15.5,5.9C676.6,199.3,669.1,190.5,669.1,179.4"/>
	<path class="st1" d="M753.5,179.4v-0.1c0-8.8-6.4-16-15.3-16s-15.1,7.1-15.1,15.9v0.1c0,8.8,6.4,15.9,15.2,15.9
		C747.1,195.3,753.5,188.2,753.5,179.4 M718.5,179.4v-0.1c0-10.7,8-20,19.8-20s19.7,9.3,19.7,19.9v0.1c0,10.6-8,20-19.8,20
		C726.5,199.3,718.5,190.1,718.5,179.4"/>
	<path class="st1" d="M790.1,181.1h-12.2v13.6h13c5.8,0,9.5-2.6,9.5-6.9v-0.1C800.4,183.5,796.8,181.1,790.1,181.1 M798.2,170.2
		c0-3.8-3-6.3-8.6-6.3h-11.8v13.3h11.5c5.2,0,8.9-2.4,8.9-6.9L798.2,170.2L798.2,170.2z M773.6,160H790c4.4,0,7.9,1.3,10.2,3.4
		c1.6,1.7,2.5,3.7,2.5,6.2v0.1c0,5-3.1,7.6-6.1,8.9c4.6,1.4,8.3,4,8.3,9.3v0.1c0,6.6-5.6,10.5-14,10.5h-17.2L773.6,160L773.6,160z"
		/>
	<rect x="820.4" y="160" class="st1" width="4.3" height="38.7"/>
	<polyline class="st1" points="842.5,160 870.4,160 870.4,164 846.8,164 846.8,177.1 867.9,177.1 867.9,181.1 846.8,181.1 
		846.8,194.7 870.7,194.7 870.7,198.6 842.5,198.6 	"/>
	<path class="st1" d="M901.4,179.7c5.8,0,10-3,10-8v-0.1c0-4.8-3.7-7.6-9.9-7.6h-12v15.7 M885.2,160h16.6c4.8,0,8.6,1.4,11,3.9
		c1.9,1.9,3,4.6,3,7.6v0.1c0,6.4-4.4,10.2-10.5,11.3l11.9,15.8h-5.4l-11.2-15h-11.1v15h-4.3V160z"/>
	<polyline class="st1" points="931.5,160 935.6,160 959.9,191 959.9,160 964.2,160 964.2,198.6 960.7,198.6 935.7,166.9 
		935.7,198.6 931.5,198.6 	"/>
	<path class="st1" d="M1014.7,179.4v-0.1c0-8.8-6.4-16-15.3-16s-15.1,7.1-15.1,15.9v0.1c0,8.8,6.4,15.9,15.2,15.9
		C1008.4,195.3,1014.7,188.2,1014.7,179.4 M979.8,179.4v-0.1c0-10.7,8-20,19.8-20s19.7,9.3,19.7,19.9v0.1c0,10.6-8,20-19.8,20
		C987.7,199.3,979.8,190.1,979.8,179.4"/>
	<path class="st1" d="M1059.3,164v30.6h9.1c9.8,0,16.1-6.6,16.1-15.2v-0.1c0-8.5-6.3-15.3-16.1-15.3 M1055,160h13.4
		c12.2,0,20.6,8.3,20.6,19.2v0.1c0,10.9-8.4,19.3-20.6,19.3H1055V160z"/>
	<polyline class="st1" points="1102.8,160 1130.8,160 1130.8,164 1107.2,164 1107.2,177.1 1128.3,177.1 1128.3,181.1 1107.2,181.1 
		1107.2,194.7 1131.1,194.7 1131.1,198.6 1102.8,198.6 	"/>
	<polyline class="st1" points="1165.8,160 1170.2,160 1170.2,194.6 1192,194.6 1192,198.6 1165.8,198.6 	"/>
	<path class="st1" d="M1229.5,184.4l-8.8-19.7l-8.8,19.7 M1218.7,159.7h4.1l17.6,38.9h-4.7l-4.5-10.2h-21.1l-4.6,10.2h-4.5
		L1218.7,159.7z"/>
	<path class="st1" d="M668.2,245.7v-0.1c0-11,8.3-20,20.2-20c7.3,0,11.7,2.5,15.3,6l-5.4,6.3c-3-2.7-6-4.4-9.9-4.4
		c-6.5,0-11.2,5.4-11.2,12.1v0.1c0,6.6,4.6,12.2,11.2,12.2c4.4,0,7.1-1.8,10.1-4.5l5.4,5.5c-4,4.2-8.4,6.9-15.9,6.9
		C676.7,265.6,668.2,256.8,668.2,245.7"/>
	<rect x="710.9" y="226.3" class="st1" width="8.5" height="38.7"/>
	<path class="st1" d="M729.2,248.4v-22.1h8.5v21.9c0,6.3,3.2,9.5,8.4,9.5s8.3-3.1,8.3-9.3v-22.2h8.5V248c0,11.7-6.5,17.5-17,17.5
		C735.6,265.5,729.2,259.7,729.2,248.4"/>
	<path class="st1" d="M787.7,257.3c7,0,11.6-4.7,11.6-11.6v-0.1c0-6.8-4.7-11.6-11.6-11.6h-6.6v23.3 M772.6,226.3h15.1
		c12.2,0,20.5,8.3,20.5,19.2v0.1c0,10.9-8.4,19.4-20.5,19.4h-15.1V226.3z"/>
	<path class="st1" d="M836,248.8l-5.1-12.6l-5.2,12.6 M827.1,226h7.8l16.6,39h-8.9l-3.5-8.7h-16.3l-3.5,8.7h-8.7L827.1,226z"/>
	<path class="st1" d="M872.7,257.3c7,0,11.7-4.7,11.7-11.6v-0.1c0-6.8-4.7-11.6-11.7-11.6h-6.6v23.3 M857.7,226.3h15.1
		c12.2,0,20.6,8.3,20.6,19.2v0.1c0,10.9-8.4,19.4-20.6,19.4h-15.1V226.3z"/>
	<path class="st1" d="M933.1,257.3c7,0,11.7-4.7,11.7-11.6v-0.1c0-6.8-4.7-11.6-11.7-11.6h-6.6v23.3 M918,226.3h15.1
		c12.2,0,20.5,8.3,20.5,19.2v0.1c0,10.9-8.4,19.4-20.5,19.4H918V226.3z"/>
	<polyline class="st1" points="961.7,226.3 990.9,226.3 990.9,233.9 970.1,233.9 970.1,241.7 988.4,241.7 988.4,249.3 970.1,249.3 
		970.1,257.4 991.1,257.4 991.1,265 961.7,265 	"/>
	<polyline class="st1" points="1015.8,226.3 1025,226.3 1035.2,242.6 1045.3,226.3 1054.5,226.3 1054.5,265 1046,265 1046,239.7 
		1035.2,256.2 1034.9,256.2 1024.2,239.9 1024.2,265 1015.8,265 	"/>
	<path class="st1" d="M1080.8,213.5l7.2,3.1l-7.1,6.6h-6.4L1080.8,213.5z M1064.6,226.3h29.2v7.6h-20.7v7.8h18.2v7.6h-18.2v8.1h21
		v7.6h-29.4L1064.6,226.3L1064.6,226.3z"/>
	<polyline class="st1" points="1113,245.3 1100.1,226.3 1110.1,226.3 1118.2,238.8 1126.3,226.3 1136,226.3 1123.1,245.1 
		1136.6,265 1126.6,265 1117.9,251.7 1109.2,265 1099.5,265 	"/>
	<rect x="1143.1" y="226.3" class="st1" width="8.5" height="38.7"/>
	<path class="st1" d="M1159.8,245.7v-0.1c0-11,8.3-20,20.2-20c7.3,0,11.6,2.5,15.2,6l-5.4,6.3c-3-2.7-6-4.4-9.9-4.4
		c-6.5,0-11.2,5.4-11.2,12.1v0.1c0,6.6,4.6,12.2,11.2,12.2c4.4,0,7.1-1.8,10.2-4.5l5.4,5.5c-4,4.2-8.4,6.9-15.8,6.9
		C1168.3,265.6,1159.8,256.8,1159.8,245.7"/>
	<path class="st1" d="M1231.7,245.7v-0.1c0-6.6-4.8-12.2-11.7-12.2s-11.6,5.4-11.6,12.1v0.1c0,6.6,4.9,12.1,11.7,12.1
		C1227,257.8,1231.7,252.4,1231.7,245.7 M1199.5,245.7v-0.1c0-11,8.7-20,20.6-20c12,0,20.5,8.9,20.5,19.9v0.1c0,11-8.7,20-20.6,20
		C1208.1,265.6,1199.5,256.7,1199.5,245.7"/>
</g>
<rect x="2318.4" y="102.4" class="st1" width="3.2" height="220.3"/>
<path class="st1" d="M1365.6,193.8l4.9-5.9c3.4,2.8,7,4.6,11.4,4.6c3.4,0,5.5-1.3,5.5-3.5v-0.1c0-2.1-1.3-3.2-7.7-4.8
	c-7.7-2-12.6-4.1-12.6-11.7v-0.1c0-6.9,5.5-11.5,13.3-11.5c5.5,0,10.2,1.7,14.1,4.8l-4.3,6.3c-3.4-2.3-6.7-3.7-9.9-3.7
	c-3.2,0-4.9,1.5-4.9,3.3v0.1c0,2.5,1.6,3.3,8.2,5c7.7,2,12.1,4.8,12.1,11.4v0.1c0,7.6-5.8,11.8-14,11.8
	C1376,199.9,1370.2,197.9,1365.6,193.8"/>
<polyline class="st1" points="1403.8,161.3 1432.5,161.3 1432.5,168.7 1412.2,168.7 1412.2,176.4 1430.1,176.4 1430.1,183.9 
	1412.2,183.9 1412.2,191.9 1432.8,191.9 1432.8,199.3 1403.8,199.3 "/>
<path class="st1" d="M1439,180.4v-0.1c0-10.8,8.1-19.6,19.8-19.6c7.2,0,11.5,2.4,15,5.8l-5.3,6.1c-2.9-2.7-5.9-4.3-9.7-4.3
	c-6.4,0-11,5.3-11,11.9v0.1c0,6.6,4.5,12,11,12c4.4,0,7-1.7,10-4.5l5.3,5.4c-3.9,4.2-8.3,6.8-15.6,6.8
	C1447.3,200,1439,191.3,1439,180.4"/>
<path class="st1" d="M1497.8,179.8c4.1,0,6.4-2.2,6.4-5.4v-0.1c0-3.6-2.5-5.5-6.6-5.5h-8.3v10.9 M1481,161.3h17.4
	c4.8,0,8.6,1.3,11.1,3.9c2.1,2.1,3.3,5.1,3.3,8.7v0.1c0,6.1-3.3,10-8.1,11.8l9.3,13.6h-9.8l-8.2-12.2h-0.1h-6.5v12.2h-8.4
	L1481,161.3L1481,161.3z"/>
<polyline class="st1" points="1521.2,161.3 1549.9,161.3 1549.9,168.7 1529.5,168.7 1529.5,176.4 1547.4,176.4 1547.4,183.9 
	1529.5,183.9 1529.5,191.9 1550.1,191.9 1550.1,199.3 1521.2,199.3 "/>
<polyline class="st1" points="1567.2,169 1555.6,169 1555.6,161.3 1587.2,161.3 1587.2,169 1575.6,169 1575.6,199.3 1567.2,199.3 
	"/>
<path class="st1" d="M1611.3,183.4l-5-12.3l-5,12.3 M1602.5,161h7.7l16.3,38.3h-8.7l-3.5-8.5h-16.1l-3.5,8.5h-8.5L1602.5,161z"/>
<path class="st1" d="M1649.6,179.8c4.1,0,6.4-2.2,6.4-5.4v-0.1c0-3.6-2.5-5.5-6.5-5.5h-8.3v10.9 M1632.7,161.3h17.4
	c4.8,0,8.6,1.3,11.1,3.9c2.1,2.1,3.3,5.1,3.3,8.7v0.1c0,6.1-3.3,10-8.2,11.8l9.3,13.6h-9.8l-8.2-12.2h-0.1h-6.5v12.2h-8.4
	L1632.7,161.3L1632.7,161.3z"/>
<path class="st1" d="M1680,148.7l7.1,3.1l-7,6.5h-6.3L1680,148.7z M1681.5,161.3v38h-8.4v-38H1681.5z"/>
<path class="st3" d="M1712.9,183.4l-5-12.3l-5,12.3 M1704.1,161h7.7l16.3,38.3h-8.7l-3.5-8.5h-16.1l-3.5,8.5h-8.5L1704.1,161z"/>
<path class="st1" d="M1765.7,191.8c6.9,0,11.5-4.6,11.5-11.4v-0.1c0-6.7-4.6-11.5-11.5-11.5h-6.5v23 M1750.9,161.3h14.8
	c12,0,20.2,8.2,20.2,18.9v0.1c0,10.7-8.3,19-20.2,19h-14.8V161.3z"/>
<polyline class="st1" points="1794,161.3 1822.7,161.3 1822.7,168.7 1802.4,168.7 1802.4,176.4 1820.3,176.4 1820.3,183.9 
	1802.4,183.9 1802.4,191.9 1823,191.9 1823,199.3 1794,199.3 "/>
<path class="st1" d="M1390.7,248l-5-12.4l-5,12.4 M1381.9,225.6h7.7l16.3,38.3h-8.7l-3.5-8.5h-16.1l-3.5,8.5h-8.5L1381.9,225.6z"/>
<path class="st1" d="M1427,256.4c6.8,0,11.4-4.6,11.4-11.4v-0.1c0-6.7-4.6-11.4-11.4-11.4h-6.5v22.9 M1412.2,225.9h14.8
	c12,0,20.2,8.2,20.2,18.9v0.1c0,10.7-8.2,19.1-20.2,19.1h-14.8V225.9z"/>
<polyline class="st1" points="1455.3,225.9 1464.4,225.9 1474.4,242 1484.4,225.9 1493.4,225.9 1493.4,263.9 1485.1,263.9 
	1485.1,239.1 1474.4,255.3 1474.1,255.3 1463.6,239.2 1463.6,263.9 1455.3,263.9 "/>
<rect x="1503.7" y="225.9" class="st1" width="8.4" height="38.1"/>
<polyline class="st1" points="1522.3,225.9 1530,225.9 1547.8,249.3 1547.8,225.9 1556.1,225.9 1556.1,263.9 1549,263.9 
	1530.6,239.7 1530.6,263.9 1522.3,263.9 "/>
<rect x="1566.4" y="225.9" class="st1" width="8.4" height="38.1"/>
<path class="st1" d="M1582.2,258.4l4.9-5.9c3.4,2.8,7,4.6,11.4,4.6c3.4,0,5.5-1.4,5.5-3.6v-0.1c0-2.1-1.3-3.2-7.7-4.8
	c-7.7-2-12.6-4.1-12.6-11.7v-0.1c0-6.9,5.5-11.4,13.3-11.4c5.5,0,10.3,1.7,14.1,4.8l-4.3,6.3c-3.4-2.3-6.7-3.7-9.9-3.7
	c-3.2,0-4.9,1.5-4.9,3.3v0.1c0,2.5,1.6,3.3,8.2,5c7.7,2,12.1,4.8,12.1,11.4v0.1c0,7.6-5.8,11.8-14,11.8
	C1592.6,264.5,1586.7,262.4,1582.2,258.4"/>
<polyline class="st1" points="1628.8,233.6 1617.3,233.6 1617.3,225.9 1648.8,225.9 1648.8,233.6 1637.2,233.6 1637.2,263.9 
	1628.8,263.9 "/>
<path class="st1" d="M1672.1,244.4c4.1,0,6.4-2.2,6.4-5.4v-0.1c0-3.6-2.5-5.4-6.6-5.4h-8.3v10.9 M1655.2,225.9h17.4
	c4.9,0,8.6,1.3,11.1,3.9c2.1,2.1,3.2,5.1,3.2,8.7v0.1c0,6.1-3.3,10-8.1,11.8l9.3,13.6h-9.8l-8.2-12.2h-0.1h-6.4V264h-8.4V225.9
	L1655.2,225.9z"/>
<path class="st1" d="M1718.1,248l-5-12.4l-5,12.4 M1709.3,225.6h7.7l16.3,38.3h-8.7l-3.5-8.5H1705l-3.5,8.5h-8.5L1709.3,225.6z"/>
<path class="st1" d="M1735.8,245v-0.1c0-10.8,8.1-19.6,19.8-19.6c7.2,0,11.5,2.4,15,5.8l-5.3,6.2c-2.9-2.7-5.9-4.3-9.7-4.3
	c-6.4,0-11,5.3-11,11.8v0.1c0,6.6,4.5,12,11,12c4.4,0,7-1.7,10-4.5l5.3,5.4c-3.9,4.2-8.3,6.8-15.6,6.8
	C1744.1,264.6,1735.8,255.9,1735.8,245"/>
<rect x="1778" y="225.9" class="st1" width="8.4" height="38.1"/>
<path class="st1" d="M1818,213.3l7.1,3.1l-7,6.5h-6.3 M1826.3,245v-0.1c0-6.5-4.8-12-11.5-12c-6.8,0-11.4,5.3-11.4,11.8v0.1
	c0,6.5,4.8,12,11.5,12S1826.3,251.5,1826.3,245 M1794.6,245v-0.1c0-10.8,8.5-19.6,20.3-19.6c11.7,0,20.2,8.7,20.2,19.5v0.1
	c0,10.8-8.5,19.7-20.3,19.7C1803,264.6,1794.6,255.8,1794.6,245"/>
<polyline class="st1" points="1843.1,225.9 1850.9,225.9 1868.7,249.3 1868.7,225.9 1876.9,225.9 1876.9,263.9 1869.8,263.9 
	1851.4,239.7 1851.4,263.9 1843.1,263.9 "/>
<polyline class="st1" points="1915.5,249.6 1900.8,226.5 1910.6,226.5 1919.7,241.8 1928.9,226.5 1938.4,226.5 1923.8,249.4 
	1923.8,264.6 1915.5,264.6 "/>
<polyline class="st1" points="1960.5,226.5 1989.5,226.5 1989.5,234.1 1968.9,234.1 1968.9,242.2 1987,242.2 1987,249.8 
	1968.9,249.8 1968.9,264.6 1960.5,264.6 "/>
<rect x="1997" y="226.5" class="st1" width="8.4" height="38.1"/>
<polyline class="st1" points="2015.6,226.5 2023.3,226.5 2041.1,250 2041.1,226.5 2049.4,226.5 2049.4,264.6 2042.2,264.6 
	2023.8,240.4 2023.8,264.6 2015.6,264.6 "/>
<path class="st1" d="M2080.7,248.7l-5.1-12.3l-5,12.3 M2071.9,226.2h7.7l16.3,38.3h-8.8l-3.5-8.5h-16.1l-3.5,8.5h-8.6L2071.9,226.2z
	"/>
<polyline class="st1" points="2102.1,226.5 2109.8,226.5 2127.7,250 2127.7,226.5 2135.9,226.5 2135.9,264.6 2128.8,264.6 
	2110.4,240.4 2110.4,264.6 2102.1,264.6 "/>
<polyline class="st1" points="2144.2,258.2 2165.2,233.9 2144.9,233.9 2144.9,226.5 2175.9,226.5 2175.9,232.9 2155,257.2 
	2175.9,257.2 2175.9,264.6 2144.2,264.6 "/>
<path class="st1" d="M2206.6,248.7l-5.1-12.3l-5,12.3 M2197.8,226.2h7.7l16.3,38.3h-8.7l-3.5-8.5h-16.1l-3.5,8.5h-8.5L2197.8,226.2z
	"/>
<path class="st1" d="M2225.8,259l4.9-5.9c3.4,2.8,7,4.6,11.4,4.6c3.4,0,5.5-1.3,5.5-3.6V254c0-2.1-1.3-3.2-7.7-4.8
	c-7.7-2-12.6-4.1-12.6-11.6v-0.1c0-6.9,5.5-11.5,13.3-11.5c5.5,0,10.3,1.8,14.1,4.8l-4.4,6.3c-3.3-2.4-6.7-3.8-9.9-3.8
	s-4.9,1.5-4.9,3.3v0.1c0,2.5,1.7,3.3,8.2,5c7.7,2,12.1,4.8,12.1,11.4v0.1c0,7.5-5.8,11.8-14,11.8
	C2236.2,265.1,2230.4,263.1,2225.8,259"/>
<g>
	<g>
		<path class="st2" d="M2403.3,228.4c-11.7,0-20.4-9.1-20.4-20.5v-0.1c0-11.3,8.5-20.6,20.8-20.6c7.5,0,12,2.5,15.7,6.1l-5.6,6.4
			c-3.1-2.8-6.2-4.5-10.2-4.5c-6.7,0-11.6,5.6-11.6,12.4v0.1c0,6.8,4.7,12.5,11.6,12.5c4.6,0,7.3-1.8,10.5-4.7l5.6,5.6
			C2415.5,225.6,2410.9,228.4,2403.3,228.4z"/>
		<path class="st2" d="M2489.3,228.4c-11.7,0-20.4-9.1-20.4-20.5v-0.1c0-11.3,8.5-20.6,20.8-20.6c7.5,0,12,2.5,15.7,6.1l-5.6,6.4
			c-3.1-2.8-6.2-4.5-10.2-4.5c-6.7,0-11.6,5.6-11.6,12.4v0.1c0,6.8,4.7,12.5,11.6,12.5c4.6,0,7.3-1.8,10.5-4.7l5.6,5.6
			C2501.5,225.6,2496.9,228.4,2489.3,228.4z"/>
		<path class="st2" d="M2455.4,227.7l-3.6-8.9H2435l-3.6,8.9h-8.9l17.1-40.1h8.1l17.1,40.1L2455.4,227.7L2455.4,227.7z
			 M2443.3,198.1L2438,211h10.6L2443.3,198.1z"/>
	</g>
	<polygon class="st2" points="2523,187.9 2514.4,187.9 2514.4,227.7 2523,227.7 	"/>
</g>
</svg>
