<svg id="Layer_1" data-name="Layer 1" xmlns="http://www.w3.org/2000/svg" viewBox="0 0 182.23 29.17"><defs><style>.cls-1{fill:#9c213d;}.cls-2{fill:#bc955c;}</style></defs><title>LOGO CACI</title><path class="cls-1" d="M23.62,12.65A11.81,11.81,0,1,0,7.1,23.47v5.7h3.13V24.35a11.75,11.75,0,0,0,1.58.11,12.62,12.62,0,0,0,1.51-.1v4.81h3.13V23.5a11.82,11.82,0,0,0,7.17-10.85M11.19,4a7.82,7.82,0,0,1-7.1,4.7A8.68,8.68,0,0,1,11.19,4m.62,17.33a8.69,8.69,0,0,1-8.68-8.68c0-.28,0-.55,0-.81H4A10.93,10.93,0,0,0,14.4,4.37a8.68,8.68,0,0,1-2.59,17"/><path class="cls-1" d="M11.74,18.89a3.12,3.12,0,0,0,3.1-3.13H8.64a3.12,3.12,0,0,0,3.1,3.13"/><path class="cls-1" d="M10.94,12.63a1.55,1.55,0,1,0-1.55,1.56,1.56,1.56,0,0,0,1.55-1.56"/><path class="cls-1" d="M14.09,11.06a1.57,1.57,0,1,0,1.54,1.57,1.56,1.56,0,0,0-1.54-1.57"/><path class="cls-2" d="M32.29,0a11.82,11.82,0,0,0-11.8,11.81V28.34l10.23,0V23.51a11.6,11.6,0,0,0,1.57.11,12.65,12.65,0,0,0,1.52-.1v4.8H44.1V11.81A11.82,11.82,0,0,0,32.29,0m-.62,3.16a7.8,7.8,0,0,1-7.1,4.7,8.68,8.68,0,0,1,7.1-4.7m-4.09,22h-4V19.81a11.89,11.89,0,0,0,4,2.82Zm-4-13.38a7.09,7.09,0,0,1,0-.81h.81A10.92,10.92,0,0,0,34.88,3.53a8.68,8.68,0,1,1-11.26,8.28M41,25.19h-4V22.66a11.87,11.87,0,0,0,4-2.85Z"/><path class="cls-2" d="M32.23,18.89a3.12,3.12,0,0,0,3.09-3.13H29.13a3.12,3.12,0,0,0,3.1,3.13"/><path class="cls-2" d="M31.43,12.63a1.55,1.55,0,1,0-1.55,1.56,1.56,1.56,0,0,0,1.55-1.56"/><path class="cls-2" d="M34.57,11.06a1.57,1.57,0,1,0,1.55,1.57,1.56,1.56,0,0,0-1.55-1.57"/><path class="cls-1" d="M56.27,12.73a3.78,3.78,0,0,1-.7.44,3.45,3.45,0,0,1-.84.27,4.52,4.52,0,0,1-1,.1,4.08,4.08,0,0,1-1.58-.31,4,4,0,0,1-1.27-.85A3.94,3.94,0,0,1,50,11.11a4.1,4.1,0,0,1-.3-1.57v0a4,4,0,0,1,1.13-2.83,3.82,3.82,0,0,1,1.28-.87,4.13,4.13,0,0,1,1.64-.31,6,6,0,0,1,1,.08,4.64,4.64,0,0,1,.82.25,3.14,3.14,0,0,1,.67.38,4.48,4.48,0,0,1,.58.48L55.75,8a4.09,4.09,0,0,0-.92-.65,2.46,2.46,0,0,0-1.06-.23,2.12,2.12,0,0,0-.91.19,2.29,2.29,0,0,0-.71.52,2.42,2.42,0,0,0-.47.77,2.65,2.65,0,0,0-.16.94v0a2.65,2.65,0,0,0,.16.94,2.51,2.51,0,0,0,.46.78,2.32,2.32,0,0,0,.71.53,2.17,2.17,0,0,0,.92.19,2.38,2.38,0,0,0,1.12-.24,4.21,4.21,0,0,0,.92-.67l1.09,1.1A5.7,5.7,0,0,1,56.27,12.73Z"/><path class="cls-1" d="M58.26,13.4V5.64h5.85V7.16H60V8.73h3.66v1.52H60v1.63h4.21V13.4Z"/><path class="cls-1" d="M71.14,13.4,67.38,8.47V13.4H65.69V5.64h1.58l3.63,4.78V5.64h1.69V13.4Z"/><path class="cls-1" d="M78,7.21V13.4H76.26V7.21H73.9V5.64h6.43V7.21Z"/><path class="cls-1" d="M86.36,13.4l-1.67-2.48H83.35V13.4H81.64V5.64h3.55a3.18,3.18,0,0,1,2.16.68,2.38,2.38,0,0,1,.77,1.88v0a2.43,2.43,0,0,1-.46,1.54,2.63,2.63,0,0,1-1.2.87l1.89,2.77Zm0-5.11A1,1,0,0,0,86,7.46a1.51,1.51,0,0,0-1-.28h-1.7V9.41h1.73a1.41,1.41,0,0,0,1-.3,1,1,0,0,0,.34-.8Z"/><path class="cls-1" d="M97.26,11.08a3.93,3.93,0,0,1-2.17,2.14,4.31,4.31,0,0,1-1.66.32,4.22,4.22,0,0,1-1.65-.32,4,4,0,0,1-1.3-.85,3.86,3.86,0,0,1-.86-1.27,4,4,0,0,1-.3-1.56v0A3.91,3.91,0,0,1,89.63,8a3.81,3.81,0,0,1,.86-1.27,3.85,3.85,0,0,1,1.31-.87,4.25,4.25,0,0,1,1.65-.31,4.3,4.3,0,0,1,1.66.31,4.15,4.15,0,0,1,1.3.86,3.74,3.74,0,0,1,.85,1.26,3.88,3.88,0,0,1,.31,1.56v0A3.85,3.85,0,0,1,97.26,11.08ZM95.78,9.52a2.45,2.45,0,0,0-.17-.94,2.31,2.31,0,0,0-1.23-1.3,2.31,2.31,0,0,0-.95-.2,2.27,2.27,0,0,0-1,.19,2.37,2.37,0,0,0-.73.52,2.42,2.42,0,0,0-.47.77,2.46,2.46,0,0,0-.18.94v0a2.46,2.46,0,0,0,.18.94,2.22,2.22,0,0,0,.48.78,2.37,2.37,0,0,0,.75.53,2.23,2.23,0,0,0,.94.19,2.3,2.3,0,0,0,1-.19,2.16,2.16,0,0,0,.74-.52,2.53,2.53,0,0,0,.64-1.71Z"/><path class="cls-1" d="M109.27,11.05a3.44,3.44,0,0,1-.85,1.23,3.89,3.89,0,0,1-1.31.82,4.47,4.47,0,0,1-1.67.3h-3V5.64h3a4.68,4.68,0,0,1,1.67.29,3.89,3.89,0,0,1,1.31.82A3.58,3.58,0,0,1,109.27,8a3.87,3.87,0,0,1,.3,1.53v0A3.87,3.87,0,0,1,109.27,11.05Zm-1.48-1.53a2.42,2.42,0,0,0-.18-.94,2.08,2.08,0,0,0-.47-.74,2.22,2.22,0,0,0-.74-.49,2.69,2.69,0,0,0-1-.17h-1.32v4.68h1.32a2.69,2.69,0,0,0,1-.16,2.2,2.2,0,0,0,.74-.48,2.23,2.23,0,0,0,.47-.73,2.4,2.4,0,0,0,.18-1Z"/><path class="cls-1" d="M111.09,13.4V5.64h5.85V7.16h-4.16V8.73h3.66v1.52h-3.66v1.63H117V13.4Z"/><path class="cls-1" d="M127.63,13.4l-.71-1.74h-3.28l-.71,1.74h-1.75l3.33-7.82h1.58l3.32,7.82Zm-2.35-5.76-1,2.51h2.06Z"/><path class="cls-1" d="M134.13,7.21V13.4h-1.71V7.21h-2.36V5.64h6.43V7.21Z"/><path class="cls-1" d="M137.8,13.4V5.64h5.85V7.16h-4.16V8.73h3.66v1.52h-3.66v1.63h4.21V13.4Z"/><path class="cls-1" d="M150.68,13.4l-3.76-4.93V13.4h-1.69V5.64h1.58l3.64,4.78V5.64h1.68V13.4Z"/><path class="cls-1" d="M160.19,12.73a3.78,3.78,0,0,1-.7.44,3.45,3.45,0,0,1-.84.27,4.52,4.52,0,0,1-1,.1,4.08,4.08,0,0,1-1.58-.31,4,4,0,0,1-1.27-.85,3.94,3.94,0,0,1-.83-1.27,4.1,4.1,0,0,1-.3-1.57v0a4,4,0,0,1,1.13-2.83,3.82,3.82,0,0,1,1.28-.87,4.13,4.13,0,0,1,1.64-.31,6,6,0,0,1,1,.08,4.64,4.64,0,0,1,.82.25,3.14,3.14,0,0,1,.67.38,4.48,4.48,0,0,1,.58.48L159.67,8a4.09,4.09,0,0,0-.92-.65,2.46,2.46,0,0,0-1.06-.23,2.12,2.12,0,0,0-.91.19,2.29,2.29,0,0,0-.71.52,2.42,2.42,0,0,0-.47.77,2.65,2.65,0,0,0-.16.94v0a2.65,2.65,0,0,0,.16.94,2.51,2.51,0,0,0,.46.78,2.32,2.32,0,0,0,.71.53,2.17,2.17,0,0,0,.92.19,2.38,2.38,0,0,0,1.12-.24,4.21,4.21,0,0,0,.92-.67l1.09,1.1A5.7,5.7,0,0,1,160.19,12.73Z"/><path class="cls-1" d="M162.26,13.4V5.64H164V13.4Z"/><path class="cls-1" d="M173.51,11.08a4.3,4.3,0,0,1-.86,1.28,4.2,4.2,0,0,1-1.31.86,4.31,4.31,0,0,1-1.66.32,4.22,4.22,0,0,1-1.65-.32,4.06,4.06,0,0,1-1.31-.85,4,4,0,0,1-1.16-2.83v0A4,4,0,0,1,168,5.82a4.3,4.3,0,0,1,1.66-.31,4.22,4.22,0,0,1,1.65.31,4.08,4.08,0,0,1,1.31.86,3.89,3.89,0,0,1,.85,1.26,4.06,4.06,0,0,1,.31,1.56v0A4,4,0,0,1,173.51,11.08ZM172,9.52a2.66,2.66,0,0,0-.17-.94,2.4,2.4,0,0,0-.49-.78,2.2,2.2,0,0,0-.75-.52,2.26,2.26,0,0,0-.94-.2,2.23,2.23,0,0,0-1.68.71,2.44,2.44,0,0,0-.48.77,2.66,2.66,0,0,0-.17.94v0a2.66,2.66,0,0,0,.17.94,2.4,2.4,0,0,0,.49.78,2.45,2.45,0,0,0,.74.53,2.45,2.45,0,0,0,1.89,0,2.07,2.07,0,0,0,.74-.52A2.48,2.48,0,0,0,172,9.54ZM169.09,5l1.25-2,1.46.63L170.38,5Z"/><path class="cls-1" d="M180.78,13.4,177,8.47V13.4h-1.68V5.64h1.57l3.64,4.78V5.64h1.68V13.4Z"/><path class="cls-1" d="M54,23.62v3.09H52.26V23.65l-3-4.7h2l1.85,3.12L55,19H57Z"/><path class="cls-1" d="M67.54,26a4.14,4.14,0,0,1-.7.44,3.75,3.75,0,0,1-.84.27,4.52,4.52,0,0,1-1,.1,4.08,4.08,0,0,1-1.58-.31,4,4,0,0,1-1.27-.85,3.94,3.94,0,0,1-.83-1.27,4.1,4.1,0,0,1-.3-1.57v0A4,4,0,0,1,62.13,20a3.82,3.82,0,0,1,1.28-.87,4.13,4.13,0,0,1,1.64-.31,5.06,5.06,0,0,1,1,.09,3.93,3.93,0,0,1,.82.24,3.14,3.14,0,0,1,.67.38,4.48,4.48,0,0,1,.58.48L67,21.27a4.09,4.09,0,0,0-.92-.65A2.46,2.46,0,0,0,65,20.39a2.12,2.12,0,0,0-.91.19,2.29,2.29,0,0,0-.71.52,2.42,2.42,0,0,0-.47.77,2.65,2.65,0,0,0-.16.94v0a2.65,2.65,0,0,0,.16.94,2.51,2.51,0,0,0,.46.78,2.2,2.2,0,0,0,.71.53,2.13,2.13,0,0,0,.92.19A2.38,2.38,0,0,0,66.16,25a4.46,4.46,0,0,0,.92-.67l1.08,1.1A4.22,4.22,0,0,1,67.54,26Z"/><path class="cls-1" d="M75.93,24.87a2.81,2.81,0,0,1-.68,1.1,2.71,2.71,0,0,1-1.07.65,4.44,4.44,0,0,1-1.41.22A3.37,3.37,0,0,1,70.31,26a3.43,3.43,0,0,1-.9-2.58V19h1.71v4.39a2,2,0,0,0,.44,1.44,1.58,1.58,0,0,0,1.23.48A1.6,1.6,0,0,0,74,24.8a2,2,0,0,0,.44-1.4V19h1.71v4.38A4.45,4.45,0,0,1,75.93,24.87Z"/><path class="cls-1" d="M78,26.71V19H79.7v7.76Z"/><path class="cls-1" d="M88.5,24.36a3.57,3.57,0,0,1-.85,1.23,3.83,3.83,0,0,1-1.31.82,4.51,4.51,0,0,1-1.67.3h-3V19h3a4.72,4.72,0,0,1,1.67.29,4,4,0,0,1,1.31.82,3.7,3.7,0,0,1,1.15,2.75v0A3.87,3.87,0,0,1,88.5,24.36ZM87,22.83a2.62,2.62,0,0,0-.17-.94,2.25,2.25,0,0,0-.48-.74,2.13,2.13,0,0,0-.74-.49,2.59,2.59,0,0,0-1-.17H83.35v4.68h1.32a2.59,2.59,0,0,0,1-.16,2,2,0,0,0,.74-.48,2.44,2.44,0,0,0,.48-.73,2.59,2.59,0,0,0,.17-.95Z"/><path class="cls-1" d="M96.09,26.71,95.38,25H92.1l-.71,1.74H89.65L93,18.89h1.57l3.33,7.82ZM93.74,21l-1,2.51h2.06Z"/><path class="cls-1" d="M105.93,24.36a3.44,3.44,0,0,1-.85,1.23,3.79,3.79,0,0,1-1.3.82,4.55,4.55,0,0,1-1.67.3h-3V19h3a4.76,4.76,0,0,1,1.67.29,3.94,3.94,0,0,1,1.3.82,3.68,3.68,0,0,1,.85,1.22,3.87,3.87,0,0,1,.3,1.53v0A3.87,3.87,0,0,1,105.93,24.36Zm-1.48-1.53a2.42,2.42,0,0,0-.18-.94,2.08,2.08,0,0,0-.47-.74,2.22,2.22,0,0,0-.74-.49,2.67,2.67,0,0,0-1-.17h-1.32v4.68h1.32a2.67,2.67,0,0,0,1-.16,2.06,2.06,0,0,0,.74-.48,2.23,2.23,0,0,0,.47-.73,2.4,2.4,0,0,0,.18-.95Z"/><path class="cls-1" d="M115.35,24.39a3.93,3.93,0,0,1-2.17,2.14,4.27,4.27,0,0,1-1.66.32,4.22,4.22,0,0,1-1.65-.32,4,4,0,0,1-1.3-.85,3.86,3.86,0,0,1-.86-1.27,4,4,0,0,1-.3-1.56v0a3.91,3.91,0,0,1,.31-1.56,4,4,0,0,1,.86-1.27,3.85,3.85,0,0,1,1.31-.87,4.57,4.57,0,0,1,3.31,0,4,4,0,0,1,1.3.86,3.92,3.92,0,0,1,.86,1.26,4.09,4.09,0,0,1,.3,1.56v0A3.85,3.85,0,0,1,115.35,24.39Zm-1.47-1.56a2.5,2.5,0,0,0-.18-.94,2.22,2.22,0,0,0-.48-.78,2.59,2.59,0,0,0-.75-.52,2.41,2.41,0,0,0-1.9,0,2.37,2.37,0,0,0-.73.52,2.42,2.42,0,0,0-.47.77,2.46,2.46,0,0,0-.18.94v0a2.46,2.46,0,0,0,.18.94,2.22,2.22,0,0,0,.48.78,2.37,2.37,0,0,0,.75.53,2.45,2.45,0,0,0,1.89,0,2.16,2.16,0,0,0,.74-.52,2.6,2.6,0,0,0,.65-1.71Z"/><path class="cls-1" d="M120.59,26.71V19h1.7v7.76Z"/><path class="cls-1" d="M129.68,26.71l-3.76-4.93v4.93h-1.69V19h1.58l3.64,4.78V19h1.68v7.76Z"/><path class="cls-1" d="M134.71,20.49v1.68h3.7v1.54h-3.7v3H133V19h5.91v1.54Z"/><path class="cls-1" d="M146.05,26.71,145.34,25h-3.28l-.71,1.74h-1.74l3.33-7.82h1.57l3.33,7.82ZM143.7,21l-1,2.51h2.06Z"/><path class="cls-1" d="M154.48,26.71l-3.76-4.93v4.93H149V19h1.57l3.64,4.78V19h1.69v7.76Z"/><path class="cls-1" d="M161.31,20.52v6.19h-1.7V20.52h-2.37V19h6.44v1.57Z"/><path class="cls-1" d="M165.06,26.71V19h1.71v7.76Z"/><path class="cls-1" d="M168.71,26.71V19h1.71v6.22h3.87v1.54Z"/></svg>